<mxfile host="app.diagrams.net" modified="2020-08-24T13:53:37.610Z" agent="5.0 (Windows NT 10.0; Win64; x64) AppleWebKit/537.36 (KHTML, like Gecko) Chrome/84.0.4147.135 Safari/537.36" etag="RUN3WX-HrvRZuM8tc_S2" version="13.6.4" type="github" pages="2">
  <diagram id="KNpFS8UTVIkOIXCPBSxB" name="페이지-1">
    <mxGraphModel dx="751" dy="1085" grid="1" gridSize="10" guides="1" tooltips="1" connect="1" arrows="1" fold="1" page="1" pageScale="1" pageWidth="827" pageHeight="1169" math="0" shadow="0">
      <root>
        <mxCell id="0" />
        <mxCell id="1" parent="0" />
        <mxCell id="OWC-Z4vgk1YnJrBy6lzs-2" value="" style="shape=image;verticalLabelPosition=bottom;labelBackgroundColor=#ffffff;verticalAlign=top;aspect=fixed;imageAspect=0;image=data:image/png,/9j/4AAQSkZJRgABAQAAAQABAAD/4gIoSUNDX1BST0ZJTEUAAQEAAAIYAAAAAAIQAABtbnRyUkdCIFhZWiAAAAAAAAAAAAAAAABhY3NwAAAAAAAAAAAAAAAAAAAAAAAAAAAAAAAAAAAAAQAA9tYAAQAAAADTLQAAAAAAAAAAAAAAAAAAAAAAAAAAAAAAAAAAAAAAAAAAAAAAAAAAAAAAAAAAAAAAAAAAAAlkZXNjAAAA8AAAAHRyWFlaAAABZAAAABRnWFlaAAABeAAAABRiWFlaAAABjAAAABRyVFJDAAABoAAAAChnVFJDAAABoAAAAChiVFJDAAABoAAAACh3dHB0AAAByAAAABRjcHJ0AAAB3AAAADxtbHVjAAAAAAAAAAEAAAAMZW5VUwAAAFgAAAAcAHMAUgBHAEIAAAAAAAAAAAAAAAAAAAAAAAAAAAAAAAAAAAAAAAAAAAAAAAAAAAAAAAAAAAAAAAAAAAAAAAAAAAAAAAAAAAAAAAAAAAAAAAAAAAAAAAAAAFhZWiAAAAAAAABvogAAOPUAAAOQWFlaIAAAAAAAAGKZAAC3hQAAGNpYWVogAAAAAAAAJKAAAA+EAAC2z3BhcmEAAAAAAAQAAAACZmYAAPKnAAANWQAAE9AAAApbAAAAAAAAAABYWVogAAAAAAAA9tYAAQAAAADTLW1sdWMAAAAAAAAAAQAAAAxlblVTAAAAIAAAABwARwBvAG8AZwBsAGUAIABJAG4AYwAuACAAMgAwADEANv/bAEMABgQFBgUEBgYFBgcHBggKEAoKCQkKFA4PDBAXFBgYFxQWFhodJR8aGyMcFhYgLCAjJicpKikZHy0wLSgwJSgpKP/bAEMBBwcHCggKEwoKEygaFhooKCgoKCgoKCgoKCgoKCgoKCgoKCgoKCgoKCgoKCgoKCgoKCgoKCgoKCgoKCgoKCgoKP/AABEIBEcC0wMBIgACEQEDEQH/xAAcAAEBAAMBAQEBAAAAAAAAAAAABgQFBwMIAgH/xABZEAAABgACBAkJBQMJBgUDAgcAAQIDBAUGERIWIVYHExQxNnWTtdQiN0FRVJWWs9MVFzJh0iNxgTNCUnJ0kaGxsiQlNGJjwwhDRVOic4KS0ePxRFWUpMHh/8QAGAEBAAMBAAAAAAAAAAAAAAAAAAECAwT/xAAnEQEAAgEDAgQHAAAAAAAAAAAAAQIRAyExElETQaHBInGBsdHw8f/aAAwDAQACEQMRAD8A7VhuDd4giTp7uMbuJ/vOfHQxGYg8W22zLeaQRacdSj8lCdpqMzPMbXVe337xJ2Fd4UODTo5M66tu8ZAqgErqvb794k7Cu8KGq9vv3iTsK7woqgASuq9vv3iTsK7woar2+/eJOwrvCiqABK6r2+/eJOwrvChqvb794k7Cu8KKoAErqvb794k7Cu8KGq9vv3iTsK7woqgASuq9vv3iTsK7woar2+/eJOwrvCiqABK6r2+/eJOwrvChqvb794k7Cu8KKoAErqvb794k7Cu8KGq9vv3iTsK7woqgASuq9vv3iTsK7woar2+/eJOwrvCiqABK6r2+/eJOwrvChqvb794k7Cu8KKoAErqvb794k7Cu8KGq9vv3iTsK7woqgASuq9vv3iTsK7woar2+/eJOwrvCiqABK6r2+/eJOwrvChqvb794k7Cu8KKoAErqvb794k7Cu8KGq9vv3iTsK7woqgASuq9vv3iTsK7woar2+/eJOwrvCiqABzrCFZfXNS/KlY4xAhxuwnRCJuPXkWgzKdZQe2Ke00tkZ/nnzcw3eq9vv3iTsK7wocGnRyZ11bd4yBVAJXVe337xJ2Fd4UNV7ffvEnYV3hRVAAldV7ffvEnYV3hQ1Xt9+8SdhXeFFUACV1Xt9+8SdhXeFDVe337xJ2Fd4UVQAJXVe337xJ2Fd4UNV7ffvEnYV3hRVAAldV7ffvEnYV3hQ1Xt9+8SdhXeFFUACV1Xt9+8SdhXeFDVe337xJ2Fd4UVQAJXVe337xJ2Fd4UNV7ffvEnYV3hRVAAldV7ffvEnYV3hQ1Xt9+8SdhXeFFUACV1Xt9+8SdhXeFDVe337xJ2Fd4UVQAJXVe337xJ2Fd4UNV7ffvEnYV3hRVAAldV7ffvEnYV3hQ1Xt9+8SdhXeFFUACV1Xt9+8SdhXeFDVe337xJ2Fd4UVQAJXVe337xJ2Fd4UNV7ffvEnYV3hRVAAldV7ffvEnYV3hQ1Xt9+8SdhXeFFUADm9XUXj+L72AvHOIyZisxVoMmoBmZrJzPMjjZF+EuYi/PPZlvtV7ffvEnYV3hQo/OJir+zQf8nhVAJXVe337xJ2Fd4UNV7ffvEnYV3hRVAAldV7ffvEnYV3hQ1Xt9+8SdhXeFFUACV1Xt9+8SdhXeFDVe337xJ2Fd4UVQAJXVe337xJ2Fd4UNV7ffvEnYV3hRVAAldV7ffvEnYV3hQ1Xt9+8SdhXeFFUACV1Xt9+8SdhXeFDVe337xJ2Fd4UVQAJXVe337xJ2Fd4UNV7ffvEnYV3hRVAAldV7ffvEnYV3hQ1Xt9+8SdhXeFFUACV1Xt9+8SdhXeFDVe337xJ2Fd4UVQAJXVe337xJ2Fd4UNV7ffvEnYV3hRVAAldV7ffvEnYV3hQ1Xt9+8SdhXeFFUACV1Xt9+8SdhXeFDVe337xJ2Fd4UVQAJXVe337xJ2Fd4UNV7ffvEnYV3hRVAAldV7ffvEnYV3hQ1Xt9+8SdhXeFFUACa4PJc2ZhtarOY7OksWE+Jyh1CErcQzMeaQaiQlKc9FCc8kkA8uDTo5M66tu8ZAAHBp0cmddW3eMgVQleDTo5M66tu8ZAqgAAAAAAAAAAAAAAAAABL8JU6DX4SkO2ljbVzCltoJ+qSpUnTNRaKUaKVfiPZzZbechUDW4lr37bDtnXQ5rkCTLjOMNym/xMqUkyJZc20jPPnL95AOA2kfF8Hg8RYTZ9ryqfiSCqtiW0k1PMR+MIkJfNBFomszzUki2FkXPsFVjnhCk4f4T+D+rsZ7MZninFXyIyjVHQp1BIZ0lGWaUE7mZGrLZkZjSUXA1ew7DD6kxsNU7tZJafkXFbIkqmTEoPykqSoiT+0/nZqUW3mMdaPAWGVoxAl6pYeK+XxlibpqWb5kWzaZ5kRc5EWREe0sjASnBVcuvY84Qqt5mwdSi2W63JUg1R0JJtouLJeexW3PRy5szHUhFcG+EXsJysTErk6Yc+x5RDbZUpRtsk02hKVZlsMtD8/RtFqAAAAAAAAAAAAAAAAAAAAAleDTo5M66tu8ZAqhK8GnRyZ11bd4yBVAAAAAAAAAAAAAAAAAAkuFiUuLwdX/J57MCa9EdZivOy0Rf2yknoETilJJJ58x5kPnKNj3FFpJr6d3FK0HXSoS5q3rKsZaNvSJSsnkOEp0tEjzJJq9Stp5D6dxzSuYhwjbVcZTLcuRGcbjvOpzJl00mSV8xmRkZ55ltENUYRxZFZhR5lTwfvtNJQ267yZ03XCLIlKzNOWke0/wB4DoF6wq3oF/Z107WpdSl1FhE4tZkjYrMjWSkmRl6cuYxwSXc3s/gtxDaP3s+xrDxBEjVUx5KGlvMIkNpU4RtpSRpUo1EX5EO64pwvW4mo009kl9NdpoNTEZ5TJOJT/wCWrRMs0GWw0839xDS8I2D3LzArVBh9uHDSzIiLabVm20htp1CjSRJI8vJTkRZAOVcMmL4MXENvBo8bWca55I462hu3aaix5Dako4hSFJ8lR+UrI1FzGKzgVuptpi/GxIznUypLTzNjynSSajYayQlB7cjIzVpcw3uI8O4tRwgFf4Wk0/IV1qYjkKwW8SOO41SzeJKCy0sjSnPnyIxtcB0tpVv3Uu7i07EyxkJkOKrXHlE4okkk1K4zmPIklknIgFaAAAAAAAAAAAAAAAAAAACVo/OJir+zQf8AJ4VQlaPziYq/s0H/ACeFUAAAAAAAAAAAAAAAAAAAAADk2JawoV1LgHwg4vYslQX7RuOlcfiktIPI9vEbCIzIsjPPIdVlNrdjPNtPKYcWg0pdSRGaDMtiiI9hmXPtHM5PBbZybxFxIx5cuWCIq4ROqhxDLiVqJSkGnitEyMyLnLMBHWd1d3PBlgtiBaYkXjizruOjogK4tpzS0c35K9A0khGZHzkflZenMtdUv4hicP1ZWzrB6TWs2RscY485pOuFVkaj0T8nRMy0uf8AEZ7B2aNgmM9hZuixFNk3MZtwltqUSYpoSkskoImCQRJLbkX5/uE+fBfEqcb4Xt8LoOJFguvqnodnPuG6hTKkoJKVqUR5KPP0AOmAAAAAAAAAAAAAAAAAAAAleDTo5M66tu8ZABwadHJnXVt3jIAA4NOjkzrq27xkCqHNcEUNjNq7GRGxZd17S7q10Y0ZqGptGU+QWw3I61bcs9qj2meWRZEKDVe337xJ2Fd4UBVAJXVe337xJ2Fd4UNV7ffvEnYV3hQFUAldV7ffvEnYV3hQ1Xt9+8SdhXeFAVQCV1Xt9+8SdhXeFDVe337xJ2Fd4UBVAJXVe337xJ2Fd4UNV7ffvEnYV3hQFUAldV7ffvEnYV3hQ1Xt9+8SdhXeFAVQCV1Xt9+8SdhXeFDVe337xJ2Fd4UBVAJXVe337xJ2Fd4UNV7ffvEnYV3hQFUAldV7ffvEnYV3hQ1Xt9+8SdhXeFAVQCV1Xt9+8SdhXeFDVe337xJ2Fd4UBVAJXVe337xJ2Fd4UNV7ffvEnYV3hQFUAldV7ffvEnYV3hQ1Xt9+8SdhXeFAVQCV1Xt9+8SdhXeFDVe337xJ2Fd4UBVAJXVe337xJ2Fd4UNV7ffvEnYV3hQFUAldV7ffvEnYV3hQ1Xt9+8SdhXeFAODTo5M66tu8ZAqhzDg9w5aPUMpTeNMQMJK2s0aDbMAyM0z3yNXlRjPNRkaj25ZmeREWRFS6r2+/eJOwrvCgKoBK6r2+/eJOwrvChqvb794k7Cu8KAqgErqvb794k7Cu8KGq9vv3iTsK7woCqASuq9vv3iTsK7woar2+/eJOwrvCgKoBK6r2+/eJOwrvChqvb794k7Cu8KAqgErqvb794k7Cu8KGq9vv3iTsK7woCqASuq9vv3iTsK7woar2+/eJOwrvCgKoBK6r2+/eJOwrvChqvb794k7Cu8KAqgErqvb794k7Cu8KGq9vv3iTsK7woCqASuq9vv3iTsK7woar2+/eJOwrvCgKoBK6r2+/eJOwrvChqvb794k7Cu8KAqgErqvb794k7Cu8KGq9vv3iTsK7woCqASuq9vv3iTsK7woar2+/eJOwrvCgKoBK6r2+/eJOwrvChqvb794k7Cu8KAqgErqvb794k7Cu8KGq9vv3iTsK7woBR+cTFX9mg/5PCqHMKfDlorHmJG040xAhaI8M1OpZgaTmfG5EecbLZlsyIuc889mVLqvb794k7Cu8KAqgErqvb794k7Cu8KGq9vv3iTsK7woCqASuq9vv3iTsK7woar2+/eJOwrvCgKoBK6r2+/eJOwrvChqvb794k7Cu8KAqgErqvb794k7Cu8KGq9vv3iTsK7woCqASuq9vv3iTsK7woar2+/eJOwrvCgKoBK6r2+/eJOwrvChqvb794k7Cu8KAqgErqvb794k7Cu8KGq9vv3iTsK7woCqASuq9vv3iTsK7woar2+/eJOwrvCgKoBK6r2+/eJOwrvChqvb794k7Cu8KAqgErqvb794k7Cu8KGq9vv3iTsK7woCqASuq9vv3iTsK7woar2+/eJOwrvCgKoBK6r2+/eJOwrvChqvb794k7Cu8KAqgErqvb794k7Cu8KGq9vv3iTsK7woCqASuq9vv3iTsK7woar2+/eJOwrvCgHBp0cmddW3eMgB5cFLS2MJOtOvuyXG7a1Qp50kktwysJBGpRJIk5nznkRF6iIAHrwadHJnXVt3jIFUJXg06OTOurbvGQKoAAAAAAAAAAAAAAAAAAAAAAAAAAAAAAAAAAAAAAAAAAAAAAAErwadHJnXVt3jIFUJXg06OTOurbvGQKoAAAAAAAAAAAAAAAAAAAAAAAAAAAAAAAAAAAAAAAAAAAAAAAErR+cTFP9lg/wDeFUJWj84mKf7LB/7wqgAAAAAAAAAAAAAAAAAAAAAAAAAAAAAAAAAAAAAAAAAAAAAAASvBp0cmddW3eMgA4NOjkzrq27xkAAcGnRyZ11bd4yBVCV4NOjkzrq27xkCqAAAAAAAAAAAAAAAAAAAAAAAAAAAAAAAAAAAAAAAAAAAAAAABK8GnRyZ11bd4yBVCV4NOjkzrq27xkCqAAAAAAAAAAAAAAAAAAAAAAAAAAAAAAAAAAAAAAAAAAAAAAABK0fnExT/ZYP8A3hVCVpPOJin+ywf+8KoAAAAAAAAAAAAAAAAAAAAAAAAAAAAAAAAAAAAAAAAAAAAAAAErwadHJnXVt3jIAODTo5M66tu8ZAAHBp0cmddW3eMgVQleDTo5M66tu8ZAqgAAAAAAARVg3a2+P7KtjYisqmFDrIchLcJqKrTcddlJUajeZcPmZRkRGRc/rGXqvb794k7Cu8KFb508Q9S1nz54qgErqvb794k7Cu8KGq9vv3iTsK7woqgASuq9vv3iTsK7woar2+/eJOwrvCiqABK6r2+/eJOwrvChqvb794k7Cu8KKoAErqvb794k7Cu8KGq9vv3iTsK7woqgASuq9vv3iTsK7woar2+/eJOwrvCiqABK6r2+/eJOwrvChqvb794k7Cu8KKoAErqvb794k7Cu8KGq9vv3iTsK7woqgASuq9vv3iTsK7wo0mN6y+ocF39vDxxiBcmvr5EtpLsevNClttqURKIopHlmRZ5GQ6KJXhY81mMupZvyFgKoAAAAAAAAAErwadHJnXVt3jIFUJXg06OTOurbvGQKoAAAAAAAEVYN2tvj+yrY2IrKphQ6yHIS3Caiq03HXZSVGo3mXD5mUZERkXP6xl6r2+/eJOwrvChW+dPEPUtZ8+eKoBK6r2+/eJOwrvChqvb794k7Cu8KKoAErqvb794k7Cu8KGq9vv3iTsK7woqgASuq9vv3iTsK7woar2+/eJOwrvCiqABK6r2+/eJOwrvChqvb794k7Cu8KKoAErqvb794k7Cu8KGq9vv3iTsK7woqgASuq9vv3iTsK7woar2+/eJOwrvCiqABK6r2+/eJOwrvChqvb794k7Cu8KKoAErqvb794k7Cu8KNJjesvqHBd/bw8cYgXJr6+RLaS7HrzQpbbalESiKKR5ZkWeRkOiiV4WPNZjLqWb8hYCqAAAAAAAAABK0nnFxT/ZYP/fFUJWk84uKf7LB/74qgAAAAAAAAAAAAAAAAAAAAAAAAAAAAAAAAAAAAAAAAAAAAAAASvBp0cmddW3eMgA4NOjkzrq27xkAAcGnRyZ11bd4yBVCV4NOjkzrq27xkCqAAAAAAABK1vnTxD1LWfPniqErW+dPEPUtZ8+eKoAEzwkWj1Ngy0sIctcaXHZW6xoJSo3nEpM0tFpJUXlGRFzekUwwLet+0mUN8smxNBWlpRXeLUf5GeXMAjcFYgXY4vmwU4iesojMRp1rTaaRxq1GvTLyW0n5BJb9P8/m2CIrMdSrOPXSK/GyW3JK2HOT2FpVEZIUtJqQttLBLJWjpFkRkeY6uzhjilmoru8UeipOSpeZFmRlnzc5Z5l+YxE4IYRZOz03d6Ux1pDC3eVFmaEmpSU/h9BrUf8QG0s6yzlS1Ow76RCZMiImUR2lkR+vNSTMc1ucSYqlYQw47VSJyZ09iUtc2MxpNkaVJJo1oRFfM8yVmRESCPRVt5suhyMLsvvKdVaXaVK5ybsHEJ/gRHkQ1t1gSJPwu1SMvmcZqU1JSmcjlbfkGRkg0KMiNGzmzyAaLg9tMQTsaTkWypB1xMPqYNzjEGs+NRkam1IToGRGZEW08s8yLmGLi67s2MXWCG3LxcBKW0MohodbShZEent5OslZnlkZHkKTCGBWcO371o39lNLcjcm4qurEw0mWmStJWio9I9mQ88W8H8fEF4qzcXXPLWylk2bOtRObbJJntaJRloGelty2HkWwBLYrxg/FwhTFFnSIkxUlaZBTJLceRxZJUekRPmwThZm2WzLLP05GMngWxQ5ezJypV25MS/GYdjRZDsfjGyI1mtWgh5xZGZLbIyWSctEvSZ5WtdhGBHw5Bp5i35rMQ1Gla3DQeZmZ5FoGWSS0siTzEREXoHpRYZYpLufMgvupiyo7DJRFLWtLa21OmbhGpR7VE4kjLIv5Muf0BO4puJcfE8mPYXdnRVrLCHYqoMBL5ST26ZrWppwiMjyIkFon6czz2arEd1imXgSqKAStYZq3TZjJjutOSW0OeQ4akrSTBG3orUS+Y1EnnyI622wVFs7V2wfs7dDzjK4+TUgkpS0syNSCLR2EZpL+4eFpgWNMwi3QFPlLjtOtON8sykINKMsmloPIltGRbUnz584DV4IvLSzxRGanG6UYqpSkqUhbJPKJ8k6RtLM1IUReSekZmZ5nzGOiCPwZgpvDltNsCdgocktIZVHrYKYUbyTM9M2yUrSXty0jPmLIWAAJXhY81mMupZvyFiqErwseazGXUs35CwDXyo9jxJ8OWP0A18qPY8SfDlj9AVQAJXXyo9jxJ8OWP0A18qPY8SfDlj9AVQAJXXyo9jxJ8OWP0A18qPY8SfDlj9AVQAOYcHuNKuNQykORcQGo7azczboJ7hZKnvqLalkyzyMsy5yPMjIjIyFLr5Uex4k+HLH6AcGnRyZ11bd4yBVAJXXyo9jxJ8OWP0A18qPY8SfDlj9AVQAJXXyo9jxJ8OWP0BzPhR4c3ME4hp3Y9XKmUcxtaHmZddKgSEOIUWa0LeQlKyyWXkkR5GnaZZkO7CduMFYfu8RRLu4rWp8+I1xUflJm420WkatJLZnoaWZ/iyz2Ft2AJng3xRBxji+3u6tqYzFk0laaUS2DaWX7ef6D2GX5pMyP1jpAla3zp4h6lrPnzxVAAAAAOSY1xfLq7nEjEXEUhtUKCiREjpZZMnX1G6RsZm0Z7NBs88zPJz8h1sTz2GCdeW59t3iNNRq0US8kln6CLLmASmOcUpqmsOsN4lkRuWx33incohRm3ybNovKU+0pOkfGZkSSL+dnzFlm8HljYXtbdJPErM7J5KY0hiRElOMJ0E5ks2UJRmaiVkRpzyG3s8HM2Vc5Al3F2uK6yuO6jlRftEKz0iUejntJRl+7Ie7OF0NxlsKuLtxsySRZyzSacvUaSIwGu07irxfRwX7p2fHmpkKdbdjtIyJtBGRkaUkf4lJ/vHNkYjxy/B5QldoS3jaNuHMacbNo9FzTJbyYTSS50eSWntTz5bR1ljCURmfGmHPuHX455oN2e4sssyM0nmfMeiWZenITFxwWxrGxuJSvsJ07J5TylzKVEh5vSQScicNZHkWWZbNgDZ3M6xZ4KmH478pFu7BZJDqWluOcaaUmZmSUqMj59pkY0OEsQyFYgiImJxGTK1Ggzkk6tsjMsi0i5OnIszLaaiIucxcycPNyMG6vKlPttnDTD5Q0ei4REkk6Rfns5ub0CdwxwdsUd7Fs23K1hUdK0k3V1bcLjiUk05PGkzNZFnmRbCzIj9ADl1/jywdubGPFxEqOT70k4jsWdCdaS0leSF6SpSCIzSpJklREfOW3IzH0FTS2p1VEkx5CJLTrSVE8hSVEvZz5pMyP8AgZkNHeYIqrOJYJQl6NMlIcIpKH3c21qI/LIiWRbDPPLYKSK0bEZlpSzWbaCSaj51ZFlmA9AAAASvCx5rMZdSzfkLFUJXhY81mMupZvyFgKoAAAAAAAAAErSecXFP9lg/98VQlaTzi4p/skD/AL4qgAAAAAAAAAAAAAAAAAAAAAAAAAAAAAAAAAAAAAAAAAAAAAAASvBp0cmddW3eMgA4NOjkzrq27xkAAcGnRyZ11bd4yBVCV4NOjkzrq27xkCqAAAAAAABK1vnTxD1LWfPniqE1bYWdmX71vAxBb1Ml+K1EdTDTGUhxDS3VIMyeZcMjI3l8xl6PUPLVe337xJ2Fd4UBVAJXVe337xJ2Fd4UNV7ffvEnYV3hQFUAldV7ffvEnYV3hQ1Xt9+8SdhXeFAVQCV1Xt9+8SdhXeFDVe337xJ2Fd4UBVAJXVe337xJ2Fd4UNV7ffvEnYV3hQFUAldV7ffvEnYV3hQ1Xt9+8SdhXeFAVQCV1Xt9+8SdhXeFDVe337xJ2Fd4UBVAJXVe337xJ2Fd4UNV7ffvEnYV3hQFUJXhY81mMupZvyFhqvb794k7Cu8KMS2wPNt6qbW2GNsSPQpjK477fFQE6ba0mlRZlFIyzIz2keYC1AAAAAAAAABK8GnRyZ11bd4yBVCV4NOjkzrq27xkCqAAAAAAABK1vnTxD1LWfPniqE1bYWdmX71vAxBb1Ml+K1EdTDTGUhxDS3VIMyeZcMjI3l8xl6PUPLVe337xJ2Fd4UBVAJXVe337xJ2Fd4UNV7ffvEnYV3hQFUAldV7ffvEnYV3hQ1Xt9+8SdhXeFAVQCV1Xt9+8SdhXeFDVe337xJ2Fd4UBVAJXVe337xJ2Fd4UaTCFZfXNS/KlY4xAhxuwnRCJuPXkWgzKdZQe2Ke00tkZ/nnzcwDooCV1Xt9+8SdhXeFDVe337xJ2Fd4UBVAJXVe337xJ2Fd4UNV7ffvEnYV3hQFUAldV7ffvEnYV3hQ1Xt9+8SdhXeFAVQleFjzWYy6lm/IWGq9vv3iTsK7woxLbA823qptbYY2xI9CmMrjvt8VATptrSaVFmUUjLMjPaR5gLUAAAAAAAAAErSecXFP9kgf98VQlaTzi4p/skD/viqAAAAAAAAAAAAAAAAAAAAAAAAAAAAAAAAAAAAAAAAAAAAAAABK8GnRyZ11bd4yADg06OTOurbvGQABwadHJnXVt3jIFUJXg06OTOurbvGQKoAAAAAAAAAAAAAAAAAAAAAAAAAAAAAAAAAAAAAAAAAAAAAAAErwadHJnXVt3jIFUJXg06OTOurbvGQKoAAAAAAAABP3OLqqotVVskrJ6allEhTcKrlS9BtalpSajZbUSczbXkRnn5JjF18qPY8SfDlj9ABVAJXXyo9jxJ8OWP0A18qPY8SfDlj9ABVAJXXyo9jxJ8OWP0A18qPY8SfDlj9ABVAJXXyo9jxJ8OWP0A18qPY8SfDlj9ABuMRXtbhuqcsruUmJAbWhC31JUaUGtRJTpZEeRaSiLM9hZ7RFcE+LaCe1IpoFrFl2S7C2mEzHVxuTJ2Dxks1JzSkjJxBlmZZkojLMhnX+JsO31JOqbKvxI5CmsqYdTq5YZ6KiyMyPiNhlzkfoPIxzH/wAPNNV8G1Vaqs41+/bTZKk8a3hyxMijoMybIv2GzS2qP96SPakB9DgJXXyo9jxJ8OWP0A18qPY8SfDlj9ABVAJXXyo9jxJ8OWP0A18qPY8SfDlj9ABVAJXXyo9jxJ8OWP0A18qPY8SfDlj9ABVAJXXyo9jxJ8OWP0B5S+EWhhxXpUxrEDEZhCnHXXcPWCUNoSWZqUZsZERERmZmArwAAAAAAAAAStJ5xcU/2SB/3xVCVpPOLin+yQP++KoAAAAAAAABP3OLqqotVVskrJ6allEhTcKrlS9BtalpSajZbUSczbXkRnn5JjF18qPY8SfDlj9ABVAJXXyo9jxJ8OWP0A18qPY8SfDlj9ABVAJXXyo9jxJ8OWP0A18qPY8SfDlj9ABVAJXXyo9jxJ8OWP0A18qPY8SfDlj9ABVAJXXyo9jxJ8OWP0A18qPY8SfDlj9ABVAJXXyo9jxJ8OWP0A18qPY8SfDlj9ABVAJXXyo9jxJ8OWP0A18qPY8SfDlj9ABVAJXXyo9jxJ8OWP0A18qPY8SfDlj9ABVAJXXyo9jxJ8OWP0B5S+EWhhxXpUxrEDEZhCnHXXcPWCUNoSWZqUZsZERERmZmArwAAAAAAAAASvBp0cmddW3eMgA4NOjkzrq27xkAAcGnRyZ11bd4yBVCV4NOjkzrq27xkCqAAAAAAAAAAAAAAAAAAAAAAAAAAAAAAAAAAAAAAAAAAAAAAABK8GnRyZ11bd4yBVCV4NOjkzrq27xkCqAAAAAAABK1vnTxD1LWfPniqErW+dPEPUtZ8+eKoAAAAAAT9hjCmr5ciNKelpdY2uaMF9ZJL16SUGWWw9ueWwwFAA007EkCFEiSXGrN1qUk1N8mrJL6iIsvxJbbUaOf+cRZ7fUY/Ffiqqnw50lhcxKIKiRIQ9BfZdbMyJRfs1oJZ5koj2F6QG8AaOvxXTz7BmDHku8qeJRttuxnWtPRLM8jUkiPIhr3uECjaeWwv7RRITo5tP178dWSiXkZcahOZfs1FmWfMArAGA3asu0bVq23IXHdZS+lDbRrcNKiIy8lOZme3mIayLi6vftIVeuPaRpExSkMcqgPMpWpKFLMtJSSLPRSo/4AKIBN2GNqOuOTy16Y0iNpca4dfI0EEnPSPSJGWRZHtzyFG2tLiErQeaVERkfrIB/QAAASvCx5rMZdSzfkLFUJXhY81mMupZvyFgKoAAAAAAAAAErSecbFP9kgf98VQlaTzjYp/skD/viqAAAAAAGCq3rkXKahc+Km0W1x6YinSJ1TeZlpknnMs0ntL1ANHW+dPEPUtZ8+eKoStb508Q9S1nz54qgAAGFb2cWogrmT1uIjoPJSkNLcMv4JIzy/PIBmgNNVYmrLWacSEuUb5I0zS7DeaIk+vNaCL/8AgMBeOqVo0cei6joU4lonH6Sa02SlKJKc1qaJJZmZFmZ5bQFQA09niWsrJao0xyQl4iIzJER1wsj/ADSky/xGNNxlTQ6Vm3W7MernULcJ+NAffSlKPxGvi0GaCLb+LLmP1GAoQGhpsV1txaOQIJvKdQhxZqUjJJkhZIP8+dRegetpiBiulnHdhWryiIj040B15G3/AJkpMgG5AaBnFtS9TR7RKpZxH3HGk5Q3lLJaFKQolISk1JyUlRbSLmGRSYjrLuTKj1zzqpEZKFvNOx3GVJSs1Ek8lpI8j0F7S/omA24CWs8d0tbiNqmkuOcoWXlOESeLbP1K25583MR85D1cxpTNVMKe8uUSJji22GWorj7zhoUZKybaJSjItEzMyLIiyzyAUgDT1mJK20mRo9e8b5SIhzG3Ul5BtkvQPn2krM+Yy2ZHmNwACV4WPNZjLqWb8hYqhK8LHmsxl1LN+QsBVAAAAAAAAAAleDTo5M66tu8ZABwadHJnXVt3jIAA4NOjkzrq27xkCqErwadHJnXVt3jIFUAAAAAAAAAAAAAAAAAAAAAAAAAAAAAAAAAAAAAAAAAAAAAAACV4NOjkzrq27xkCqErwadHJnXVt3jIFUAAAAAAACVrfOniHqWs+fPFUJWt86eIepaz588VQAAAADkeLK2fb2mIFZ3LTFpDTWvNopyWRsIU6ZZK4ws8+OXty2kZbB1wAHJMfIt7SJWTYcOfIsIUOQXJJFU6bMpxZo0dIm30cWrNrIjM1ZE4Z5Db4GdkUlfOU7SyVvurQ4pEOrXFNR6Ojt419emZERFnmWwuYdEABDyZkuyxdQTPsO4YjxOOQs3WmyyU4SEpUZks/JItPP08w4/YUNZUt2tOhulVDrnuKNixlMMOzOLbzStSW4Wks/LPI1OKzPM+fm+mAARkl6XC4LIUmuVPakRq9lxLcVDa3lETZeTktCi/fkkz2bC9AgsDJmO4srWXbc56TlPzjVAkNSiYcWSlOcbnEb0ErIzRmSiPNRERFzl3AAHMsXTbq+RcVrVPex6yfTvQiUcdpXFvuZp09HjCM8kn6x0Wuc46CwsmHo5GgsmniIlo/IyIzLP8AiMgAAAAAErwseazGXUs35CxVCV4WPNZjLqWb8hYBqvb794k7Cu8KGq9vv3iTsK7woqgASuq9vv3iTsK7woar2+/eJOwrvCiqABK6r2+/eJOwrvChqvb794k7Cu8KKoAHMKjDlorHuI2ixpiBC0RYRqdJmBpOZ8dkR5xssiyPLIi5zzz2ZUuq9vv3iTsK7woUnnGxR/Y4H/fFUAldV7ffvEnYV3hQ1Xt9+8SdhXeFFUACV1Xt9+8SdhXeFHH+GfgmxbjPFWH49ZcTpLEJtbzttZHFaSwalFkhsmGkLUotA1bSMtqdqczH0UADm/BvSTsPYvt620vJl5KZpK0lTZZES1/t5+zZmeX9Y1H+ZjpAla3zp4h6lrPnzxVAAl+EiO5YYTnVbaZhosWlxHVRYpSFJbWg0q8k1FlsPYfrFQADm+GnLGFiSbaT27iUuVFbYcSdSTXks8YpGRk4Z55uL2ZbTUXMIqmo7aFJiwpVcc2FEZYWmbIoZK3n3UqPPSLleWkWihWllkZq5tg76ADQSMRvNPKQnD926kuZbbTeir92ayP/AAHLcTUDScB4ek3EFaJlY8qGbc9EdLJnIWg1uq4xp8iSRlsPRz5y9I7iADjfBMww3j6wdbTWPSXoS3XpkGWUjjTN1OxwyYaIlFlsyLLLPIiH64R5NoWK0R/ttcFiGtE6MudIZjNKcNK0klo+SOGsiIzI9JWZGZbD2GOxAA5nTzrOBwarRVwLyTYTGZTkb9iyRsOmaiI89FvNKl5rSo05mSszy5i3GEeUu4nsLCZX2cd2ZCisKOSyhKU8TxhntJZ5mZvKPm9AtAAcbxtgvEkzhATd1seI60hbTxGUZCjWtsyNrNSn0LTo6O0kGlKszzI8zzV1fFr8C0N0w9Z101M91K5LBpUtlL7xpd0kLS6g0FopPIi50kZGW0dkABAYKiVLWJGPsKemTGjVzjKyc0uOW4t8nFOKzSRHmpRmeWW09hZC/AAASvCx5rMZdSzfkLFUJXhY81mMupZvyFgKoAAAAAAAAAErwadHJnXVt3jIAODTo5M66tu8ZAAHBp0cmddW3eMgVQleDTo5M66tu8ZAqgAAAAAAAAAAAAAAAAAAAAAAAAAAAAAAAAAAAAAAAAAAAAAAASvBp0cmddW3eMgVQleDTo5M66tu8ZAqgAAAAAAAQs61aoeEm2lT4duuNKqYDbTsOrky0KW29MNaTNltREZE4g8jy/EQ2GvlR7HiT4csfoCqABK6+VHseJPhyx+gGvlR7HiT4csfoCqABK6+VHseJPhyx+gGvlR7HiT4csfoCqABK6+VHseJPhyx+gGvlR7HiT4csfoCqABK6+VHseJPhyx+gGvlR7HiT4csfoCqABK6+VHseJPhyx+gGvlR7HiT4csfoCqABK6+VHseJPhyx+gGvlR7HiT4csfoCqABK6+VHseJPhyx+gGvlR7HiT4csfoCqABK6+VHseJPhyx+gJ/hCxZCt8A4lra+uxI9NmVkmOw3q9PTpuLaUlJZmyRFmZltM8h0oAAAAAAAAAAAErS+cbFH9jgf98VQlaXzjYo/scD/ADfFUAAAAAAACFnWrVDwk20qfDt1xpVTAbadh1cmWhS23phrSZstqIjInEHkeX4iGw18qPY8SfDlj9AVQAJXXyo9jxJ8OWP0A18qPY8SfDlj9AVQAJXXyo9jxJ8OWP0A18qPY8SfDlj9AVQAJXXyo9jxJ8OWP0A18qPY8SfDlj9AVQAJXXyo9jxJ8OWP0B5RuEWhlNm5FaxA82la2zU3h6wURLQo0rTmTHOSkmky9BkZegV4leDTo5M66tu8ZABr5Uex4k+HLH6Aa+VHseJPhyx+gKoAErr5Uex4k+HLH6Aa+VHseJPhyx+gKoAErr5Uex4k+HLH6Aa+VHseJPhyx+gKoAErr5Uex4k+HLH6An+ELFkK3wDiWtr67Ej02ZWSY7Der09Om4tpSUlmbJEWZmW0zyHSgAAAAAAAAAAASvBp0cmddW3eMgA4NOjkzrq27xkAAcGnRyZ11bd4yBVCV4NOjkzrq27xkCqAAAAAAAAAAAAAAAAAAAAAAAAAAAAAAAAAAAAAAAAAAAAAAABK8GnRyZ11bd4yBVCV4NOjkzrq27xkCqAAAAAAAAAAAAAAAAAAAAAAAAAAAAAAAAAAAAAAAAAAAAAAABK0vnGxR/Y4H+b4qhK0vnGxR/Y4H+cgVQAAAAAAAAAAAAAAAAAAAAAJXg06OTOurbvGQKoSvBp0cmddW3eMgBVAAAAAAAAAAAAAAAAAAAAAAAJXg06OTOurbvGQAcGnRyZ11bd4yAAODTo5M66tu8ZAqhK8GnRyZ11bd4yBVAAAAAAAAAAAAAAAAAAAAAAAAAAAAAAAAAAAAAAAAAAAAAAAAleDTo5M66tu8ZAqhK8GnRyZ11bd4yBVAAAAAAAAAAAAAAAAAAAAAAAAAAAAAAAAAAAAAAAAAAAAAAAAlaXzj4o/scD/ADkCqErS+cfFH9jgf5yBVAAAAAAAAAAAAAAAAAAAAAAleDTo5M66tu8ZAqhK8GnRyZ11bd4yAFUAAAAAAAAAAAAAAAAAAAAAAAleDTo5M66tu8ZABwadHJnXVt3jIAA4NOjkzrq27xkCqErwadHJnXVt3jIFUAAAAAAAAAAAAAAAAAAAAAAAAAAAAAAAAAAAAAAAAAAAAAAACV4NOjkzrq27xkCqErwadHJnXVt3jIFUAAAAAAAAAgJeHKPEHCnd/b1NW2fEUtdxXLYqHuL0n52lo6RHlnkWeXPkQ2v3cYH3Nw37rY/SAqgEr93GB9zcN+62P0h93GB9zcN+62P0gKoBK/dxgfc3Dfutj9Ifdxgfc3Dfutj9ICqASv3cYH3Nw37rY/SH3cYH3Nw37rY/SAqgEr93GB9zcN+62P0h93GB9zcN+62P0gKoBK/dxgfc3Dfutj9Ifdxgfc3Dfutj9ICqASv3cYH3Nw37rY/SH3cYH3Nw37rY/SAqgEr93GB9zcN+62P0h93GB9zcN+62P0gKoBK/dxgfc3Dfutj9ImuE3AODofBtiyVDwnh9iSxUy3GnWq1lK21pZWZKSZJzIyMiMjIB08AAAAAAAAAErS+cfFH9jgf5yBVCVpfOPij+xQP85AqgAAAAAAAAEBLw5R4g4U7v7epq2z4ilruK5bFQ9xek/O0tHSI8s8izy58iG1+7jA+5uG/dbH6QFUAlfu4wPubhv3Wx+kPu4wPubhv3Wx+kBVAJX7uMD7m4b91sfpD7uMD7m4b91sfpAVQCV+7jA+5uG/dbH6Q+7jA+5uG/dbH6QGRwg4aTi7B9lTG8qO8+glR5CTMjZfQZKbWRlt2LSk9nozIce/8AC1hC/jfauI8ZPWC56Xn4MRmY4pRtZumuQsiMzLNbvpLaZpWe3SHWfu4wPubhv3Wx+kPu4wPubhv3Wx+kBVAJX7uMD7m4b91sfpD7uMD7m4b91sfpAVQCV+7jA+5uG/dbH6Q+7jA+5uG/dbH6QFUAlfu4wPubhv3Wx+kPu4wPubhv3Wx+kBVAJX7uMD7m4b91sfpE1wm4BwdD4NsWSoeE8PsSWKmW4061WspW2tLKzJSTJOZGRkRkZAOngAAAAAAAAAleDTo5M66tu8ZABwadHJnXVt3jIAA4NOjkzrq27xkCqErwadHJnXVt3jIFUAAAAAAAAAAAAAAAAAAAAAAAAAAAAAAAAAAAAAAAAAAAAAAACV4NOjkzrq27xkCqErwadHJnXVt3jIFUAAAAADBt7mspmOPt7GHAZ/pyn0tJ/vUZDR67wpOykrri5V6Dhw1JaV+553QaP+CwCt86eIepaz588VQhcJyp8zhJxI7Z132c79k1pIZN9LqtDjp2RqNOwjzz2EZ83Pt2XQAAAADwlzI0NvjJkhmO3kZ6TqyQWREZntP1ERn+4hrsaIsHMHXqKU1FaqgPlENB5GT3Fq0Mvz0sh874yZQ23LVTQ7OLhtUZ/k6XUE0xx/2Y/wAbkheTmn+HMyLRNRLzPSzAfUGZaWWZZ8+Q8477UhonY7qHWjzyWhRKI8jyPaX5jk2IqY4eN3JL8ZbqnLFiyRaMVkqRLYbRoEcVKm2lJ0FEhST8sskuKzQZnme84K47MPg9kSZ8hD0CS5JkqzbeLQaNas0qS4ozIyIjzJKUl/y55mYXr77UdslyHW2kGpKCUtRJLSUZJSWZ+kzMiIvSZkQ/SXEKcU2laTcQRGpJHtIj5sy/gf8AcOLW9RxdDZ3lXWpq482ypo9fEeQprNLdg0fHOI50GtS+Y9ughGZEZmRe+KJuIoOM57lWa0znYzCZLdc64+RJTp6ClFyB3QM9JeSdMzMi5gHZB5yH2ozDj8l1tlltJqW44okpSRc5mZ7CISFBOubfg5mPtvsvWbjEhER9p81mpZEok6ebLOgtK80mnQLLR27c8uS3kNtrCN+vDdXcxqoqBpM4mklGTysku6anku6JrUSTLjDSSlHmnPPIB9FktKlqQSkmpOWkRHtLPmzBC0uJ0m1JUnMyzSeZZkeR/wCI45jhqXDxjPsUMW6WJq48RHFOSmUqcLNKcjZeSStI1bDMhc8F0J6swgzBlNSm3mn31KOSlSVK4x1TuZaSlKMv2mWZmZmZHmArAAAASvCx5rMZdSzfkLFUJXhY81mMupZvyFgKoB8t8MuKeFCNi6FDuoqaXB7k1ttUiBJW2y80ayL9tLSk1t5lmR+SnZn5Ksh3rl2ON3sN+/n/AAYCqASvLscbvYb9/P8Agw5djjd7Dfv5/wAGAqgEry7HG72G/fz/AIMOXY43ew37+f8ABgFL5x8Uf2KB/nIFUOYVEzGJY+xGpFFh85BxIXGIO6eJKSzf0TJXJMzM9uZZFlkXPnspeXY43ew37+f8GAqgEry7HG72G/fz/gw5djjd7Dfv5/wYCqASvLscbvYb9/P+DDl2ON3sN+/n/BgFb508Q9S1nz54qhC4TdtXuEnEiryFBhySqa0ktw5a5KDRx07IzUppsyPPPZonzFt25FdAAAJHhUaKTgmyiNtxnJkhpbcXlDrbaUPGk9Bebh5HonkeW39wCuActwMmDFxjNl/ZlXWRXIbTbHFS4yjbWk3DdPyFGryiUj8iJv0emAqYMGTKhQbPD0WHcMJjTZK6+DUNJbPjM80PE/paOk2otnlaPOW0gH0iGeQkbpvBM2wcdt36VyYRElZvSEEosuYjLMcuxBWIteDfDBurhSK5tL8WS0SESH0vPqTxTaDKNJUlREZkZJSR7UnnsAd4bmRnXzYbkMreSRmbaVkaiIjyPZz7D2D1cWhptTjikoQkjUpSjyIiLnMzHH+CllxvHs9b65ra3IjziYkmI8ylpKnkfyanWW1LI8tpnnty2J5hoOEuNM5RiFcaJbKuuVyVvvxkknOs5Aoklxi8mza4zQzTnnpEsyLPMB3xiSw+hS2H2nEJUaDUhZGRKI8jLZ6c/QP6l9pb7jCXW1PNpSpbZKI1JI88jMuciPI8v3GOHRqo5FPHsnYEa4iMTp8VdbKiPSGzU6tBk9otNuHpJJtRbU5ZLMtJOe3ecGFessZvqTPlP/ZtJAgvcsiyo7zqy48uM0XDSWR5HtUlZ/8AMW3MOsjxmS40Fg3pshmOyRkRuOrJCc/3mOV44VVt42mOWtfR4hzg8cwxPkElUImjyWSSUhSS0jWk8yyXz7DIiy11/GXK4L6OP9sKbQ84o/tCLKfe5Nxi+MaYbZR5chZJUltJKLMiSajyPYYdmRKYcdS2h9pTi0calJLIzNH9Ii9X5j1HKODJ6TIxh/tapLbkeqNs4spt9LjOb+ZaKn0pcdQeR5KyyL8OeZZDq4AJXhY81mMupZvyFiqErwseazGXUs35CwFUAAAAAAAAACV4NOjkzrq27xkAHBp0cmddW3eMgADg06OTOurbvGQKoSvBp0cmddW3eMgVQAAAAAAAAAAAAAAAAAAAJ2xxMjlrtbQRvte1aPRdbbc0GYyvU+7kZN+g9EiUvIyMkmW0BvZcliHGdky3mmI7STW466skpQkuczM9hEMClv6u6N1NbLQ840RKW2ZGhaUqLNKtFREeiotpKyyMtpGY10TDKpclqdiiSVpLbUS2mCSaIkdRcxoazMlKL+mvSUW3R0SPIbC8oIFzxS5SHG5bGfES46zafZM+fRWnbkezNJ5pVzKIy2ANqAlftO4w95N80qzrS5rOI0fGtl/12El/828y5zNCCLMUcCZFsIbMuBJZlRHk6bbzDhLQtPrSothl+4B7gAAAAAAAAAAAAADVXWI6Wj0SuLaDCWr8KH30pUv8kpM8zP8AIiGq1yKXso6K8s8+ZwovJW/36b5t5l+adL+ICqASuljSf+FFHStn6VG5Pdy/cXFJSf8AFRfvDVByXtvMRXlgR87TcgobRfkRMEhRl+SlK/MBrcG31RR4YlLubSDASq5ttE5L6W9L/eMjmzPb/AbLXViVso6e7tj9CmYZsNH+ZOPm2hRfmkzGs4JKCorqWZIhVkNmUdtZtnIS0njVJTOfQklL/ErJKSLaZ7CIXoCV47Gc/wDkotLStnzKkOOTXf4oTxaSP9y1BqnKmbbzEtzMI+dmM6UJov3cSSXMv3rMVQANJUYToKh/lFfUQmpR88k2iU8r97is1H/ExuwABK1vnTxD1LWfPniqErW+dPEPUtZ8+eKoAAAABr7ulrryIca2iNyWdFacl55kS0GhWRltLNKlFs9BmNgAAMatgRqyEiJBaJqOg1GlBGZ5GZmo+f8AMzGSADFsq+LZxkx5zRPMpdafJJmZeW24lxB7PUtCT/gNfbYWqLWacyXGWUs0E2p5h9xha0lnklRtqSaiLM8iPPnP1jdAAxq2BFrILUOvjtx4rRZIabLIi25n/eZmZn6TMLSBGta2TAntE9EktqadbMzIlJUWRlmW3mGSADGnwI1ghlMxonEsvIfbIzMtFaDzSez1GQyQAAAAABK8LHmsxl1LN+QsVQleFjzWYy6lm/IWAqVpStCkLSSkqLIyMsyMvUP6AAAAAAAAAlaXzj4o/sUD/OQKoStL5x8Uf2KB/nIFUAAAAAAACVrfOniHqWs+fPFUJWt86eIepaz588VQAPCXDizUJRMjMyEpPMidQSyI/XtHuADXppKpJmaayCWZGR5R0cxlkZc3qHnq7S//ANHrv/7VH/6DaAAxTroKjzOHGM/zaT/+gxrOhrLKAUOXETycnEvElpRtGS0nmSiNBkZGWXPmNmADTVGGquonLmQmXilLb4k3XpLrx6GeeiWmo8izLPYNrKYalRnY8ltLrDqDbcQosyUkyyMjL1GQ9AAYlZWxKtlxmAwlltxxTykpMzI1qPMz2/mP6zXxWbKTPbaJMuS22065mflJQajQWXNs01f3jKABr36OpkPLdfq4LrqzzUtcdClKP1mZkPKZh2ol1qq92vjpiKcJ3i2k8XksjIyWRpyMlFkWSiyPYNqADUUuHKumkPSILDnKnkkhciQ+5IdNJGZknTcUpWjmZnlnkNuAAAleFjzWYy6lm/IWKoSvCx5rMZdSzfkLAVQAAAAAAAAAJXg06OTOurbvGQAcGnRyZ11bd4yAAODTo5M66tu8ZAqhK8GnRyZ11bd4yBVAAAAAAAAAAAAAPKXJYhxnZMt5piO0k1uOurJKUJLnMzPYRAPUay8vIFK20c11XHPmaWI7SDcefUXOSEJzNX5+gi2nkW0aj7XtcQ+RhprkdefPazWVeWX/AEGTyNX5LVkjmMicLYNnR4eg07jshpLkiwfIifnyVcZIeIuYlL9CSPPJCcklmeREA1nIbrEXlXDjtNVq/wDT4zpcpdL1PPJM9D+q0eez+UMjMhRV0GLWwmodfHajRWi0W2mkElKS/IiGQAAAAACcn4aNuY9Y4dlnVWLqtN4ko040pXrea2Zn/wA6TSvYWajLYdGACcgYlNuYzXYiiHVWLqtBk1L040pXqZd2Zn/yKJK9h5JMtp0Y8J8OLYQ3ok+MzKiPJ0HGX2yWhafUpJ7DL94nPsy4w95VC6qzrS56yW6fGtl/0H1H/wDBzMuYiWgiyAUzr7TJtk86hs3FaCCUoi0lZGeRes8iPZ+Q9B8lTbDhMvuFiHf2tbJRAqnzQiBAQT7lehaTRxnJ1ZLWrIzPjDTkrLNPkkRF9FFguPLIlXdtd25ntNMiWbLZ/kbTJNoMvyUkwGyucUUVK6TVrbwYr6vwsLeTxq/ySj8Sj/cQ12t7svZR4dvLAj5nXY5Qmi/MzfNCjL80pV/cNzTUVTSNG3TVkKAhX4ijMJb0v35EWY2ICV0caT/xOUdK2foQlye5l/WPikpP+Ci/fzhqamXtvL28tM+dCpXJm/3aDBNkZfkrS/iKoAGqpcO0tHpfY9VBhKV+JTDCUKV+alEWZn+ZjagAAAAAleDTo5M66tu8ZAqhK8GnRyZ11bd4yBVAAAAAAAA0t3hPDl9KRKvKCospKEE2l2ZCbeWlBGZkkjUkzyzMzy/Mxr/u4wPubhv3Wx+kVQAJX7uMD7m4b91sfpD7uMD7m4b91sfpFUACV+7jA+5uG/dbH6Q+7jA+5uG/dbH6RVAAlfu4wPubhv3Wx+kPu4wPubhv3Wx+kVQAJX7uMD7m4b91sfpD7uMD7m4b91sfpFUACV+7jA+5uG/dbH6Q+7jA+5uG/dbH6RVAAlfu4wPubhv3Wx+kPu4wPubhv3Wx+kVQAJX7uMD7m4b91sfpD7uMD7m4b91sfpFUACV+7jA+5uG/dbH6Q+7jA+5uG/dbH6RVAAAAAAAAAAAAlaXzj4o/sUD/ADkCqErTecjFH9igf5yBVAAAAAAAA0t3hPDl9KRKvKCospKEE2l2ZCbeWlBGZkkjUkzyzMzy/Mxr/u4wPubhv3Wx+kVQAJX7uMD7m4b91sfpD7uMD7m4b91sfpFUACV+7jA+5uG/dbH6Q+7jA+5uG/dbH6RVAAlfu4wPubhv3Wx+kPu4wPubhv3Wx+kVQAJX7uMD7m4b91sfpD7uMD7m4b91sfpFUACV+7jA+5uG/dbH6Q+7jA+5uG/dbH6RVAAlfu4wPubhv3Wx+kPu4wPubhv3Wx+kVQAJX7uMD7m4b91sfpD7uMD7m4b91sfpFUACV+7jA+5uG/dbH6Q+7jA+5uG/dbH6RVAAAAAAAAAAAAleDTo5M66tu8ZABwadHJnXVt3jIAA4NOjkzrq27xkCqErwadHJnXVt3jIFUAAAAAAAAA1l5eQKVto5rquOfM0sR2kG48+ouckITmavz9BFtPIto1HIbrEXlXDjtNVq/wDT4zpcpdL1PPJM9D+q0eez+UMjMgGRY4mRy12toI32vatHouttuaDMZXqfdyMm/QeiRKXkZGSTLaPxEwyqXJanYoklaS21EtpgkmiJHUXMaGszJSi/pr0lFt0dEjyG9roMWthNQ6+O1GitFottNIJKUl+REMgAADPIsz5ho5WLaCNXFPXbw1wjNxJPMuE6kzbQpayzTntJKVGZfkA3gDWuX1Q1cIqXbSCi0WWaYapCCeVsz2Izz5sz5uYjHtBtIU6vOdFktriFpZu56JFomZKzz5sjIwGYA0+s9GbCnmraC82lxplRsPJd0VuuJbbIyTnlpLUkv4jYNTI7s1+I28lUlhKFutlzoJeeiZ/v0Vf3AMgAGnTiejcq59ixbQZEKASjlOx3kvEzolmolaGeRkXo5wG4AeDUuO9KkRmnkKkRySbrZHtRpFmnP9+RhCmR5zHHw3kPM6a29NB5lpIUaVF+8lJMv3kAwbyggXPFLlIcblsZ8RLjrNp9kz59FaduR7M0nmlXMojLYNV9p3GHvJvmlWdaXNZxGj41sv8ArsJL/wCbeZc5mhBFmKoAHhAmRbCGzLgSWZUR5Om28w4S0LT60qLYZfuHuJyfho25j1jh2WdVYuq03iSjTjSlet5rZmf/ADpNK9hZqMthoGJTbmM12Ioh1Vi6rQZNS9ONKV6mXdmZ/wDIokr2Hkky2mFGAAAAAAAAACV4NOjkzrq27xkCqGlwhVP01S/FlLaW45YTpZG2ZmWg9KdeQW0i2klwiP8APPn5xugAAAAAAMyIjMzyIgEraX15rVKpqGorZfJYUeY69Nslxv5ZbyEpSlLDmeXEGZmZl+Itgcuxxu9hv38/4MeNFKjzeEq9kw32pEdykrFIdaWS0KLj5+0jLYYsAEry7HG72G/fz/gw5djjd7Dfv5/wYqgASvLscbvYb9/P+DDl2ON3sN+/n/BiqABK8uxxu9hv38/4MOXY43ew37+f8GKoAEry7HG72G/fz/gw5djjd7Dfv5/wYqgASvLscbvYb9/P+DDl2ON3sN+/n/BiqABK8uxxu9hv38/4MOXY43ew37+f8GKoAEry7HG72G/fz/gw5djjd7Dfv5/wYqgASvLscbvYb9/P+DGvxDiPGNDQWdvMw3h9caviuy3UtXrxrUhtBqMkkcQizyI8szIXQleFjzWYy6lm/IWAqgAAAAAAAAAStN5yMT/2KB/nIFUJWm85GJ/7DA/zkCqAAAAAAABK2l9ea1SqahqK2XyWFHmOvTbJcb+WW8hKUpSw5nlxBmZmZfiLYHLscbvYb9/P+DCt86eIepaz588VQCV5djjd7Dfv5/wYcuxxu9hv38/4MVQAJXl2ON3sN+/n/Bhy7HG72G/fz/gxVAAleXY43ew37+f8GHLscbvYb9/P+DFUACV5djjd7Dfv5/wYcuxxu9hv38/4MVQAJXl2ON3sN+/n/Bhy7HG72G/fz/gxVAAleXY43ew37+f8GHLscbvYb9/P+DFUACV5djjd7Dfv5/wYcuxxu9hv38/4MVQAJXl2ON3sN+/n/BjX4hxHjGhoLO3mYbw+uNXxXZbqWr141qQ2g1GSSOIRZ5EeWZkLoSvCx5rMZdSzfkLAVQAAAAAAAAAJXg06OTOurbvGQAcGnRyZ11bd4yAAODTo5M66tu8ZAqhK8GnRyZ11bd4yBVAAAAAMK7bsHqmU3TSGY1gpBky68jTQlX5l/wD725c+SssjzQARGD3aytsVRbOK/BxPJLRcfsF8a5Ny2/spGRJcSW0ybTo6JHnxaMxbjFtK6HawnIllGalRl5aTbqSUWZbSP8jI9pHzkYn+S3mHNtcp29qU88WQ9nMZL/puq/lv6rhkrnPjD2JAVQDW0d3X3bLi66QS1sq0H2VpNDrC8s9FxtWSkKy25KItmR8xjZANPjOvlW2D72ur3OLmy4D8dheeWi4ttSUnn6NpkOA8IlXNQ7Lt3KRVRAkxHo7TLz+ThLbrHyUfFJzRo8ydPSz/AGZbMjIx9LDylRY8xlTMthp9lRGlSHUEpJkZZGRkfrIzIBzi+w9YsYgfKJBsp1PIsWLh1EZEVK+UNmgySTrjyFEnNpBmWgZ5GZErLYM7goiM1mAXJiG5DpSXZEtxjk7ROErTURoybLyz8nLM1KM/XlkRXw847DMZlLUZptlpOZkhtJJSWZ5nsL8zMBybFFPOVh+wvJkdFXYWVnTR48YkpWcRhuwaNvTyPRUs1OLWrI8tpJzPRzPCxfHt1Y2nNV03jrFERhUlUcnYv7Py+L0v94NEs/xnmlGRZ5GZDs0iOzJbJuQ0262SkrJLiSUWklRKSeR+kjIjI/QZEYxLOmq7U2ztK2FNNv8AAchhLmj+7SI8gEphIpt7wXyG2rHj3pjEhmO+bbiFtn5SMlGt541GlZK8olmRlllsIjPnWMaOxkYUubA8Noro0LDrUFxuXI4pRONJdM1Nk3pkskErJOkaSPSPbsHfWm0NNpbaQlDaCJKUpLIiIvQRD8yWGZUdxiS028w4k0LbcSSkqI+cjI9hkA49wiYffPFD1u9SRJKZz0eC2p9uM/tz0EGXGIM0kZq2lmL7g4qH6DCrNZIilG4h100pJaFEZLWbmZEgiJJZrMiSRbCIhRvsMyCQT7TbpIWTiSWklaKiPMlFnzGR8xj0AAAflxxDTa3HVpQ2gjUpSjyIiLnMzAfoajFMymi1TjeISYdhyf2PJnWePOSZ/wDlpaIjNwz/AKJEZn6hrNYJt9+zwgy05EPnuJJHybL1spLI3/3kaUeklmZaJ7Clw5ErZKprzj0+2WnRcny1abpl6Up5kto/5EElPpMjPMwE1R0+Jlk8cCyk0dOeRxYk5KZshBbc81GfkJ5skGpZl60/hG1+xsUlzYsa/jVo/UKoAEr9kYsLmxXF/jUp+oH2Ti4ubFNf/Go//eFUACV+y8YlzYnqv40yvrjBvKfGj9NObaxLXm9xK1M8nrVx1m6RGbfl8erJOmSdIsjzTmXpzFwPCfDj2EN6JNZQ/GeToONrLNKi9RkA4fNtMS3lHWYhJy5jU9w5JmcTF5Sp2OgktoipIo5GskqSlxw/5pqWWkM+sexenFNY3JkXDs51iO26b8V5thgzilpuKSgzjuI43M1J0m3CVmSVaOjn0XAEt6Zh903zR+wsbCI0lCEoShpmY802giSRFklCEp/ht2ijASxV2Msj0sR0meWzRpHCy/8A8kfz7MxifPiapL91KrxAqgASv2Vi4+fFNeX7qf8A/eD7IxX6cVxv/tqU/UFUAD5R4HcC43Z4U7yZW2LmFq01NzHYz0ctKVHcdeJv/Z89FGfFOlkoyUjS8kjzH1cJWt86eIepaz588VQAAAAwryzj0tLYWk01FFgx3JLuiWZ6CEmpWX55EY5piPhTn1LT8Z6jKLbMNOvuNuLU6ySCiuPtnxhEnyjNs0mn0aKssyyMdNuK+Pb1M2tnINcSYwuO8kjy0kLSaVF/cZjleNOC+dKguyoM6Ta3DjL7Lrkl4miWg4brLSSbTk3npLIzUZZ+UrblsAU8vHTzF2+wmuYVWx7RmoddOXlJ453i9FSWdDI0Ebic81keiSlZZFtzcC4pexTh6XMajxymx33o/FFIToKWhRknM0mtSM9mekWkXPo5ZZ+1xhFmxvkXDNhJgTktk0TkaNFUsi/ruMrX/DSy2cwYPpHY2CWai8aS4tSXmpCTJH7RKlq59AiTmaTLPLLnARqeFSauBdPLqYSFQHzipOLIfmEtwlJIlmRMIJLJ5rInDURGpBl6Dyrn8ZR4uI7OpkQLFZw0MrJ2JDekkvjCM8j0EGScsvSe0QM7B+JZb3FOQlcqQ6cZl5s4aK9uDxxKJkkkgnyTxaU5pLbpF+LIUeL8G2t1bqmQ018ZZvNKU8mXJaW802f4FkgyLaWZZ/mAq8H3pYkoW7NMdcZLjz7RNrz0iJt5beZkZEZGehnkZZlnl6BON44sVUqcQqpI5YaXorS8U/OVxZqJJLNni9EufPR4w1ejLPYN/hmtl1GH1Qkx4EdxtTimG2HHFt5qM1ZqUryszWpRnz84hiwBclaN2HJsL8pRZHYaRMLLPMj8nLRyzzPPTy0sy5wG3xHj16lxzDpna57krzK3jXk2alpQRmpaT40skkWR5GnSPRXkR5bKDA98eJaRyx0WyRy6ZHbNsjIlNtSHGkK27czSgjP8zEdi3C1o/duPsQXnIMptl9/7KKJxypiDPy1qlJPyEloaGiZZeVmR5is4PKyfUYXaj26W0z1yJMl7QVpZqdfW5moy2aZ6eatEiTpGeiRFkQCkAAABK8LHmsxl1LN+QsVQleFjzWYy6lm/IWAqgEr93GB9zcN+62P0h93GB9zcN+62P0gKoBK/dxgfc3Dfutj9Ifdxgfc3Dfutj9ICqASv3cYH3Nw37rY/SH3cYH3Nw37rY/SAU3nIxP8A2GB/nIFUOYVOAcHLx/iKOvCeH1R2ocJTbR1rJpQajf0jItHIjPRTn68i9Qpfu4wPubhv3Wx+kBVAJX7uMD7m4b91sfpD7uMD7m4b91sfpAVQica8JdFgnENdWYm5TBj2DRrj2Bt6Uc1krJTajIzURlmg89HLJW0yGZ93GB9zcN+62P0iIxrwCYaxTiGukcng1FNDaPSh1UFuO5IcNWZmt1JfhIiSRFo57VZGWYCvw9Ni2PCPeS6+SxKiu0lYpt5hwloWXHz9pKLYZCyHP8DYdqcLY7vKvD8FqDAapq00tN5nmZvz8zMzzNR/mZmY6AAAAAMK8s49LS2FpNNRRYMdyS7olmeghJqVl+eRGOaYj4U59S0/Geoyi2zDTr7jbi1Oskgorj7Z8YRJ8ozbNJp9GirLMsjHTbivj29TNrZyDXEmMLjvJI8tJC0mlRf3GY5XjTgvnSoLsqDOk2tw4y+y65JeJoloOG6y0km05N56SyM1GWflK25bAFPLx08xdvsJrmFVse0ZqHXTl5SeOd4vRUlnQyNBG4nPNZHokpWWRbc3AuKXsU4elzGo8cpsd96PxRSE6CloUZJzNJrUjPZnpFpFz6OWWftcYRZsb5FwzYSYE5LZNE5GjRVLIv67jK1/w0stnMGD6R2NglmovGkuLUl5qQkyR+0SpaufQIk5mkyzyy5wEanhUmrgXTy6mEhUB84qTiyH5hLcJSSJZkTCCSyeayJw1ERqQZeg8q5/GUeLiOzqZECxWcNDKydiQ3pJL4wjPI9BBknLL0ntEDOwfiWW9xTkJXKkOnGZebOGivbg8cSiZJJIJ8k8WlOaS26RfiyFHi/BtrdW6pkNNfGWbzSlPJlyWlvNNn+BZIMi2lmWf5gKjCl6rEWHCtGIpsLW7IaQy6o0nm26tstLNOac9DMyyzLPLbkIWXwpTmKzE77lVBS5TKcj/wCyyX5hKfSglFpElhOi1npJNalJIlIUXoFzhqnVAw8urlxojDJm4km4jrik6KzM1GaleVpGpSzM8/TziLVhqauil1MvCrCs2pVezLhPsMKRDW6o20JLLZkjQ5yPaRntMzzDcN44UeIrGFIVQQ4UKaURa5drxb6vIQrSS0beX8/Ii0tuQ3OBr53EVCmdIirju8a40ZGg0pVorNJKTmZ5lkXP68xGY8w9fTsXOS6yBIOHydokPRZbrajczXp6SUzGC2FoZHomZ7cz2ELTAdfIq8JV0KaUgpDKVEvlBka89NR5mZLWXp/pGfrPPMBvwAAASvCx5rMZdSzfkLFUJXhY81mMupZvyFgKoAAAAAAAAAErwadHJnXVt3jIAODTo5M66tu8ZAAHBp0cmddW3eMgVQleDTo5M66tu8ZAqgAAAAAAAAAAGnvMPQ7Z5uVpvQ7NlOizPiKJD7ZZ55ZmRkpOe3QWSkmfORjW/bljQeRiplLsIua3iIPikl/128zU1/WLSRsMzNGwhVAA/DDrb7LbzDiHGnEktC0KI0qSZZkZGXORj9iYfwy5WvOS8JSGqx1ajW7CWg1Q31GeZmbZGXFrPb5aMtp5qJfMPerxK07NbrbiM5U268yRHfPNt/LnNl3LRc9eRZLItqkpzIBQAAAAAAAAAAANfdXMCljJfspBNJWrQbQlKluOq9CG0JI1LV/ypIz/ACGl4q9xHtkKdoKlX/ktqLlr5f8AMsjMmSP1J0l7S8pBkZAM23xIzEmqra6O7aXBERnDjGX7Ij5lOrM9FtPp2npGWeilR7BiN4bkWziJGL5Dc3IyUitZLKG0ZcxmRlm8ov6S/JzIjShBjeVFXBp4SYlXFaixyM1aDactJR7TUo+dSjPaajzMz2mZjMAAAAAAAAAAAAAAErwadHJnXVt3jIFUJXg06OTOurbvGQKoAAAAAAAErW+dPEPUtZ8+eKoSFlBxHDxpOt6ODUTo0yvixFJmWDkVba2XJCjMiSw4SiMny9JfhMevLscbvYb9/P8AgwFUAleXY43ew37+f8GHLscbvYb9/P8AgwFUAleXY43ew37+f8GHLscbvYb9/P8AgwFUAleXY43ew37+f8GHLscbvYb9/P8AgwFUAleXY43ew37+f8GHLscbvYb9/P8AgwFUAleXY43ew37+f8GHLscbvYb9/P8AgwFUAleXY43ew37+f8GHLscbvYb9/P8AgwFUAleXY43ew37+f8GHLscbvYb9/P8AgwFUJXhY81mMupZvyFhy7HG72G/fz/gxqsWRscYgwrc032JhuP8AaMJ6Hx322+vi+MQaNLR5IWeWeeWZZ+sBfgAAAAAAAAAlabzkYn/sMD/VJFUJWm85GJ/7DA/1SRVAAAAAAAAla3zp4h6lrPnzxVCQsoOI4eNJ1vRwaidGmV8WIpMywcirbWy5IUZkSWHCURk+XpL8Jj15djjd7Dfv5/wYCqASvLscbvYb9/P+DDl2ON3sN+/n/BgKoBK8uxxu9hv38/4MOXY43ew37+f8GAqgEry7HG72G/fz/gw5djjd7Dfv5/wYCqAQ1ziPFtPD5RNocOESlE222i8kLcdWfMhCSh5qUeR7C9RnzEYyo1ljp6M045hjDzC1oJSmnL901NmZfhPRiGWZc2wzL1GYCvASvLscbvYb9/P+DDl2ON3sN+/n/BgKoBK8uxxu9hv38/4MOXY43ew37+f8GAqgEry7HG72G/fz/gw5djjd7Dfv5/wYCqErwseazGXUs35Cw5djjd7Dfv5/wY1WLI2OMQYVuab7Ew3H+0YT0Pjvtt9fF8Yg0aWjyQs8s88syz9YC/AAAAAAAAABK8GnRyZ11bd4yADg06OTOurbvGQABwadHJnXVt3jIFUJXg06OTOurbvGQKoAAAAAAAAAAAAAABi2ldDtYTkSyjNSoy8tJt1JKLMtpH+Rke0j5yMZQAJXkt5hzbXKdvalPPFkPZzGS/6bqv5b+q4ZK5z4w9iRuKO7r7tlxddIJa2VaD7K0mh1heWei42rJSFZbclEWzI+Yxshp7zD0O2eblab0OzZTosz4iiQ+2WeeWZkZKTnt0FkpJnzkYDcAJX7csaDyMVMpdhFzW8RB8Ukv+u3mamv6xaSNhmZo2EMmwxVEbfTDp213NktCXEx4akmlCFFmlbjhnotoMtpGZ5qL8JKPYA37jiGm1uOrShtBGpSlHkREXOZmJfWCbffs8IMtORD57iSR8my9bKSyN/95GlHpJZmWif6bw3ItnESMXyG5uRkpFayWUNoy5jMjLN5Rf0l+TmRGlCDFQA0tLhyJWyVTXnHp9stOi5Plq03TL0pTzJbR/yIJKfSZGeZjdAAAAAAAAAAAAAAAAAAAJXg06OTOurbvGQKoSvBp0cmddW3eMgVQAAAAAAAAAAAAAAAAAAAAAAAAAAAAAAAAAAAAAAAAAAAAAAAJWm85GJ/7DX/AOqSKoStN5ycT/2Gv/1SRVAAAAAAAAAAAAAAAAAADUXl2ivdahxGFzrZ9JmxDbVkZlzGtauZtsvSo/3JJSjJJ4tldSJU52qw4TT09syTJlOEamIWZZ5LyMtNzIyMmyMjyMjUaSNJnn0dNHqGneLW7IlvqJcmXIMlPSFf0lmREX7kpIkpLYkiLYAxaajUzM+1Ld5M25Uk0E7kZNx0HztspP8ACnYWZ/iVkWkeRJJO8AAAAAAAAAAAAAAAAAAAAAAAAABK8GnRyZ11bd4yADg06OTOurbvGQABwadHJnXVt3jIFUJXg06OTOurbvGQKoAAAAAAAAAAAAAAAAAAAAAExIwFhZ59x9NJEjvuKNS3IhHHWpR85mbZpPP8xTgAldSIbX/A22Ionq0bd90i/cTqll/gGrl4x/wmM7RRehMyLFdSX/4tIV/eYqgASvJMasfgt8PzE+hLta6wr+KkvKL/AOIcvxmx/LUFLKSX86NarSo//tWwRf8AyFUACV1ntWf+NwbeJL0rjuxXk/3E8Sv/AIhr1WN7JsK+hn6Tep5RpL960tmn/EVQAJhrhAwi44TasR1TLp8zciSllZ//AGrMj/wG+hWEOejTgy48lHPpMuJWX+Bj3dabebNDqErQfOlRZkf8BoJuCMKzl6czDdM85zktcJs1F+ZKyzIBQgJXUGhR/wAIixg+rkVnJjkX8EOEX+Ak7Ktvo13PlwpWIHChXNXGhtKfdUy5FUmOiQpSeZwslOGpZ56JpM9h6WYdWAciwI5ieTKYbjSrViwOtUq3cu4kh2M3P4xrJLCVKQRp0SfLJpWiRcWe302eljiP/wCThufl/wBV+Hn/APF3L/EBVAJX7cxMx/xWEFPevkFk05/dxvFBripr/j8NYkiev/YikZdgpz/AA4NOjkzrq27xkCqHMOD3HOHodDKRPnLgqO2s3P8AbIzsciJU99RZmtJER5GWZHtI8yPIyMhaV+LcOWRkVdiColGfoYmNrP8AwMBuwAjIyIyMjI9pGQAAAGZZ5Z7fUAgJeHKPEHCnd/b1NW2fEUtdxXLYqHuL0n52lo6RHlnkWeXPkQ2v3cYH3Nw37rY/SFb508Q9S1nz54qgEr93GB9zcN+62P0h93GB9zcN+62P0iqABK/dxgfc3Dfutj9Ifdxgfc3Dfutj9Iqh4S5kaG3xkyQzHbyM9J1ZILIiMz2n6iIz/cQCc+7jA+5uG/dbH6Q+7jA+5uG/dbH6RVZlpZZlnz5DzjvtSGidjuodaPPJaFEojyPI9pfmAmfu4wPubhv3Wx+kPu4wPubhv3Wx+kUvKWOTpf45viFZGlzSLRPPmyPm25kPUBK/dxgfc3Dfutj9Ifdxgfc3Dfutj9Ipo77UhonY7qHWjzyWhRKI8jyPaX5g++1HaNyQ6hpsjIjUtRJLMzyIsz9ZmRfxATP3cYH3Nw37rY/SH3cYH3Nw37rY/SKh1xDLS3HVpQ2gjUpajyJJFzmZ+gh+WH2nyUbDrbhIUaFGhRHkoucjy9JeoBM/dxgfc3Dfutj9Ifdxgfc3Dfutj9IqgASv3cYH3Nw37rY/SJrhNwDg6HwbYslQ8J4fYksVMtxp1qtZSttaWVmSkmScyMjIjIyHTxK8LHmsxl1LN+QsBVAAAAAAAAAAlabzk4n/ALDX/wCqSKoStN5ycT/2Gv8A9UkVQAAAAAAAAAAAADHsZ0athOy576GIzRaS3FnkRf8A/c9mXpMBkCWVPl4oUbVG+qLSZ5O2aPxyC/oxvy9b3NlsQRmemj+cilYs8u5juRKA/wAFc6WTksvXIL+ag/8A2fSX8pzm2VSlJJSSUkRJIsiIvQAx62BFrILUOAwhiM0RklCfzPMzP1mZmZmZ7TMzM9pjJAAAAAAAAAAAAAAAAAAAAAAAAAAAAASvBp0cmddW3eMgA4NOjkzrq27xkAAcGnRyZ11bd4yBVCV4NOjkzrq27xkCqAAAAAAAAAAAAAAAAAAAAAAAAAAAAAAAAAAAAAAAAAAAAAAABK8GnRyZ11bd4yBu7Cmq7IjKxrYUsj5+PYS5/mQ0nBp0cmddW3eMgVQCVPg9wkRmcehgw1HtzhI5Mf8Ae3ohqRDa/wCBtsRRPVo277pF+4nVLL/AVQAJXVy8Y/4TGdqovQmZFiupL/8AFpCv7zHFOGqt4R3sdYcLCTjs+9hsuL5dArlRG22lqLJt51bim1kZtmeieiXrI89n0qADnHBwvELmMLc8YswGrn7FreNKEs1Nn+3n5HtLYfrIsyz5j9BdHErW+dPEPUtZ8+eKoAAAAafGiLBzB16ilNRWqoD5RDQeRk9xatDL89LIfO+MmUNty1U0Ozi4bVGf5Ol1BNMcf9mP8bkheTmn+HMyLRNRLzPSzH1ANfd0tdeRDjW0RuSzorTkvPMiWg0KyMtpZpUotnoMwHMsRUxw8buSX4y3VOWLFki0YrJUiWw2jQI4qVNtKToKJCkn5ZZJcVmgzPM9/wAEsWTFwGt+K6zKclPSJEdDnHNEnNaskL0zUadpbdFKSL+jnmZ3wxq2BGrISIkFomo6DUaUEZnkZmaj5/zMwHybWS47L1bVImRVxGHIqWFfaSVcYsnU6KDJLBq50ozPLmV+RjvFjVxL3HEDkNYlqRXyUS7SxJtSS00I8hhtZkWmZmaDMy2ElOR7VEQ3kPAmH4TTLUSNKZZZIktttz5BIQRcxEnTyIi9QpwELwcMT5XB4uOp5qMp05TcV5nM1NkbjhEo8/5xHt2CEhYUnuYXdl1MOHBZWwxDcTVrW+qbIRMa0pS0rbT5SeLc2qJRnpKzPIiz7ZWwI1ZDREgtE1HQajSgjM8szNR8/wCZmNMjBWH23DW3XkgzWbmSHnElpGekZ5ErLaZmYDn2J7FdbhPhRrLJu4ekPsyVMSFVzxtOI+zmkmvjUo4pJGpK8yzIs89gseCwpBUtmU1TSpP2rL4w2kmlBnxp8xGZnl/EVk2KxOhSIkxlD8WQ2pp1pZZpWhRZKSZekjIzIedfAi16HkQ2iaS66t9ZEZnmtR5qPb6zAZQAAAJXhY81mMupZvyFiqErwseazGXUs35CwG6pLVi3irdZQ6y80s2ZEZ4iJ2O6REZtrIjMs8jIyMjNKkqSpJqSpKj2A0t3VPrlItaZbTNw0gmzJwzJqW0RmfEvZEZ5Zmo0rIjU2pRmRKSpaF5VJasW8VbrKHWXmlmzIjPEROx3SIjNtZEZlnkZGRkZpUlSVJNSVJUYbAAAAAAAStN5ycT/ANgr/wDVJFUJWm85OJ/7BX/6pIqgAAAAAAAAAaS6vDjSk1tWymdcuIJaY+nopZQZmROPKyPQRmR5bDNWRkkjyPIMq7uYtOw2qQTrsh5XFx4rCdN6QvLPRQn/ABMzySks1KNKSMy11dTSZs1q0xIaHJTR6UWE2rSYh/8AMXNpu5bOMMthZkkk5qNWVSUhQX3J06Qc+4eTouy1I0SJOefFtozPi2yPmTmZnlmo1KzUe4AAAAAAAAAAAAAAAAAAAAAAAAAAAAAAAAAAErwadHJnXVt3jIAODTo5M66tu8ZAAHBp0cmddW3eMgVQleDTo5M66tu8ZAqgAAAAAAAAAAAAAAAAAAAAAAAAAAAAAAAAAAAAAAAAAAAAAAASvBp0cmddW3eMgVQleDTo5M66tu8ZAqgAAAAAAAStb508Q9S1nz54qhpbvCeHL6UiVeUFRZSUIJtLsyE28tKCMzJJGpJnlmZnl+ZjX/dxgfc3Dfutj9ICqASv3cYH3Nw37rY/SH3cYH3Nw37rY/SAqgEr93GB9zcN+62P0h93GB9zcN+62P0gKoBK/dxgfc3Dfutj9Ifdxgfc3Dfutj9ICqASv3cYH3Nw37rY/SH3cYH3Nw37rY/SAqgEr93GB9zcN+62P0h93GB9zcN+62P0gKoBK/dxgfc3Dfutj9Ifdxgfc3Dfutj9ICqASv3cYH3Nw37rY/SH3cYH3Nw37rY/SAqhK8LHmsxl1LN+QsPu4wPubhv3Wx+kPu4wPubhv3Wx+kBVDS3dU+uUi1pltM3DSCbMnDMmpbRGZ8S9kRnlmajSsiNTalGZEpKloXugAa+ktWLeKt1lDrLzSzZkRniInY7pERm2siMyzyMjIyM0qSpKkmpKkqPYDS3dU+uUi1pltM3DSCbMnDMmpbRGZ8S9kRnlmajSsiNTalGZEpKloXlUlqxbxVusodZeaWbMiM8RE7HdIiM21kRmWeRkZGRmlSVJUk1JUlRhsAAAErT+cnE/9gr/APVJFUJWn85OJ/7BX/6pIqgAAAAAfl1xDLS3XlpbbQk1KWo8iSRc5mfoIS/Hy8W+TDXIgYePnlIUbb84v+kZeU20f/ubFK50ZForUHvOtpdpMercNmglNKNuXZLLSajGXOhBczjvoy/CnnUeZEhW0pamLTxVMxEqNTizdeecVpOPuGREa1qPapWREX5EREWRERFkwYkaBDZiQWGo8VlJIbaaSSUISXMREWwiHsAAAAAAAAAAAAAAAAAAAAAAAAAAAAAAAAAAAAACV4NOjkzrq27xkAHBp0cmddW3eMgADg06OTOurbvGQKoSvBp0cmddW3eMgVQAAAAAAAAAAAAAAAAAAAAAAAAAAAAAAAAAAAAAAAAAAAAAAAJXg06OTOurbvGQKoSvBp0cmddW3eMgVQAAAAAAAAAAAAAAAAAAAAAAAAAAAAAAAAAAAAAAAAANLd1T65SLWmW0zcNIJsycMyaltEZnxL2RGeWZqNKyI1NqUZkSkqWhe6ABr6S1Yt4q3WUOsvNLNmRGeIidjukRGbayIzLPIyMjIzSpKkqSakqSo9gNLd1T65SLWmW0zcNIJsycMyaltEZnxL2RGeWZqNKyI1NqUZkSkqWheVSWrFvFW6yh1l5pZsyIzxETsd0iIzbWRGZZ5GRkZGaVJUlSTUlSVGGlp/OTif8AsFf/AKpIqhK0/nJxP/YK/wD1SRVAAw7azh1EFcuxfJlhJknPI1GpRnklKUlmalGZkRJIjMzMiIjMxj3t0zVJZaJtyVPk5lGhs5G48ZZZmWewklmWajyIsyzPaRHi1NK+qci2v3WpNokj4ltrPiIZGWRpaI9pqyPI3DIlK25ElJ6BBitVsvEbqJWIWlR61KiWxUmZHpGW0lyDLMlGXobI9FPOemrRNFQAAAAAAAAAAAAAAAAAAAAAAAAAAAAAAAAAAAAAAAAAAJXg06OTOurbvGQAcGnRyZ11bd4yAAODTo5M66tu8ZAqhK8GnRyZ11bd4yBVAAAAAAAAAAAAAAAAAAAAAAAAAAAAAAAAAAAAAAAAAAAAAAAAleDTo5M66tu8ZAqhK8GnRyZ11bd4yBVAAAAAAAAAAAAAAAAAAAAAAAAAAAAAAAAAAAAAAAAAAAAANLd1T65SLWmW0zcNIJsycMyaltEZnxL2RGeWZqNKyI1NqUZkSkqWhe6ABDYNtGbXH2KHmm3WHW4UBp+M+kkux3CVJzQsiMyz2kZGRmlRGSkmpKkqPeW928U1VVRMol22RG4azyZhpPmW8ZbebmbLylf8qc1p57IOxxDwmYhfwXYEwuPBisvS+MMmnsjkkbKSNCkqPS5niSrilIUWS83G1dDwaqt+yDaqo7sU2XFIlR5B5yGn9hrJ4zNRqWeZK0zUrTJRLJSkqJRh7UVIzVqekOOLl2cnLlM14i4x3LPJJZbEoLM9FBbCzM+c1Ge2AAAAAAAAAAAAAAAAAAAAAAAAAAAAAAAAAAAAAAAAAAAAABK8GnRyZ11bd4yADg06OTOurbvGQABwadHJnXVt3jIFUJXg06OTOurbvGQKoAAAAAAAAAAAAAAAAAAAAAAAAAAAAAAAAAAAAAAAAAAAAAAAErwadHJnXVt3jIFUJXg06OTOurbvGQKoAAAAAAAAAAAAAAAAAAAAAAAAAAAAAAAAAAAAAAAAAABg3NrFp4ZSJq1ESlE222hJqceWfMhCS2qUeR7C9RnzEYDJmSo8KI9KmPtR4zKDcdedWSEISRZmpSj2ERF6TE1oTMW7XifgYdPmaMjbkTi/5+Y2mv8Al2LV6dFOaV+0Oql28tmxxK2hCWlk5Eq0qJbbBkeaVumWxx0th7PJQf4dIy4w6QBI0DLcfhDxEyw2hplutrkIQhJJSlJKkkRERcxEQ2l3VPrlItaZbTNw0gmzJwzJqW0RmfEvZEZ5Zmo0rIjU2pRmRKSpaF6+n85WJur6/wD1SRVANfSWrFvFW6yh1l5pZsyIzxETsd0iIzbWRGZZ5GRkZGaVJUlSTUlSVHsBpbuqfXKRa0y2mbhpBNmThmTUtojM+JeyIzyzNRpWRGptSjMiUlS0LyqS1Yt4q3WUOsvNLNmRGeIidjukRGbayIzLPIyMjIzSpKkqSakqSow2AAAAAAAAAAAAAAAAAAAAAAAAAAAAAAAAAAAAAAAAAAACV4NOjkzrq27xkAHBp0cmddW3eMgADg06OTOurbvGQKoSvBp0cmddW3eMgVQAAAAAAAAhcPYjxjfUFZbw8N4fRGsIrUtpLt68S0ocQSiJRFEMs8jLPIzF0JXgn81mDepYXyEAHLscbvYb9/P+DDl2ON3sN+/n/BiqABK8uxxu9hv38/4MOXY43ew37+f8GKoAEry7HG72G/fz/gw5djjd7Dfv5/wYqgASvLscbvYb9/P+DDl2ON3sN+/n/BiqABK8uxxu9hv38/4MOXY43ew37+f8GKoAEry7HG72G/fz/gw5djjd7Dfv5/wYqgASvLscbvYb9/P+DDl2ON3sN+/n/BiqABK8uxxu9hv38/4MOXY43ew37+f8GKoAErV315rVFpr6orYnKoUiY09Cslyf5FbKFJUlTDeWfHkZGRn+E9gqhK2XnTw91LZ/PgCqAAAAAAABK8GnRyZ11bd4yBVCV4NOjkzrq27xkCqAAAAAAABK2l9ea1SqahqK2XyWFHmOvTbJcb+WW8hKUpSw5nlxBmZmZfiLYHLscbvYb9/P+DCt86eIepaz588VQCV5djjd7Dfv5/wYcuxxu9hv38/4MVQAJXl2ON3sN+/n/Bhy7HG72G/fz/gxVAAleXY43ew37+f8GHLscbvYb9/P+DFUACV5djjd7Dfv5/wYcuxxu9hv38/4MVQAJXl2ON3sN+/n/Bhy7HG72G/fz/gxVAAleXY43ew37+f8GHLscbvYb9/P+DFUACV5djjd7Dfv5/wYcuxxu9hv38/4MVQAJXl2ON3sN+/n/BjX4hxHjGhoLO3mYbw+uNXxXZbqWr141qQ2g1GSSOIRZ5EeWZkLoSvCx5rMZdSzfkLAVQAJ6yupEqc7VYcJp6c2ejJlOJNTELMs8lZGWm5kZGTZGR5GRqNJGkzDJvLtNe61DiMLnWz6TNiG2oiMy5jW4rmbbL0qP9ySUoySfnTUamZh2lu8mbcrSaONyybjoPnbZSf4U7CzP8Ssi0jMiSScqjpo9Q07xS3ZEp9RLky5Bkp6Qv8ApLMiIv3JIiSktiSItg2QAAAAlafzlYm6vr/9UoVQlafzlYm6vr/9UoVQANLd1T65SLWmW0zcNIJsycMyaltEZnxL2RGeWZqNKyI1NqUZkSkqWhe6ABr6S1Yt4q3WUOsvNLNmRGeIidjukRGbayIzLPIyMjIzSpKkqSakqSo9gNLd1T65SLWmW0zcNIJsycMyaltEZnxL2RGeWZqNKyI1NqUZkSkqWheVSWrFvFW6yh1l5pZsyIzxETsd0iIzbWRGZZ5GRkZGaVJUlSTUlSVGGltL681qlU1DUVsvksKPMdem2S438st5CUpSlhzPLiDMzMy/EWwOXY43ew37+f8ABhW+dPEPUtZ8+eKoBK8uxxu9hv38/wCDDl2ON3sN+/n/AAYqgASvLscbvYb9/P8Agw5djjd7Dfv5/wAGKoAEry7HG72G/fz/AIMOXY43ew37+f8ABiqABK8uxxu9hv38/wCDDl2ON3sN+/n/AAYqgASvLscbvYb9/P8Agw5djjd7Dfv5/wAGKoAEry7HG72G/fz/AIMOXY43ew37+f8ABiqABK8uxxu9hv38/wCDDl2ON3sN+/n/AAYqgASvLscbvYb9/P8Agxr8Q4jxjQ0FnbzMN4fXGr4rst1LV68a1IbQajJJHEIs8iPLMyF0JXhY81mMupZvyFgKoAAAAAAAAAErwadHJnXVt3jIAODTo5M66tu8ZAAHBp0cmddW3eMgVQleDTo5M66tu8ZAqgAAAAAAABK8E/mswb1LC+QgVQleCfzWYN6lhfIQAqgAAGuxHbMUNBY20tK1sQY65C0tlmpRJSZ5EXrPLIhz274Tp9dJer3qUo1rG0jfQpanmSLi0uINLhEnSzJWRlkRkaT5yyM+i31VGvKSfVTiWcWawuO7oHkrRUkyPI/Qe3YY5nivg0mvuLsIc2RZ2z5OcpdkPcWSy4tLaCS0WTZZEnaeWe09voAUR45eK84gq6P9mFaFUG7yv/aeOMvxcToZaGZ8+nno+VlkNRA4TJknB8G8RUw3kuy2oDxFYIToPOOobTkSSXkWbhGZKMlERGejzZ1NphBmbfncx7KVAnGgm+MjRohqyIsvxrZUv+GlkNJU4CRY4ZooWKzcdbhRFNLr0mhLRvKI0m8ZoIs1kkzJORkSTMzIs8jIN9Q4gem4is6mwbixpUVph1LLb2mo9NKjVtPLMiMi25FzjSXeOp9VjZuhcq65xtxo5BPInPKc0CP8PFJjqM3VJJxSWyM9Im17SyGywnh2RU4gtpExxyYTjMZlmbINCnnSQlRK0jSRbdpegs+cT+MML2Dl5I5DXvO0kkkSVNVvJEOrmkszN145CT0siJrRNJ7NE8yPYAz4PCDpVFDOlV8habSwlw9GPHdU42lo39FXFEk1mZkyWZGRZGZnsyyG5oMVtXWJbKrYhS2EQ4keTxkphxhazdW8nRJC0keRcTnpbSPSMvQJyJhC3cwjTwZ0ardmx3H5Li1yHW1IecWs9JKmsvKMnFaWWSczPIiLIhn8HWFbHDSW02BQZD5xGo8icmQ+6/IU2R6Jq4zMiLNS1ZEfOowGDi/hJPD2NYVL9muPRnMifkJdjklvMvJ0lKeTxeZnkXGEWkZGScxj3nCHZw6ZD0KrVJmuWU6GhLDBv5ojyHGs+LJZLM9FCVGos0ltzyzIbe4wOxMxTHmtvWaYUjjlWLSLeU2h1RpSTf7MnCTkWRlkREWQnLnCF0jCsGNBrmZEljEE6WptzQePkrrklScjU4jMz4xozLTSfPnntIwqMI41K/vFwuTqbaXXRZ8dSUG4Skum7npOINTZEZISaS0szzPnyPKyEJwc117FtbaReQI8KOqNEjRG2WGmSJDXG5p0UOu5ERLTlmr9xF6bsAAAARuIZsWu4R6OXYSWIsRqks1OPPuEhCC4+BtNR7CIeeCuEuixtiGxrcM8pmx69olv2BN6MclmrJLaTMyUZnks89HLJOwzGLjnDtRirHdHV4ggtToDtNZGppzMsjJ+DkZGWRpP8yMjE9grgFw1hbENjI5PBuKaY0WhDtYLchyO4SsyNDqi/CZGojLRz2JzM8gHYQEr93GB9zcN+62P0h93GB9zcN+62P0gKoBK/dxgfc3Dfutj9Ifdxgfc3Dfutj9IBwadHJnXVt3jIFUOYcHuAcHSqGU5Kwnh95xNtZtkpytZUZIRPfShOZp5iSkkkXoIiL0Cl+7jA+5uG/dbH6QFUAlfu4wPubhv3Wx+kPu4wPubhv3Wx+kBVAJX7uMD7m4b91sfpD7uMD7m4b91sfpAK3zp4h6lrPnzxVCFwnSVVDwk4ki0dZBrYy6mtcU1DjoZQpZvTiNRkkiLPIiLP8iF0AmcYYneon4sWDXHYzXmH5ZtcdxREyySeMUR5HmrNxBEnZmatpkW0SMXhYS+5aS016jq4kOTLb0km284ltERSc9LYkj5SrMz2ZER+sWOLcLoxA5Gebnya+Uy09G4+OlClGy8SScRkojIs9BBkfoNJfmRy+EcBvYexjJWy2f2ItiU0ya5BvrSlaYSUpVxhmo/5BznzIiIi9RAP7ccI8umRKbsq+A3JiSIZPGxPS4ypmQayIydcJokrLi1ZkrIsjSeflCix/iWXhfDblxCr409LREamHJamVuGeRIQ0SW16a1GZERbOfnGldwI/VlUoprCS9FZsmZD0RUeG01okflLybZQekXPsPMbzHtTNsKpEikajndxHEqivOpQa2kmpJOm0ayUlLht6RJUZGRGe3ZmA01dj1+XYpYVDj6KamRZqXHU64y5oKa0OKfW2gnEmlwzM0pPI8i/f6p4RIzlbTSG6q0J2xfiM6L0J9ptvjloSZ8apsknlpZlzaWX5jT4VwrbxbadIKApiEqC6w2zauR9NTrriVOGXJk5EhWjmo1ZqM8sstuf8r8AWsO0OUTNS7HbNhcWK5OlqajraMzJSUmZke3RPaWzRIBTcJGJ5WF6iM7XxOVTJb5R2EaBuZryNWWgRkZ5pSs9h7MszE/W8KTJxnJVkwltlumXZkhsj4x5TSnSdSlJnsy4o/JPaXpFLwhYPYxnTfZ0mS4y0eZLTpL4txJ85KSlac+bYeezb6xqsF4PmYdxDLKQ6U2tXXtsNvLU4oyMnFmbeTjqz0SIyP0FtMB5ysc2cNmSzY1MOLYJaiymksTDlNLZdfS0ekrQQaVFnzZGR+gzyMbzGmJHsPqp240eE67Yy1RSVNmHGabyZcd0jWSF/wDt5EWXOYlafDcuLhz7IdwlFiqedackya12PHJ023SWlWiSebySLLLmzIshbYuZffo3yhQ+WSyNJtNk20syPSIjPJ0yTsIzz255Z5ZnsMNDhfGki8sqeOuJFYRLbtON4l83kkuJKbYI0L0U6SVaSlbUl6AxdjKwocTVlS1W1r5WXGcmW7YuNrPQRpK0kJYXlt8lORnmZkXOeQ0vBnhbEGHLdKLtlp+OaHDZfZeN8o5L0TU2anV8YnM0lnoFoqNJGZF6N1iSidViGTIYw/Etq+xikiahxaErU6hSeKPNe3RSRHkRGREo88s9oDXq4RXlttKjRYSEyLV+A0uydcgJQhtrjNJZLbNRKPIyyNJegbWnxiqfiWDWITDlIfhrederXuUtMuJXlom5s2ZGXOkjzMay9obORg+zRAqVosZdkmUphyX5SUmpBLUhbTjRl5JHkWmWZlkZmR5Dz4NsP29XiCRKtGbFtpUTiUFIfN1BHpkezTlPqI+fm0S2evIB0kSvCx5rMZdSzfkLFUJXhY81mMupZvyFgPnus4U8QXnC3iORUwb+dheUpEEl1EVT7rbLRqyU2ewkGs1KM1HmZEo8sjyMvqWtgRayC1DgMIYjNFklCfzPMzP1mZmZmZ7TMzM9pjISkkpJKSIiLYRF6B/QAAAAAAAStP5ysTdX1/8ArlCqErT+crE3V9f/AK5QqgAAAAHHeH+ZiethOv4MwzPmzJMNUR+xhuJMibVpFxa2SI1uGjSNaFFloKM8jNKnEL7EADg3/hev3r1uaialxE6rp66tkJWk0mk2n52iWR+nQNGf55jvIlK0iLhUxFkXPTVmfbzxVgAAAAOaXPCeuA264mmdOM87IYgyCUayeUw8TThuJIv2aczUaTzPMk5nlsI+ljmuI+DBubFknFnzHDbcffgRVPG00wt95LruZoyNZGojySrMiIzLLmyD+HwjzSguuNVkJx2LBdsZRvzDjJ4lLzrZE3mlWkv9kZnmaSLNOZlpFlvMKYxK9xTiCoNhDX2eplbJm4gnFNuR2XfLb0tMjJTqiz0dHYRZ55jCr8D8tw3UxrZxcSZBefdQbbMZ40mt1SiMjdbcyPIy/Dlz7RtMF00+osMSnYvuS0yp6Ho8l4midebKKwgzXxaUlmS0LSWZEeSSAaGx4SHa2/t66RSvuNxJBNsvIJeTqDabVpbEGX4lKTsP+aNg7i+1j4Cg4kdpmNA6xM+a05KNlUdXFktTZEaDMzLaW3I8yyHPsZ8HFtZ4umzIlJAKIiRxsVTcVlWlm2RKUrN5vMzNS9hpMuY+fm6BR4N0qDDsK1dWmNXstqfgNstMtyZKcj410kZkflFpaBHo57T0siAbXDmIF2lzbwJLbUd6HxBpZ0v2mS2ULVpF+SlZZkQ0rePn1zG1nUoRUSLCRVx5XKs3VSGeNJWmzolooNTKyIyUauYzSRbS3NHTuRcWYks347SeWOs8Q95JrUhLKEqLPnItJJ7D9WY0S6OVCxZeWLeFoExUlwjizWlMsvIQplCXCMzLPSNRL27TMjIuYiIBscE4zbxJHpi5OtD82qTYOK0FNpSrNBKSSVFmZZq2HzGRekeOB8ZrxLe20E0Rkpgt5q4pekpK+VSmclbdnkx0Ky/5j9GQ/UXBhpjUjkO2tqeRArUV2iwcd1Smy0dizW0ojPyS2pIhicHuFZ+H8QWsiY21xMiOSUuoURmtZzZru3mPPQfbzPLLMzIuYBfAAAAleFjzWYy6lm/IWKoSvCx5rMZdSzfkLAVQAAAAAAAAAJXg06OTOurbvGQAcGnRyZ11bd4yAAODTo5M66tu8ZAqhK8GnRyZ11bd4yBVAAAAAAAACV4J/NZg3qWF8hAqhAYTjY4w/hWmpvsTDcj7OhMw+O+230cZxaCRpaPJDyzyzyzPL1gL8BK8uxxu9hv38/4MOXY43ew37+f8GAqgEry7HG72G/fz/gw5djjd7Dfv5/wYCqASvLscbvYb9/P+DDl2ON3sN+/n/BgKoBK8uxxu9hv38/4Ma+8xHjGmhNypWG8PrbclR4hE3evGem88hlB7YhbCU4Rn+WfPzALoBK8uxxu9hv38/wCDDl2ON3sN+/n/AAYCqASvLscbvYb9/P8Agw5djjd7Dfv5/wAGAqgEry7HG72G/fz/AIMOXY43ew37+f8ABgKoBK8uxxu9hv38/wCDDl2ON3sN+/n/AAYBZedPD3Utn8+AKoSFbBxHMxpBt7yDUQY0OvlREph2Dkpbi3nI6iMyUw2SSImD9J/iIV4AAAAAAAJXg06OTOurbvGQKoSvBp0cmddW3eMgVQAAAAAAAJWt86eIepaz588VQkLKDiOHjSdb0cGonRplfFiKTMsHIq21suSFGZElhwlEZPl6S/CY9eXY43ew37+f8GAqgEry7HG72G/fz/gw5djjd7Dfv5/wYCqASvLscbvYb9/P+DDl2ON3sN+/n/BgKoBK8uxxu9hv38/4MOXY43ew37+f8GAqgEry7HG72G/fz/gw5djjd7Dfv5/wYCqASvLscbvYb9/P+DDl2ON3sN+/n/BgKoBK8uxxu9hv38/4MOXY43ew37+f8GAqgEry7HG72G/fz/gw5djjd7Dfv5/wYCqErwseazGXUs35Cw5djjd7Dfv5/wAGNViyNjjEGFbmm+xMNx/tGE9D477bfXxfGINGlo8kLPLPPLMs/WAvwAAAAAAAAAStR5ysTdX1/wDrlCqErUecvE3V9f8A65QqgAAAAAAAStb508Q9S1nz54qhIWUHEcPGk63o4NROjTK+LEUmZYORVtrZckKMyJLDhKIyfL0l+Ex68uxxu9hv38/4MBVAJXl2ON3sN+/n/Bhy7HG72G/fz/gwFUAleXY43ew37+f8GHLscbvYb9/P+DAVQCV5djjd7Dfv5/wYcuxxu9hv38/4MBVAJXl2ON3sN+/n/Bhy7HG72G/fz/gwFUAleXY43ew37+f8GHLscbvYb9/P+DAVQCV5djjd7Dfv5/wYcuxxu9hv38/4MBVAJXl2ON3sN+/n/Bhy7HG72G/fz/gwFUJXhY81mMupZvyFhy7HG72G/fz/AIMarFkbHGIMK3NN9iYbj/aMJ6Hx322+vi+MQaNLR5IWeWeeWZZ+sBfgAAAAAAAAAleDTo5M66tu8ZABwadHJnXVt3jIAA4NOjkzrq27xkCqErwadHJnXVt3jIFUAAAAAAAAAAAAAAAAAAAAACV4S+jkPrqp7xjiqErwl9HIfXVT3jHAVQAAAAAAAAAAAAAAAAAAAAAACV4NOjkzrq27xkCqErwadHJnXVt3jIFUAAAAAAAAAAAAAAAAAAAAAAAAAAAAAAAAAAAAAAAAAAAAAAACVqPOXibq6v8A9coVQlajzl4m6ur/APXKFUAAAAAAAAAAAAAAAAAAAAAAAAAAAAAAAAAAAAAAAAAAAAAAACV4NOjkzrq27xkAHBp0cmddW3eMgADg06OTOurbvGQKoSvBp0cmddW3eMgVQAAAAAAAAAOdYIrL6+wXQW8zHGIESbCvjy3UtR68kJW42lRkkjimeWZnlmZgOigJXVe337xJ2Fd4UNV7ffvEnYV3hQFUAldV7ffvEnYV3hQ1Xt9+8SdhXeFAVQCV1Xt9+8SdhXeFDVe337xJ2Fd4UBVD5/8A/FDirFeDTqptbyWVh6U/GNTL7OfESo76ZCD0kmR5OaBFkZnsQrLLPMdW1Xt9+8SdhXeFGDcYBkXMVEa1xhfy2EOofSh2NXGRLQolJV/wvoMi/wAuYwG24Pft48H1ruLXkuXb6DfkJS2TZMmszUTREX9BJkk+czMjPMxRCV1Xt9+8SdhXeFDVe337xJ2Fd4UBVAJXVe337xJ2Fd4UNV7ffvEnYV3hQFUAldV7ffvEnYV3hQ1Xt9+8SdhXeFAVQCV1Xt9+8SdhXeFDVe337xJ2Fd4UBVAIqvbtajH9bWycRWVtCmVkyQpua1FToONOxUpNJsstnzPLzIzMub1C1AAAAAAABK8GnRyZ11bd4yBVCV4NOjkzrq27xkCqAAAAAAAAARVg3a2+P7KtjYisqmFDrIchLcJqKrTcddlJUajeZcPmZRkRGRc/rGXqvb794k7Cu8KAqgErqvb794k7Cu8KGq9vv3iTsK7woCqASuq9vv3iTsK7woar2+/eJOwrvCgKoBK6r2+/eJOwrvChqvb794k7Cu8KAqgErqvb794k7Cu8KGq9vv3iTsK7woCqASuq9vv3iTsK7woar2+/eJOwrvCgKoBK6r2+/eJOwrvChqvb794k7Cu8KAqgErqvb794k7Cu8KGq9vv3iTsK7woCqASuq9vv3iTsK7wo0mN6y+ocF39vDxxiBcmvr5EtpLsevNClttqURKIopHlmRZ5GQDooAAAAAAAAAJWo85eJurq//XKFUJWo85eJurq//XKFUAAAAAAAAAAAAA1V3iGooibK2sI8Zx3Y00pWbrp+pCC8pZ/kkjMBtQEr9vXdpsoKB1lk+aZcKOMnL1pZIjdM/wAlE3+8f06vFbaCfbxJDel5mao7tcSYpl6kklfGJPn2mtf7gFSAldZrCt2YkoJcdBc8uuznMfxJKSdT/FvIvWN3TXNZdxjkU9hFnMpPRUqO6S9E/UrLmP8AI9pAM8AAAAAAAAAAAAAAAAAAAAAAAAAASvBp0cmddW3eMgA4NOjkzrq27xkAAcGnRyZ11bd4yBVCV4NOjkzrq27xkCqAAAAAAAAErwT+azBvUsL5CBVCV4J/NZg3qWF8hACqAAAAHG4eLLl/GVwnlal1hxj4l1DD3F6RkoiNKc82yzbPRdV5CzJwknsGHijEN25Q0yay5soEn7MiOPymmzkGpakkZ5NcUemo9IszNxJEXMRmWQDuACS4N7KRPqZCJr7z8pl3JTjizWSiMiyNJm02eWw9hpzI89p7BzN7Ht/o4XJ+3i54gbh2BMmaWnY5LkoSthoiLNadFeR6Wai0Fnn6CDvIDjLN1i5zDlQ/Ek2qpLlHBkV5MRUPMzZSmzNwpTikqNBZ6OZ6SNijMjNWwrXA0y2k3eKm7Hj1QGbBSYa3EFlo6JZklWmZmReo0JIs9hq25BYgOOM4zuosepspt7ASxdxpbxsTyQ0zBU24gkEhaSJR5ErQVpmrNZpyy5h+WcW3kOBhF5qzYNqRQR3JRyWSkqU+pKD0jLjm1EZkZnnmZGA7KAi+DG3sbiJcu20pmQ6U4+IJtCWySzxTeXkEtZpLSJznUZnt/cJ+5xDZR5l0ube21ZOjPrbhVsaqS+w8j/yVaXFKU4a/JM9FxOiZ5bMswHVAHK8e3GJSkUia7SRJZZbl2caPHec5Mg/xrNSHEk4RGWRNERqURKMs8shQ8H9rY2tniJVmlTfFux+Ka080pSqO2ozSWfkkozM8ucs9oCzAAAStl508PdS2fz4AqhC4st41Nwk4bkTG5zjaqmybIocJ6WvM3oJ7UNIUoi2HtMsuYs9pDYa+VHseJPhyx+gAqgErr5Uex4k+HLH6Aa+VHseJPhyx+gAqgErr5Uex4k+HLH6Aa+VHseJPhyx+gAcGnRyZ11bd4yBVDmHB7jSrjUMpDkXEBqO2s3M26Ce4WSp76i2pZMs8jLMucjzIyIyMhS6+VHseJPhyx+gAqgErr5Uex4k+HLH6Aa+VHseJPhyx+gAqgErr5Uex4k+HLH6A5nwo8ObmCcQ07serlTKOY2tDzMuulQJCHEKLNaFvISlZZLLySI8jTtMsyAdMrfOniHqWs+fPFUOb8G+KIOMcX293VtTGYsmkrTSiWwbSy/bz/Qewy/NJmR+sdIAAAAAAAAAc64V7lyAuLDh3UymnSkGhqUtbLMJnMz8txx1JkpRERmTaDNR5FmREekWmpsUWUmpxrZuYgYNmvbacjvx1MyEESW1GaSJKlp0lHkXoMzy2AOvAOIYexdd2uIMO8omTiYkohOOEsmm0uKWUnjE6LajMtFSCQZLIjzRtLZmOgY+sZ0J+qaZmy6ysfW4mVPhxSkOtKIi4tBJNCySSvLzWaTItEi2Z5gK8BzJrEVkrDV+tqzlSojTiI8CwfrVlIkLUnJbaWm+LNSiVkSVpJJZmf9EzGqw1eYoRNwhWXiHmHytlszjzWWR8klL4lSlLVxyc0oWS0no7CLIjLIB2IAAAAAABK8LHmsxl1LN+QsVQleFjzWYy6lm/IWAqgErr5Uex4k+HLH6Aa+VHseJPhyx+gAqgErr5Uex4k+HLH6Aa+VHseJPhyx+gAqgGroL2BfsSHa5Uj/Z3uIebkRXYzja9FK9FTbqUqLyVoPaW0lEY2gCVqPOXibq6v/1yhVCVqPOXibq6v/1yhUqUlJpJSiI1HkkjPnPLPIv4EYD+gA85D7MZhb0l1tllBaS3HFElKS9ZmfMA9AEqeNYk09DDUKbfL9DsJBFG/fyhZpbMvXoKUf5cwchxVbbbCzi0kc//ACKxBPvfxfdTo/3N5l6FekBvrW0gVERUq1mxoUZOw3ZDqW05+rMz5xoda5Nj5OGaKbYEfNKl5wo3/wCSy4xRfmhtRfmMyqwjS1stM1uIcmxL/wDnpripMgvXk44ZqSX5EZF6iG+ASv2Fe2m2+v1x2T54lOg45ZepTyjNw/3oNv8AcNrSYdqKM3FVVexHed/lXyLSdd/Nbh5qWf5qMxlWllCqYhyrKU1FjkZJNx1WinM+YsxgwsU0c443IrWJIKSbhNG04SiUbeentLYWWR55+oBuQGlk4roY7JuuW8FSCz/k3icPYlSj2JzPmSo/4DPk2UGJWHYy5bEaAlBOKkPrJtCUnzGalZERbS5wGWNJc4WpriSUqZCSmektFM2OpTEhJeonUGSyL8s8hlouq1xNapmaw8ixUaIi2laaHjJClnoqTmR+ShR582wfo7evKpctDmMlXtpUtcjS8hKUmZKMz/LI/wC4Bo/svE1Vtqbhi2YLmi26NBf7ikNJzIvzU2s/zDXJuB5OJ6ydSmXPIdRx0X9/HN5kkvzc0P3CqAB4wpcafFbkwZDMmO4WaHWVktCi9ZGWwx7Ccm4Mp3pTkuE07VT1npKlVjpxlrP1rJPkufuWSiHhxWLan+Sfg4hjF/NkFySVl/XSRtrP8tFsvzAVQCXaxtVtOoYvESqGSo9EkWjfFIUfoJLxGbSz/JKzP8tpCnSpK0kpBkpJlmRkeZGQD+gAAAAAAAD+EpJrNBKLSIiMyz2kR55H/gf9wD+jWP22by2a6I9PdbPRcNo0pQ2fqNajIs/WRZmXpIh+bl5Tz7Fa06bJyELcedSrRNDKciVkfoUZqSRHsyIzMtpD5k4V+FmdYT3abCj511FFUbSTjFxZvZbM8y2kn1EWX5/lna0zOIdelpVrXxNTj9/E4jMcZme/0yc63bIlO06VpP8Amx5aVLL+CiSX+IzYE9iaSya0kOtnk6y4nRW2f5l/kfMfORmQ+Dq7EVzWyykwbOYw/nnpodURn+/1j6W4JMevY8gLal8S3iqsTptukWgmS2ew0nlzEewlFzEZpURZp2Rm1eV+nR1YxTafrHvO3fiY53XfBp0cmddW3eMgB4cEslE3By5TRKJt+1tHUkosjIlT5BlmX8QGsTndxWrNZms8w9+DTo5M66tu8ZAqhK8GnRyZ11bd4yBVAgAAAAAAASvBP5rMG9SwvkIFUJXgn81mDepYXyEAKoAABJHwf0ZOSH2/tI5bzZNKfetJTyjJOkaCVpunpEk1qMiPZ5R+sxr7fg8bnx6VByoj/wBmwUwiZsYJS4yySRftCaNSdFeznz5tgvQAaTB1AWGqUq9MpckuNW7maSQhvSVnoNoL8CCz2JzPL1jEm4IpXY7yIURqAt6UzLdcjtkSnFNO8akj/LS0jy/5lHzmYpgATkHBtMnD9NWW1fAtfsyI3EbelxULPJCEpMyJRHo56JHkQyMK4di4ajzo8BLTcaRLXKQy00TaGtIiLRIi2ZbPy5xuwAaiJhqngy5syBXRY0yWlSXX22yJStI9JX96vKPLnPae0aiRgaDIwIxh102VuNQGoJTVR0msyQhKSVl/9vNmK4AHhFhRYelySMwxp5aXFNknPLmzy/eJKXweQJa5ipFrdqOYptb/APtReWbZkaP5voMiFoACPxRglF5HqkrmJkOVylmlNpHKYy9pZbXGzNJKUWXkqIyMtvrMZeBsKt4Vizmm3218rkcoU1HjlHjsnopTotNEZkgj0cz2nmozP0ilAAAAAStl508PdS2fz4AqhK2XnTw91LZ/PgCqAAAAAAABK8GnRyZ11bd4yBVCV4NOjkzrq27xkCqAAAAATtxgrD93iKJd3Fa1PnxGuKj8pM3G2i0jVpJbM9DSzP8AFlnsLbsFEACVrfOniHqWs+fPFUJWt86eIepaz588VQAAAAAAAJ3GVBNvmoKYFu/WnHdNxZNqeJLxGk06KuKdbVkRnn+LnItgwsPYKahcpO5cjWinXmZCVLQ+pRONZ6CjN550zyzIyyyyMs/3V4AJKZgavdxOxdxDTEeS82+6200kkvKTxuajyy8o+N2nt/CQz8R4ZYv34rsmdYscmWl1tEZ4kJJaTMyXlke3aN8ACUjYJjRqm4gM2luTVm28l1SpOakLdz0nEHkWS8zzzGqw7wcNVN7W2JPVbBwNPQTV1aISnyUhScnlkpWmnytLIiSWkRH6B0AAAAAAAAABK8LHmsxl1LN+QsVQleFjzWYy6lm/IWAqgAAAAABIroMQw7u5mUN3Ux49nJRKWzNqnJCkLJhpnYtMhssjJlJ5aOeZntHpyHHG8OG/cL/jBVAA5hVw8YnwhYhSi9w+UgoEE3FnSvGhSdOTokSeV5kZeVmeZ55lsLLbOcP1JjGwwAcVcmut5rkxjkTNZRvofQ8Ss+MS5ylZNkSSXmo0mWR5bM8y6RUeczEvV1f/AK5QqgHHODih4W4WC3o+IcRVv2iok8mTJa5Q+yn+clbxHlpfmZO/x5i2ceNAr30P48pLaTLbPSKwmLOzipV/SQSEklr+sbLZDqAAMSqsoFrCRKqpkaZEVsS7GdS4g/3GR5DLGgtMIUthMVNOIcSyVzzoLioz5+rSW2ZGovyVmX5DE5Hiup/4GxiXscv/ACbFPJ38vyeaTon+42y/NXpAVQCWLGsKIZIxJEm0DnNpz0Fyc/3SEGpovyJSkq/ItopmHmpDKHWHEOtLLSStCiUlResjLnAT/CHKnQcJTpldZNVq46DdckOMm4ZIIjzJOSVZK5tugvL+iY5phOEaMaVMpuilNNRWJOmpJSFmszbMzNan4rJqUtRmf4zzUo9hDtMuMxMjOR5bLT8d1JpW06klJWR85GR7DIayvwvh+ultyq+jqokpvPQeYiNtrTmWR5KIsy2GZfxAcLxLS3lbDek28U4UexmybBplgmeLZ4yI+RR3TItM3EEkjzSrQPSV6iHVcRwpUrC2GZESI5NTAlRJj0VvLSdbSnI9EjMiM0mZLIs9uhs25CzkMMyWlNSGm3W1EZGhxJKIyMsj2H+RmQ/aEpQhKEJJKElkSSLIiL1AOL1lNYVuLsNT5FOxEKZcWMhhtUo+OQTjEpaW1NkRoTnnpGZKMyNRlkNHLwG+7Mdw8uhicfKYel8dxcQ3SQbhEo+N4vS0iNZZHzj6BdYZdcZcdabW4yo1tqUkjNBmRpM0n6DyMy2egzA2GTklINpvjyQbZOaJaRJMyM058+WZEeX5AEZbjkZpb7RMvKQRrbJWloKy2ln6cj9I9AGPPmxa6K5KsJLEWM2Wa3X3CQhJfmZ7CAZACV1wKf5OGKmfc580hKOTxS/PjnMtNP5tkv8Adzh9lYltdtvdNVjB88WnRmr9ypDhGZl+aUNn+YDb39tUVMI1XsyHGjO5oIpK0kTpn/NIj/EZ+oszMc/VXLkLNfB1UW1MajzKSp3kEI/WfJnELz/eTKc/6Zc5XNLhamppCpMGC3y5ZaK5jylPSVl6lPLM1mX5GfpG6ASTUDHJMtkvEOHNMkkSs6N5W3LbtKWWe38i/cP3yHHG8OG/cL/jBVAA5/it/GNNh6TKevaZbinosdpUWoW0ptTklps1HpyHCUWipRZZEe0jzLLbMTMXWlfcTKe6xYmqgwpspr7akMR0qdNEeK82wojSSMzKQ6ewiNRNZFkZmY7OP4pKVFkoiMs89pAIumXja3pKuxTY0daqVDYeciSah55xlxTaTWk1lJQR+Uav5pZFkW3LM+PcNWGuESz4QMOLwy+2/fMRlm5Y1cB2vbZZNZaKHXlvuJUWZOHobDyz2K0iH0sADnNZDxNHpZ8XFNhEsMRLpVpRIiNcUg1Ea89mzM81N7SJJf8AKQ+N3CNK1ErYojMjH35bx3tNmdCRpy4ulk3mRca2rLTbzPYRnopMj2bUlmeWY+f+E/gfdtpsi+wMTb7L7hqfgH+zW05zq0Uqyy286TyMs+b1ZR8Nt3faPG0Y6eY/n2xMd9/NwEdW/wDDQ3IXwmsLZz4pEZ03sv6JpyL/AOWQ0NdwVY0nSyYTQy2TzyNb6eLQX8TH0LwbYFawRXPVsJ9EnEUwklMmNpzTFbyz2GZbP+Uj2qMyMyySeU2tExsro6FqTM222n1jGflGfZTcFbjDuDyXELKOqwsDQX5ctfAfngqjtRMJvR46CQyzbWraEl/NSVhIIi/uAXrGIiHNrXjU1LXjzmZevBp0cmddW3eMgVQleDTo5M66tu8ZAqhLMAAAAAAARVTgebUVUOtr8bYkZhQ2UR2G+KgK0G0JJKSzOKZnkRFtM8xagAldV7ffvEnYV3hQ1Xt9+8SdhXeFFUACV1Xt9+8SdhXeFDVe337xJ2Fd4UVQAJXVe337xJ2Fd4UNV7ffvEnYV3hRVAAldV7ffvEnYV3hQ1Xt9+8SdhXeFFUACV1Xt9+8SdhXeFDVe337xJ2Fd4UVQAJXVe337xJ2Fd4UNV7ffvEnYV3hRVAAldV7ffvEnYV3hQ1Xt9+8SdhXeFFUACV1Xt9+8SdhXeFDVe337xJ2Fd4UVQAJqpws7Dv2befiC3tpLEV2I0mYmMlDaHVtKWZEyy2ZmZso5zP0+sUoAAAAAAAACV4NOjkzrq27xkCqErwadHJnXVt3jIFUAAAAAAACatsLOzL963gYgt6mS/FaiOphpjKQ4hpbqkGZPMuGRkby+Yy9HqHlqvb794k7Cu8KKoAErqvb794k7Cu8KGq9vv3iTsK7woqgASuq9vv3iTsK7woar2+/eJOwrvCiqABK6r2+/eJOwrvChqvb794k7Cu8KKoAErqvb794k7Cu8KGq9vv3iTsK7woqgASuq9vv3iTsK7woar2+/eJOwrvCiqABK6r2+/eJOwrvChqvb794k7Cu8KKoAErqvb794k7Cu8KGq9vv3iTsK7woqgASuq9vv3iTsK7woxLbA823qptbYY2xI9CmMrjvt8VATptrSaVFmUUjLMjPaR5i1AAAAAAAAAAABK1HnMxL1bX/AOuUKoStR5zMS9W1/wDrlCqAAAAAAAAMiURkoiMj2GRiYfwTVIeXIplSaKWs9I3atziUqV61NGRtLP8ANaFCnABK6eLqn8bcHEMYvS1/scoi/cZm2s/4tl+Q9omNadyS3EsXHqec4eiiNZtnHUtXqQpXkOH/AFFKFIPKXGYmRnI8xhqRHcLRW06glpUXqMj2GA9QErqYxA8rDFjOozLmYjrJyL+7iF5oSX9TQP8AMYD0/FqbyNQvyaWM7IYcfbskR3FE8lBpJSEsmvJCy0yPatRGR55HomAuFrS2hS1qJKElmajPIiL1iYcxvWPuKZoG5V/ISZpMqxBONJMuclPmZNJMvUa8/wAh/EYJrpK0u4gfl37xHpf7yWS2SP1kwkiaIy9B6Gf5inbQlttKG0pQhJElKUlkREXMREAl+Ixbbfy8qFh+Mf8AMiJKXJy/+osibQf5aCy/MZEDBtNGltzJLDlnYIPNMuxdOS4g/WjSzJv9yCSX5CiAAAAAAAAAAAAAAAAAAAYE6piy3uPPjmJGREb0d1TS1EXMSjSZaRFtyI8yLMZ4CJiJ5Wpe1JzWcNQdIayJL9raOtlsJPHE3/8AJBJV/iNjDiMQmCZitJabIzPJPpM+czP0mfpM9pj2ARFYhe+te8YmdvRK8GnRyZ11bd4yADg06OTOurbvGQAsyODTo5M66tu8ZAqhK8GnRyZ11bd4yBVAAAAAAAAAAAAAAAAAAAAAAAAAAAAAAAAAAAAAAAAAAAAAAAAleDTo5M66tu8ZAqhK8GnRyZ11bd4yBVAAAAAAAAAAAAAAAAAAAAAAAAAAAAAAAAAAAAAAAAAAAAAAAAlajzmYl6trv9csVQlajzmYl6trv9csVQAAAAAAAAAAAAAACexvBkSKlE2tbNy0q3SnREJ53FJIyU0X9dClo/8Avz9AoQAY1ZOj2lbFnwXCdiymkvNLLmUhREZH/cYyRK4W/wBz3trh5exjSVY1/wD9F1Rm42X9R01bOYkuNkXMKoAAAAAAAAAAAAAAAAAAAAAAAAAAAErwadHJnXVt3jIAODTo5M66tu8ZAAHBp0cmddW3eMgVQleDTo5M66tu8ZAqgAAAAAAAAAAAAAAAAAAAAAAAAAAAAAAAAAAAAAAAAAAAAAAASvBp0cmddW3eMgVQleDTo5M66tu8ZAqgAAAAAAAAAAAAAAAAAAAAAAAAAAAAAAAAAAAAAAAAAAAAAAAStT5zMS9W13+uWKoStT5zMS9W13+uWKoAAAAAAAAAAAAAAAAAE1jaM+0zCvK9l16bUu8cbTSDUt6OryXm0pLao9Hy0pLaa20EKUQ+P8YzcLz2o7UaO99oRVN12nn+0n8YhCGlZH+FXGEezbkhe0TrnCRet2k3KtgnXtvzobXKDONk7GbcVpqdWvRNKlNHmkkkaUqJRmZEYDrQCT4PsQzryPPat0NNWEN1KHGkxnI60EpBKLSQo1F6TyUlaknlns2kVYAAAAAAAAAAAAAAAAAAAAAAAAJXg06OTOurbvGQAcGnRyZ11bd4yAAODTo5M66tu8ZAqhK8GnRyZ11bd4yBVAAAAAAAAAAAAAAAAAAAAAAAAAAAAAAAAAAAAAAAAAAAAAAAAleDTo5M66tu8ZAqhK8GnRyZ11bd4yBVAAAAAAAAAAAAAAAAAAAAAAAAAAAAAAAAAAAAAAAAAAAAAAAAlanzmYl6trv9csVQlanzmYl6trv9csVQAAAAAAAAAAAAAAAAANPb0DFtcVE6Y64pusdOSzH0U6BvGhSCcM8tLMkrVkRGRZnn6CGtxPDpKM38RO0Nc8+s0MTpfEoJ1MdaiStalaJmpKSMjURn+FJ+oiFUPKVHalxXo0ltLrDyDbcQosyUkyyMj/IyAYlLS1dFFONS10OvjmrSNuKyltJnllmZJItuREX8BsBNYEkOt18ilmuKcnUzvI1LWeanWsiUy4frNTZpzP8ApEsvQKUAAAAAAAAAAAAAAAAAAAAAAAASvBp0cmddW3eMgA4NOjkzrq27xkAAcGnRyZ11bd4yBVCV4NOjkzrq27xkCqAAAAAAAAAAAAAAAAAAAAAAAAAAAAAAAAAAAAAAAAAAAAAAABK8GnRyZ11bd4yBVCV4NOjkzrq27xkCqAAAAAAAAATVtil2HfvVEDD9vbSWIrUt1UNUZKG0OrdSgjN55szMzZXzEfo9Y8taLfcTEnb13igFUAldaLfcTEnb13ig1ot9xMSdvXeKAVQCV1ot9xMSdvXeKDWi33ExJ29d4oBVAJXWi33ExJ29d4oNaLfcTEnb13igFUAldaLfcTEnb13ig1ot9xMSdvXeKAVQCV1ot9xMSdvXeKDWi33ExJ29d4oBVAJXWi33ExJ29d4oNaLfcTEnb13igFUAldaLfcTEnb13ig1ot9xMSdvXeKAVQCV1ot9xMSdvXeKGJbY4m1FVNsrDBOJGYUNlch9zjYCtBtCTUo8ilGZ5ER7CLMBagAAAAAAAAAlanzmYl6trvmSxVCVqfOZiXq2u+ZLFUAAAAAAAAAmrbFLsO/eqIGH7e2ksRWpbqoaoyUNodW6lBGbzzZmZmyvmI/R6x5a0W+4mJO3rvFAKoBK60W+4mJO3rvFBrRb7iYk7eu8UAqgErrRb7iYk7eu8UGtFvuJiTt67xQCqASutFvuJiTt67xQa0W+4mJO3rvFANPjnE9Hg7F0C2sLaDFU6xySwjqeTxxsGalMvcWXlKJDmmnYXM8s/QKPAWJ4+MsJwL+Ew7HjTSWptt7LTJKVqSRnlszPRzy/Mc64VcMscI9Qce24P8SsWDaTKNYNO13GsnzkX/FeUnPnSfrPIyPaNlwYrvMH4CpqGRgrEDz0Fni1uNPV+ipRqNRmWcrPnMB1IBK60W+4mJO3rvFBrRb7iYk7eu8UAqgErrRb7iYk7eu8UGtFvuJiTt67xQCqASutFvuJiTt67xQa0W+4mJO3rvFAKoBK60W+4mJO3rvFDEtscTaiqm2VhgnEjMKGyuQ+5xsBWg2hJqUeRSjM8iI9hFmAtQAAAAAAAAASvBp0cmddW3eMgA4NOjkzrq27xkAAcGnRyZ11bd4yBVCV4NOjkzrq27xkCqAAAAAAAAAAAAAAAAAAAAAAAAAAAAAAAAAAAAAAAAAAAAAAABK8GnRyZ11bd4yBVCV4NOjkzrq27xkCqAAAAAAABK1vnTxD1LWfPniqErW+dPEPUtZ8+eKoAAAAAASNzjUqa8Yr7Cnnobe4w2321NO5oRzuaCVGvRzNJfh51FmArgETG4QorlVQTF1Vmf20lPJksNk4RrNC18XmZl5Wi2pXNzEP3U46K0O0KHTTH1QEJWbbTrRLWRvyGj/lFISRFyc1bVcyvyAWYCBo+E6sunMOIjRH2HLx3KM1JfYJ02eIdd4/QbcWejmyaPK0TIz/Ie0rhSwrForKyfsWULgcpJyEbrZSFKYUtKkpRpc6jQeiWZZ5lzALgBh2lgivq3py2n3UNo0uLYZW6tXqIkoJSj5/QR5c4j8McJUDEUCklwIkk2bOcqElamnEJTosvOaSVLQnT/kDSZJ5jPaAvAHM1cLddxmJENwnnF08R+WbZJdStRNIUs0uEpsiaz0cs1Ge0yIdErpsaxhMy4MhmRGdTpIdZWS0KL8lFsMBkAAAAleFjzWYy6lm/IWKoSvCx5rMZdSzfkLAVQCdxdjTD+EkM/b1k1HffMksRkkbj7xmeREhtJGpW3ZmRZesUQAAAAAAAJWp85uJera75ksVQlanzm4l6srvmSxVAAAAAAAAla3zp4h6lrPnzxVCVrfOniHqWs+fPFUAAAAAD8uqUhpakINaiIzJBGRGo/Vt2Dn9lwmNVjlkxOo7BiTCJnSSa23EmpwzySa21KJJkREoyP0KT6yAdCASV7jeNUTJ0R2rs3H4sRyYZpaSSFNILaolaXNns5hscPYg+2qmXOYhu5sPPMpZStJqcNs8thnkRGf5mReswG8Ac6XwrVyIlk6/WS4SoUhUM0zJMVPGSUmjNlOg6tRrIlkf4csi5xQy8bUEC8m1VnYx4MqKltZ8pdQ2SyWRmRpzPM8stuwBSANTh6+i4goitqxDjsZa3kNkRpzc4txSDNJ55ZGaDMjz5jLPISM7hUgQq+6kS6uZCVVqWytM2TFbJyQltLhMJ0XVGazSsjLJJlz+ksgHRAE7CxK7OupkGJSWLrESVyR6bpsE0lWilRnkbmmZESy5kj3whiGPiao5dGSbZpdWy42eZ6CkqMss8iz5s9nrAbsAAAErwseazGXUs35CxVCV4WPNZjLqWb8hYCqAAAAAAAAABK8GnRyZ11bd4yADg06OTOurbvGQABwadHJnXVt3jIFUJXg06OTOurbvGQKoAAAAAAAAAAAAAAAAAAAAAAAAAAAAAAAAAAAAAAAAAAAAAAAErwadHJnXVt3jIFUJXg06OTOurbvGQKoAAAAAAAErW+dPEPUtZ8+eKoStb508Q9S1nz54qgAAAAHF8VV0uBi26TWQLVMeZxbjz/FnJTJParLNUGQZJSo9iTXkX81JEO0AA5QxgGbf4Uw9Hl2DUdqrhpOKwcFSUnL2pUt5pZI0m9DNHF6KcycXzeTlg4ZwdOjV2KIUmoc4vkaDjQ23DjsyjTKnOJY0knkSDJbRGnPLRWRHs2DsoAOMYar7V3FFG6UGQbKJjljMYKsegMxX+TPN6SDccUhWkbppNKC8oz0zVsPP1m4VxDIU/XIh3LWGpjEtMuCmyjZqW+4Sj0T0MyTkp7Ms8/KTlzDsQANDfUms+Gk185yTXpeJCnUNEy6rZt0D4xC0KLPn2bRB0GEbGA/g+zlnLesXbPjrFPJo7SWyTDlIStRMto/pITmZn+Ii9Q60AD58xHCs4sfFkSLhWTMWbVlDr0qOapBNSMzVxaUsqR5Z5beML1EaCH0AwnRZQki0ckls9Q/YAAAAAJXhY81mMupZvyFiqErwseazGXUs35CwHJsdf+HrlGLmcVYVtZCpyJaJb0KwlulxpkojMkSUftGzyLIj2mR/ziyHWdQ6j2zEnxHY/XFUACV1DqPbMSfEdj9cNQ6j2zEnxHY/XFUACV1DqPbMSfEdj9cNQ6j2zEnxHY/XFUADmFZgurXwh4gjnKxBoN18BaTK/nkszUuVnmontIy8ksiMzItuWWZ50uodR7ZiT4jsfrhU+c3EvVld8yWKoBK6h1HtmJPiOx+uGodR7ZiT4jsfriqABK6h1HtmJPiOx+uGodR7ZiT4jsfriqABC4TqI1Nwk4kjw3JzjaqmtcM5k16WvM3pxbFurUoi2FsI8uc8tpi6ErW+dPEPUtZ8+eKoAAAAecphEmM6w4ayQ6g0KNtakKIjLI8lJMjI/zIyMh8/PVVkcJysZrbGJCaluKbYfgqkJT+12rzRXGajUSSPMnTUeZZqMx9CgA5bwg8HcvEDl1cPSI8yeqI7DiwlxiWycbRMybyUf8qbmisnPQaUllkR50GAqqS1hmzhT0SYa35krJSTNtwkqUeSkq9HrIyFkADg0imts5EWJTPRJK3OQHXsV75NuxSfzS4uWbptLXo5r4xSTUWkotHMzzr8V1GInL+RNw7Hs4rj7zCZDjM6OlD7LZ5HklaTMlGkzIh0oAE5hCsdhYZXXOR5cA9N7JTkhDrpm4o1qc0kllnpLVls2Zcw5+VFG1et65VFdwLCU1Lr3JEdhx9t9s3nOLfczX+1cNJko1Geea1FmRbC7GADi3CLSPLxtIdg08smlstPqkNRUOtvPGaiPMuRPnpJJCMzNRc5ZFsHReDmO/EwXWsy9PlCUr4w1sqZMzNajMzSpCDLn/olnzkWRikAAAAABK8LHmsxl1LN+QsVQleFjzWYy6lm/IWAqgAAAAAAAAASvBp0cmddW3eMgA4NOjkzrq27xkAAcGnRyZ11bd4yBVCV4NOjkzrq27xkCqAAAAAAAAAAAAAAAAAAAAAAAAAAAAAAAAAAAAAAAAAAAAAAABK8GnRyZ11bd4yBVCV4NOjkzrq27xkCqAAAAAAABFWDlrUY/srKNh2ytoUyshx0uQnYqdBxp2UpRKJ55s+Z5GRkRlz+oZetFvuJiTt67xQqgASutFvuJiTt67xQa0W+4mJO3rvFCqABK60W+4mJO3rvFBrRb7iYk7eu8UKoAErrRb7iYk7eu8UGtFvuJiTt67xQqgASutFvuJiTt67xQxKzHE2zjLfg4JxI60h56OpXGwE5ONOKbcLbKLmWhRZ8x5ZlmW0WoleDTo5M66tu8ZABrRb7iYk7eu8UGtFvuJiTt67xQqgASutFvuJiTt67xQa0W+4mJO3rvFCqABK60W+4mJO3rvFBrRb7iYk7eu8UKoAErrRb7iYk7eu8UNJjezvr7Bd/UQ8D4gRJsK+REaU7IryQlbjakkajKUZ5ZmWeRGOigAAAAAAAAAAAlanzm4l6srvmSxVCVqfObiXqyu+ZLFUAAAAAAACKsHLWox/ZWUbDtlbQplZDjpchOxU6DjTspSiUTzzZ8zyMjIjLn9Qy9aLfcTEnb13ihVAAldaLfcTEnb13ig1ot9xMSdvXeKFUACV1ot9xMSdvXeKDWi33ExJ29d4oVQAJXWi33ExJ29d4oNaLfcTEnb13ihVAAldaLfcTEnb13ig1ot9xMSdvXeKFUACV1ot9xMSdvXeKDWi33ExJ29d4oVQAJXWi33ExJ29d4oNaLfcTEnb13ihVAAldaLfcTEnb13ig1ot9xMSdvXeKFUACV1ot9xMSdvXeKGkxvZ319gu/qIeB8QIk2FfIiNKdkV5IStxtSSNRlKM8szLPIjHRQAAAAAAAAAAASvBp0cmddW3eMgA4NOjkzrq27xkAAcGnRyZ11bd4yBVCV4NOjkzrq27xkCqAAAAAAAAABIROEWhmRWZUNrED8Z9CXGnWsPWCkOIUWZKSZMZGRkZGRkArwErr5Uex4k+HLH6Aa+VHseJPhyx+gAqgErr5Uex4k+HLH6Aa+VHseJPhyx+gAqgErr5Uex4k+HLH6Aa+VHseJPhyx+gAqgErr5Uex4k+HLH6Aa+VHseJPhyx+gAqgErr5Uex4k+HLH6Aa+VHseJPhyx+gAqgErr5Uex4k+HLH6Aa+VHseJPhyx+gAqgErr5Uex4k+HLH6Aa+VHseJPhyx+gAqgErr5Uex4k+HLH6Aa+VHseJPhyx+gAqgE/TYuqre1TWxismZqmVyEtzauVE020KQlRpN5tJKyNxGZEeflEKAAAAAAAAErwadHJnXVt3jIFUJXg06OTOurbvGQKoAAAAAAAABP3OLqqotVVskrJ6allEhTcKrlS9BtalpSajZbUSczbXkRnn5JjF18qPY8SfDlj9ABVAJXXyo9jxJ8OWP0A18qPY8SfDlj9ABVAJXXyo9jxJ8OWP0A18qPY8SfDlj9ABVAJXXyo9jxJ8OWP0A18qPY8SfDlj9ABuMRXtbhuqcsruUmJAbWhC31JUaUGtRJTpZEeRaSiLM9hZ7RFcE+LaCe1IpoFrFl2S7C2mEzHVxuTJ2Dxks1JzSkjJxBlmZZkojLMhnX+JsO31JOqbKvxI5CmsqYdTq5YZ6KiyMyPiNhlzkfoPIxzH/AMPNNV8G1Vaqs41+/bTZKk8a3hyxMijoMybIv2GzS2qP96SPakB9DgJXXyo9jxJ8OWP0A18qPY8SfDlj9ABVAJXXyo9jxJ8OWP0A18qPY8SfDlj9ABVAJXXyo9jxJ8OWP0A18qPY8SfDlj9ABVAJXXyo9jxJ8OWP0B5S+EWhhxXpUxrEDEZhCnHXXcPWCUNoSWZqUZsZERERmZmArwAAAAAAAAAStT5zcS9WV3zJYqhK1PnNxL1ZXfMliqAAAAAAAAAAAAAAAAAAAAAAAAAAAAAAAAAAAAAAAAAAAAAAABK8GnRyZ11bd4yADg06OTOurbvGQABwadHJnXVt3jIFUJXg06OTOurbvGQKoAAAAAAAASvBP5rMG9SwvkIFUJXgn81mDepYXyEAKoAGjxJimrw6phFi9k48eSUJNJqIv6RkZlknZzgN4A0iMSwHftE4yZEooPFaZxmje4wnEkpJoJOZqLIyzGBhbHdNiiW9HpinPKYdUw8tUNxCGnElmaVKMsiP/MBVANPcYlqKadGh2U1LD8jI0EaFGSSNRJI1qIjJBGoySRqMiMzyLaNXG4QKF9MtRPPkiOaE5kypZuqW880lLaUZqWo1ML2EXNkf7grAEy3jmhckVrPK1NrnuOstE82ppSXWzSSmlIWRKSvyiySZZmPB7hBw+3FsXkPS3Tr2lOyGyhPIUgko08j00kRHo5GRGZZ5kArQGFcWceogqlzEylMpPI+TRXZCi/PQbSpWX55ZENRV40p7UqlcBUxxq0dNqM45EdYJeTKntIuMSkzQaEnkpJGRmApAGmXienRQzblc1JV0NL633NFWaSZNROeTlpHkaFcxbctmewZtpZQ6qsesLCQ1Hhsp01uurJCSL0bTMiLMzIv3mAzAEjT8IeHbiPAerpzchEuUcQuKcbXxSyacdzXoqPRI0sr2jGTwnYcUm1UmTplAbW8eg40s30oIzM2ySszPYWe0iAW4AACVsvOnh7qWz+fAFUJWy86eHupbP58AbxFvXLuV1CJ8VVohrj1xEupN1LeZFpmnnIs1FtP1gM4AAAAAASvBp0cmddW3eMgVQleDTo5M66tu8ZAqgAAAAAAAStb508Q9S1nz543P23XcvlwuUp5VFbN15vRPNCciPPm/Mhpq7zp4h6lrPnzxyqFDcTiu0szrpiG3IyciOkltx0mrjSMm+MSk0LQRJUpxWaV8Zlop0AHYbDGOHa2JHlWNxDiR5DKZDS33NAlNq5lbfQNjUW0C4jqfq5bMplKtBS2lZkSsiPL+4yHE8SszZ1JhasjEU1+TSMOxoBlpNloJRpOrQ44hlwyUtORK0sth5bMxfcEj7j9TP/anxLEg45RlOuOKirSXlN6S1r2ZGky0VGRZ7PUQVDl/UIOQR2URSo77cZ5KHSUpp1xZIQhRFtSZqURER+sY6cW4fNqtcVdQGism0Ow0vPpbU+lf4TSlRkZ55kXNznlzjitvhy3iqw09JqFRmqmXEiTJLsjQ5S65bR1IdbSnPjdiVmeno5ceZ/iIyGzp8NTpnB/SHXR50mHd4fhw7JuO1HUokIbPR4tbrqDQoycVtyWRZZkST2mHXl4hp2m5Dj9lEYbYfOK4p90myS6RZ6GastuW0IeIKidMYiwbGLKefQ642TDhOEaWzQS9qcyLLjW9meflEOY19dLnVuMF1tY/9p3lm5BcblNRyKvLi8jeWtBmaySkzMi01ZnkREnMzGXRw7aPjbBtdObTAk1tZYsOOtJQpuc2hcAicSXOklllmR5GkyMtpZGYX9xinD9JKTGub2qr5KkE4TUuY20s0mZkSiJRkeWZHt/Ix7NX1U6TxosI5oZWy2tZrIkaTujxREo9h6WmjLIzzNRF6RD8KpSHLijZOVJJxTpu1UeEltC+VoSozddW6tKFNpQZlxfOrSPnyLKSjR2JuGcVxZcs4MtdvXm8mZKdcyeZKO8pJOpcdUklE2ejorM0ZlzGQDuTklhuS1HcebTIeJSm2zURKWSctIyLnPLMs/3kMe0tIdWhpc57ikur4tB6KlZq9WwjHJeD+THn4xg2DrzMRcc5cNEdVhLlLezWlKVp44skpMm9IjLaZKIZPDThl68tap6ZUVs2vJ1mLHUuUll5EhazJKjzjOZoSZkehpaJ/wA5KuYB0yTe10Yp5uycuQGkpBJQpRoNSSURZEWZ5kZHszH8hXtbNehMx5JKemMuSGEGhSVKQ2aCWeRkWWRuI2HkflEOO3dSTWF8WMXTETSr5Nbptx2eMQaUtMo0EaKUKTmk8s2ySZZnol6DycA1lWxjHDUCMue29Eh2crRTCkQUGS34mig1L0VOklJJT5WlpZEasvJIB1S5xRQUcgmLq8q6980caTcqW20o0ZmWlkoyPLMj2/kYzoljEmSJLEV9LrsY0k6Sc/J0kkpO3mPNJkewc64YYy62FbXLM6Qzy6uKtfaS0lTZoSbhkZq0VKSZ8csiySeZkRZDZcEstFtCn3LZKQU42DNGiZoRoNE3kSzIjUfk5nmlJkZ5ZbAFGxivDsiyKvj31S7PNZtlGRMbU7plzp0CPPMsj2ZegaXhEnxbXgZxPYV7xPw5VBKfZdIjIloVHUaT27dpGQnW4JT8Z3cqzxC1FmtutwJ0Vt1UVHJkpS+yTLiHEuEtJumZrzIlaa06OREY95kJ+t/8M0uDMSlEmNhNxl1KVpWRLTEMjIlJMyPaR7SMyAdPAAAAAAAAABK1PnNxL1ZXfMliqErU+c3EvVld8yWKoAAAAAAAAAAAAAAAAAAAAAAAAAAAAAAAAAAAAAAAAAAAAAAAErwadHJnXVt3jIAODTo5M66tu8ZAAHBp0cmddW3eMgVQleDTo5M66tu8ZAqgAAAAAAABK8E/mswb1LC+QgVQleCfzWYN6lhfIQAqhzHhVorO+ta9uNVWU2JHWy8Rx1xWkIWSzM16a3CcNaS2pSaeLz2q0uYunAA43Niyl0eM/tGLMU4xyRbsYmGnHHiS0RZGlPkZHsUejmWRGWR8wwODplTuNICDlQJTjaXHm5FYpuSmO2WX7BayZbNpBkoySgsyIyPIi5x3MAHO8f4Strqzs/sxMJca4rmK59ySo/8AZSaecXpkjLy80uq8nNO1KdpEeZSWBMNSpJ30JxriLGKhh+KtvOIlt1M6wNKkZpc0U5K2EZLLRVltIx3EAHJ4NDPhYzoG7SIRPf7bOKTGt3VrkP5M58dk02WiZEktEvJyLLRyIYWKMPYjr8KYxs578V472vedsoza1f7I6lo0tcQeXlloEhCs8szSSiyzNI7KACWxrBcawLOZaetZDcZhbjrUZRKkzEJSZmySzIzI182ZeV6jI9o5jgpqGrG+H1Qo9W8iOt99H2Y8cpde3xDieTqUbKFIazWZpJSjyVkkkkX4e7gA+frTCipS5tUildOqsWpq35zmGkqltOvOEpKUr0szPJx3JWWzQSOxX0GbfYZTHq5q6p18kGbjzLmmlHOackONqSZ82ZKLLaN+ADiuFKSdXJwJJe5LHjSrc3CrosZ5pqMoocwjNKXHVknPPMyIkkZnme09sfZTKmui4wjuxpjkxabCr0Ckw21SEm8ZE47msnXV5ILRNSDMiUZFpZ5n9NAA8YUSPBiNRYTDUeM0nRbaaSSUoL1ERbCIewAA5vwk0k7EOL6itq7yZRS3qSyJM2IRGtH7eBs25Hl/VNJ/mQ57wMcE2LcGYpxBHs7idFYmtoeatq04rqXzSo80OE+0taVHpkrYRFsVtVkQ7BZedPD3Utn8+AKoBK6r2+/eJOwrvChqvb794k7Cu8KKoAErqvb794k7Cu8KGq9vv3iTsK7woqgAcw4PcOWj1DKU3jTEDCStrNGg2zAMjNM98jV5UYzzUZGo9uWZnkRFkRUuq9vv3iTsK7wocGnRyZ11bd4yBVAJXVe337xJ2Fd4UNV7ffvEnYV3hRVAAldV7ffvEnYV3hQ1Xt9+8SdhXeFFUACFwnAk13CTiRqZbTrVxVTWrJ6YhlK0lx04tEiabQnLYZ7Sz2nt5srlaUrQpC0kpKiyMjLMjL1CWrfOniHqWs+fPFUAwJ1LVz4jUWdWwpMVkiJtl5hC0IIiyLJJlkWwZMOJHgxkR4TDUeOgskNNIJCU/uIthD2AB/FpSsslpJRZkeRlntI8y/xH4jMMxY7UeM02yw0kkNttpJKUJLYRERbCIvUPQAHmywywbnENNt8Ys3F6CSLSUfOo8uc9hbQVHZVJbkKabN9tKkIcNJaSUqMjURHzkRmlOZenRL1D0ABM4znw2119XMoXL1U9SzRGJDKklxaczNXGqSn0/vHnS3MCFeRsNs1SalxyEmY3HSlBEkzUsjRk3mgjLQzzI8jzGBwu1xzsOsOMVz02W1IQTamEJUtlKjyWoiNl3Zlz5IM/3DScEVZMg3c9cll9lg4iG2kOwjZyMnFKV5RRWEnnp82Sj5zzAdUH5cbQ4SeMQlWiZKLSLPIy5j/eP0ADFkVsGS1JbkwozzcnLj0uNJUTuRERaRGXlZERc/qGLWYepamQp+rp66E+pJoNyNGQ2o05keWaSI8thbPyG0ABiyq6FLlRpMqHGfkRjM2HXGkqW0Z5ZmkzLNOeRc3qIf2LXwokmTJiw47MiSZG+620lK3TLPI1GRZqyzPn9ZjJABgyqeslvKelV0N55WWa3GEqUfo5zIaDhSabY4JsXtMNobaRSTCShBERJLiF7CIhWiV4WPNZjLqWb8hYCqAAAAAAAAABK1PnNxL1ZXfMliqErVec7EnVld8yYKoAAAAAAAAAAAAAAAAAAAAAAAAAAAAAAAAAAAAAAAAAAAAAAAErwadHJnXVt3jIAODTo5M66tu8ZAAHBp0cmddW3eMgVQleDTo5M66tu8ZAqgAAAAAAABzXg9xZCqMA4arbCuxIzNh1kaO+3q9PVoOIaSlRZkyZHkZHtI8h0oAErr5Uex4k+HLH6Aa+VHseJPhyx+gKoAErr5Uex4k+HLH6Aa+VHseJPhyx+gKoAErr5Uex4k+HLH6Aa+VHseJPhyx+gKoAErr5Uex4k+HLH6Aa+VHseJPhyx+gKoAErr5Uex4k+HLH6Aa+VHseJPhyx+gKoAErr5Uex4k+HLH6Aa+VHseJPhyx+gKoAErr5Uex4k+HLH6Aa+VHseJPhyx+gKoAErr5Uex4k+HLH6Aa+VHseJPhyx+gKoAELBtWr7hJqZUCHbojRame267Mq5MRCVuPQzQkjebSRmZNrPIs/wAJi6AAAAAAAAASvBp0cmddW3eMgVQleDTo5M66tu8ZAqgAAAAAAAQs61aoeEm2lT4duuNKqYDbTsOrky0KW29MNaTNltREZE4g8jy/EQ2GvlR7HiT4csfoCqABK6+VHseJPhyx+gGvlR7HiT4csfoCqABK6+VHseJPhyx+gGvlR7HiT4csfoCqABK6+VHseJPhyx+gGvlR7HiT4csfoCqABK6+VHseJPhyx+gGvlR7HiT4csfoCqABK6+VHseJPhyx+gGvlR7HiT4csfoCqABK6+VHseJPhyx+gGvlR7HiT4csfoCqABK6+VHseJPhyx+gGvlR7HiT4csfoCqABK6+VHseJPhyx+gJ/hCxZCt8A4lra+uxI9NmVkmOw3q9PTpuLaUlJZmyRFmZltM8h0oAAAAAAAAAAAErVec7EnVdd8yYKoStV5zsSdV13zJgqgAAAAAAAAAAAAAAAAAAAAAAAAAAAAAAAAAAAAAAAAAAAAAAASvBp0cmddW3eMgA4NOjkzrq27xkAAcGnRyZ11bd4yBVCV4NOjkzrq27xkCqAAAAAAAAAAAAAAAAAAAAAAAAAAAAAAAAAAAAAAAAAAAAAAABK8GnRyZ11bd4yBVCV4NOjkzrq27xkCqAAAAAAAAAAAAAAAAAAAAAAAAAAAAAAAAAAAAAAAAAAAAAAABK1XnOxJ1XXfMmCqErVec7EnVdd8yYKoAAAAAAAAAAAAAAAAAAAAAAAAAAAAAAAAAAAAAAAAAAAAAAAErwadHJnXVt3jIAODTo5M66tu8ZAAHBp0cmddW3eMgVQleDTo5M66tu8ZAqgAAAAAAAAASEThFoZkVmVDaxA/GfQlxp1rD1gpDiFFmSkmTGRkZGRkZAK8BK6+VHseJPhyx+gGvlR7HiT4csfoAKoBK6+VHseJPhyx+gGvlR7HiT4csfoAKoBK6+VHseJPhyx+gGvlR7HiT4csfoAKoBK6+VHseJPhyx+gGvlR7HiT4csfoAKoBK6+VHseJPhyx+gGvlR7HiT4csfoAKoBK6+VHseJPhyx+gGvlR7HiT4csfoAKoBK6+VHseJPhyx+gGvlR7HiT4csfoAKoBK6+VHseJPhyx+gGvlR7HiT4csfoAKoBP02Lqq3tU1sYrJmaplchLc2rlRNNtCkJUaTebSSsjcRmRHn5RCgAAAAAAABK8GnRyZ11bd4yBVCV4NOjkzrq27xkCqAAAAAAAAAT9zi6qqLVVbJKyempZRIU3Cq5UvQbWpaUmo2W1EnM215EZ5+SYxdfKj2PEnw5Y/QAVQCV18qPY8SfDlj9ANfKj2PEnw5Y/QAVQCV18qPY8SfDlj9ANfKj2PEnw5Y/QAVQCV18qPY8SfDlj9ANfKj2PEnw5Y/QAVQCV18qPY8SfDlj9ANfKj2PEnw5Y/QAVQCV18qPY8SfDlj9ANfKj2PEnw5Y/QAVQCV18qPY8SfDlj9ANfKj2PEnw5Y/QAVQCV18qPY8SfDlj9ANfKj2PEnw5Y/QAVQCV18qPY8SfDlj9AeUvhFoYcV6VMaxAxGYQpx113D1glDaElmalGbGREREZmZgK8AAAAAAAAAErVec7EnVdd8yYKoStV5zsSdV13zZgqgAAAAAAAAE/c4uqqi1VWySsnpqWUSFNwquVL0G1qWlJqNltRJzNteRGefkmMXXyo9jxJ8OWP0AFUAldfKj2PEnw5Y/QDXyo9jxJ8OWP0AFUAldfKj2PEnw5Y/QDXyo9jxJ8OWP0AFUAldfKj2PEnw5Y/QDXyo9jxJ8OWP0AFUAldfKj2PEnw5Y/QDXyo9jxJ8OWP0AFUAldfKj2PEnw5Y/QDXyo9jxJ8OWP0AFUAldfKj2PEnw5Y/QDXyo9jxJ8OWP0AFUAldfKj2PEnw5Y/QDXyo9jxJ8OWP0AFUAldfKj2PEnw5Y/QHlL4RaGHFelTGsQMRmEKcdddw9YJQ2hJZmpRmxkRERGZmYCvAAAAAAAAABK8GnRyZ11bd4yADg06OTOurbvGQABwadHJnXVt3jIFUJXg06OTOurbvGQKoAAAAAAAASvBP5rMG9SwvkIFUJXgn81mDepYXyEAKoAAAAaW1xPV1c7kcxyUUjR09FuG86Rl680IMvSXp9IKxNXfY7No2Vg/EdXoIOPXSHVme3bxaEGsi2fiMsubbtIBugGjqsVVdpIlMRjnNvxmSfdalV8iMsmzMyJRE4hJqLNJlsz5h5M4yo3pUeOUp5Dr7hNNE7EebJSz5k5qQRZn+8BQgJmxxxTV05yHLOe1IRpZE5AfbS4SVpQZocUgkLIjWn8Kj2HmQ3FJaMXNa3OiEsmXFLSWmWR5pUaT/xSYDOAT54uqjqHLJpxx2M3YlVqNCdpPnJKNlkfo4xRbfVtG3KfGOzVXE6XLCZKQbeR/wAmajSR583ORkAyQGph4hrpOGivlvcmrOJU+t2Rkji0JzzNW3ZlkYwIuN6SWlHJXZCnFSWYxtORnGHUKdz0FKQ4SVEg8jyVlkeR5Z5AKUBqpl/XRaqbYKe4yNDcU08baTM0rSrRNOXrIx7UlpHuYBy4hLJonnmPLLI9Jp1Tav4aSDy/LIBngAAJWy86eHupbP58AVQlbLzp4e6ls/nwBVAAAAAAAAleDTo5M66tu8ZAqhK8GnRyZ11bd4yBVAAAAAADBVb1yLlNQufFTaLa49MRTpE6pvMy0yTzmWaT2l6gGjrfOniHqWs+fPFUJWt86eIepaz588VQAADCt7OLUQVzJ63ER0HkpSGluGX8EkZ5fnkAzQGmqsTVlrNOJCXKN8kaZpdhvNESfXmtBF//AAGAvHVK0aOPRdR0KcS0Tj9JNabJSlElOa1NEkszMizM8toCoAaezxLWVktUaY5IS8REZkiI64WR/mlJl/iMabjKmh0rNut2Y9XOoW4T8aA++lKUfiNfFoM0EW38WXMfqMBQgNDTYrrbi0cgQTeU6hDizUpGSTJCyQf586i9AzpFxCj3sKodd0Z0xl59lGX4kNGgl7fX+0Ts9O31ANgA00fEta9USbNbi2YceW9DcW4g8ycbfUwrYWew1pPI/UZHsGWVpHO9XUkS+VJjFKM8vJ0DUaS2+vMjAZwDQP4wo2Lz7IdmmU0nUMKyYcNpDqyI0NqdJPFpWolJyQaiUeZZFtIZNViGvs2YK2HFIVN43iG3CyUsm1aK/wC4/wDMBtgGkg4nr5t+unY445aCfNRmjJJcUppKyzz9byMv4jdgAleFjzWYy6lm/IWKoSvCx5rMZdSzfkLAVQAAAAAAAAAJWq852JOq675swVQlarzn4k6qrvmzBVAAAAAADBVb1yLlNQufFTaLa49MRTpE6pvMy0yTzmWaT2l6gGjrfOniHqWs+fPFUJWt86eIepaz588VQAADCt7OLUQVzJ63ER0HkpSGluGX8EkZ5fnkAzQGmqsTVlrNOJCXKN8kaZpdhvNESfXmtBF//AYC8dUrRo49F1HQpxLROP0k1pslKUSU5rU0SSzMyLMzy2gKgBp7PEtZWS1RpjkhLxERmSIjrhZH+aUmX+IxpuMqaHSs263Zj1c6hbhPxoD76UpR+I18WgzQRbfxZcx+owFCA0NNiutuLRyBBN5TqEOLNSkZJMkLJB/nzqL0DOkXEKPewqh13RnTGXn2UZfiQ0aCXt9f7ROz07fUA2ADTR8S1r1RJs1uLZhx5b0NxbiDzJxt9TCthZ7DWk8j9RkewZZWkc71dSRL5UmMUozy8nQNRpLb68yMBnANA/jCjYvPsh2aZTSdQwrJhw2kOrIjQ2p0k8WlaiUnJBqJR5lkW0hk1WIa+zZgrYcUhU3jeIbcLJSybVor/uP/ADAbYBpIOJ6+bfrp2OOOWgnzUZoySXFKaSss8/W8jL+I3YAJXhY81mMupZvyFiqErwseazGXUs35CwFUAAAAAAAAACV4NOjkzrq27xkAHBp0cmddW3eMgADg06OTOurbvGQKoSvBp0cmddW3eMgVQAAAAAAAAleCfzWYN6lhfIQKoSvBP5rMG9SwvkIAVQAADnGL27J/Frc6Cq2ZVEivQ2zZqieQaXTbUsyVxhZ7WkZbNmR841c6tlOYJw7TsotUfZLySRxlQtSHWm2VNpQttt5J5ZOJMj0udHMOtgA5XwanYVyHZtpQrZnvxUcaxEqnWVJUR56HGuSFksiNR5Fkn0mNxiOxmWrlRxeHrtDcSe3LdJTTWakoSrIi/ac+kaf4EYvAAfP+LKGvgYuvoKDqm0ylcqfcs5LEc5HHuKcU2SihrcUgjSWw3PURlkQ6Twbw25nBfAiNE7XsuodSRRHcjaSbq/5NZJTkWXMZER5ZcwtwAfNlRZNSFwGa1FfEhyplet2KpLcbyWZDSyWpJznDJ0ktlmfFmpWiST9ZdWaoMSa6nihUiGl1S/s9Vca1G1yAl5kvTyz4/SzXzaOR6H/ML0AELhKqYuOCKLWT0u8RJhracJB6KyIzVtI/QZc5fmI+vj1GKIVRLtLN2bcWTleuXHs2iI0NtmpZRyShpKdIlOrzMyLMzPmIiIu1AA5XiSmxFEwtiavTAgOVsyU9IQ/HmOHJJLiyURE0TOWZbP5/5im4KmDjYOSyZuK0J9gklOGalGXLHsjMz2mZ+sVwAAAACFxZAk2PCThtqHbTqpxNTZLN6GhlS1Fx0EtEydbWnLaR7Cz2Ft589hqvb794k7Cu8KFl508PdS2fz4AqgErqvb794k7Cu8KGq9vv3iTsK7woqgASuq9vv3iTsK7woar2+/eJOwrvCiqABzDg9w5aPUMpTeNMQMJK2s0aDbMAyM0z3yNXlRjPNRkaj25ZmeREWRFS6r2+/eJOwrvChwadHJnXVt3jIFUAldV7ffvEnYV3hQ1Xt9+8SdhXeFFUACV1Xt9+8SdhXeFHH+GfgmxbjPFWH49ZcTpLEJtbzttZHFaSwalFkhsmGkLUotA1bSMtqdqczH0UADm/BvSTsPYvt620vJl5KZpK0lTZZES1/t5+zZmeX9Y1H+ZjpAla3zp4h6lrPnzxVAAl+EiO5YYTnVbaZhosWlxHVRYpSFJbWg0q8k1FlsPYfrFQADm+GnLGFiSbaT27iUuVFbYcSdSTXks8YpGRk4Z55uL2ZbTUXMIqmo7aFJiwpVcc2FEZYWmbIoZK3n3UqPPSLleWkWihWllkZq5tg76ADQSMRvNPKQnD926kuZbbTeir92ayP/ActxNQNJwHh6TcQVomVjyoZtz0R0smchaDW6rjGnyJJGWw9HPnL0juIAON8EzDDePrB1tNY9JehLdemQZZSONM3U7HDJhoiUWWzIsss8iIeXCc5GrcaeSv/eDjTU1EuSlJqYyU4lKGXFS2NBORK0kJSeZLPSM9LIu0gA5BT0drjDAcerKVEhV82fNmWEuG6lbpKOUt5tLZEpaUmpSkqV5aiSRGnbnmVNh0rTXv/fqY32gmlQh5cU1G0sykOESk6RZlmWR6O3LPLM8szuQActuotTGxvZwrWxsYVY45DuVR9FKmJMklnzHxZrIknHaUpJLyMzLmIzJX9w7hudAhYfssMR6eYtlc1cnjJDkZLxvLLJZKJpRmZaOR5pLm5x1EAHJcEQZjHCvLlT2nWn5LFgpbZOKWyk+MhfyekRbDPPbkWeX5DrQAACV4WPNZjLqWb8hYqhK8LHmsxl1LN+QsA1Xt9+8SdhXeFDVe337xJ2Fd4UVQAJXVe337xJ2Fd4UNV7ffvEnYV3hRVAAldV7ffvEnYV3hQ1Xt9+8SdhXeFFUADmFbhy0Vwi37RY0xAlxFbAUbxMwNNZG5LySecbRyLIzLIiPyjzM9mVLqvb794k7Cu8KFV5z8SdVV3zZgqgErqvb794k7Cu8KGq9vv3iTsK7woqgASuq9vv3iTsK7wo4/wz8E2LcZ4qw/HrLidJYhNredtrI4rSWDUoskNkw0halFoGraRltTtTmY+igAc34N6Sdh7F9vW2l5MvJTNJWkqbLIiWv9vP2bMzy/rGo/zMdIErW+dPEPUtZ8+eKoAEvwkR3LDCc6rbTMNFi0uI6qLFKQpLa0GlXkmosth7D9YqAAc3w05YwsSTbSe3cSlyorbDiTqSa8lnjFIyMnDPPNxezLaai5hFU1HbQpMWFKrjmwojLC0zZFDJW8+6lR56Rcry0i0UK0ssjNXNsHfQAaCRiN5p5SE4fu3UlzLbab0VfuzWR/4DluJqBpOA8PSbiCtEyseVDNueiOlkzkLQa3VcY0+RJIy2Ho585ekdxABxvgmYYbx9YOtprHpL0Jbr0yDLKRxpm6nY4ZMNESiy2ZFllnkRDy4TnI1bjTyV/7wcaamolyUpNTGSnEpQy4qWxoJyJWkhKTzJZ6RnpZF2kAHIKejtcYYDj1ZSokKvmz5sywlw3UrdJRylvNpbIlLSk1KUlSvLUSSI07c8ypsOlaa9/79TG+0E0qEPLimo2lmUhwiUnSLMsyyPR25Z5ZnlmdyADlt1FqY2N7OFa2NjCrHHIdyqPopUxJkks+Y+LNZEk47SlJJeRmZcxGZK/uHcNzoELD9lhiPTzFsrmrk8ZIcjJeN5ZZLJRNKMzLRyPNJc3OOogA5LgiDMY4V5cqe060/JYsFLbJxS2UnxkL+T0iLYZ57cizy/IdaAAASvCx5rMZdSzfkLFUJXhY81mMupZvyFgKoAAAAAAAAAErwadHJnXVt3jIAODTo5M66tu8ZAAHBp0cmddW3eMgVQleDTo5M66tu8ZAqgAAAAAAABzXg9xZCqMA4arbCuxIzNh1kaO+3q9PVoOIaSlRZkyZHkZHtI8h0oAErr5Uex4k+HLH6Aa+VHseJPhyx+gKoAErr5Uex4k+HLH6Aa+VHseJPhyx+gKoAErr5Uex4k+HLH6Aa+VHseJPhyx+gKoAErr5Uex4k+HLH6Aa+VHseJPhyx+gKoAErr5Uex4k+HLH6Aa+VHseJPhyx+gKoAErr5Uex4k+HLH6Aa+VHseJPhyx+gKoAErr5Uex4k+HLH6Aa+VHseJPhyx+gKoAErr5Uex4k+HLH6Aa+VHseJPhyx+gKoAELBtWr7hJqZUCHbojRame267Mq5MRCVuPQzQkjebSRmZNrPIs/wAJi6AAAAAAAAASvBp0cmddW3eMgVQleDTo5M66tu8ZAqgAAAAAAAQs61aoeEm2lT4duuNKqYDbTsOrky0KW29MNaTNltREZE4g8jy/EQ2GvlR7HiT4csfoCqABK6+VHseJPhyx+gGvlR7HiT4csfoCqABK6+VHseJPhyx+gGvlR7HiT4csfoCqABK6+VHseJPhyx+gGvlR7HiT4csfoCqABK6+VHseJPhyx+gGvlR7HiT4csfoCqABK6+VHseJPhyx+gGvlR7HiT4csfoCqABK6+VHseJPhyx+gGvlR7HiT4csfoCqABK6+VHseJPhyx+gGvlR7HiT4csfoCqABK6+VHseJPhyx+gJ/hCxZCt8A4lra+uxI9NmVkmOw3q9PTpuLaUlJZmyRFmZltM8h0oAAAAAAAAAAAErVec/EnVVd82YKoStX5z8SdVV3zZgqgAAAAAAAQs61aoeEm2lT4duuNKqYDbTsOrky0KW29MNaTNltREZE4g8jy/EQ2GvlR7HiT4csfoCqABK6+VHseJPhyx+gGvlR7HiT4csfoCqABK6+VHseJPhyx+gGvlR7HiT4csfoCqABK6+VHseJPhyx+gGvlR7HiT4csfoCqABK6+VHseJPhyx+gGvlR7HiT4csfoCqABK6+VHseJPhyx+gGvlR7HiT4csfoCqABK6+VHseJPhyx+gGvlR7HiT4csfoCqABK6+VHseJPhyx+gGvlR7HiT4csfoCqABK6+VHseJPhyx+gJ/hCxZCt8A4lra+uxI9NmVkmOw3q9PTpuLaUlJZmyRFmZltM8h0oAAAAAAAAAAAErwadHJnXVt3jIAODTo5M66tu8ZAAHBp0cmddW3eMgVQleDTo5M66tu8ZAqgAAAAAAAAAAAAAAAAAAAAAAAAAAAAAAAAAAAAAAAAAAAAAAASvBp0cmddW3eMgVQleDTo5M66tu8ZAqgAAAAAAAAAAAAAAAAAAAAAAAAAAAAAAAAAAAAAAAAAAAAAAAStX5z8SdVVvzZgqhK1fnPxJ1VW/NmCqAAAAAAAAAAAAAAAAAAAAAAAAAAAAAAAAAAAAAAAAAAAAAAABK8GnRyZ11bd4yADg06OTOurbvGQABwadHJnXVt3jIFUJXg06OTOurbvGQKoAAAAAAa++uIVDWLsLNbqIyFtt/smVvLUtxaW0JShBGpRmpSSIiI+cBsAErr5Uex4k+HLH6Aa+VHseJPhyx+gAqgErr5Uex4k+HLH6Aa+VHseJPhyx+gAqgErr5Uex4k+HLH6Aa+VHseJPhyx+gAqgErr5Uex4k+HLH6Aa+VHseJPhyx+gAqgErr5Uex4k+HLH6Aa+VHseJPhyx+gAqgErr5Uex4k+HLH6Aa+VHseJPhyx+gAqgErr5Uex4k+HLH6Aa+VHseJPhyx+gAqgErr5Uex4k+HLH6Aa+VHseJPhyx+gAqgErr5Uex4k+HLH6Aa+VHseJPhyx+gAqgErr5Uex4k+HLH6A3VDcQr6sRYVi3Vxlrcb/asrZWlba1NrSpCyJSTJSVEZGRcwDYAAAAAACV4NOjkzrq27xkCqErwadHJnXVt3jIFUAAAAAAAAAAAAAAAAAAAAAAAAAAAAAAAAAAAAAAAAAAAAAAACVq/OfiPqqt+bNFUJWr85+I+qa35s0VQAAAAAAAAAAAAAAAAAAAAAAAAAAAAAAAAAAAAAAAAAAAAAAAJXg06OTOurbvGQAcGnRyZ11bd4yAAODTo5M66tu8ZAqhK8GnRyZ11bd4yBVAAAAAJXhL6OQ+uqnvGOKoSvCX0ch9dVPeMcBVAAxrOc1XQnJUhEhbaMs0x47j6zzMi2IQRqPn9BbOfmAZICXqsdUtsmsXXnPcasZPJY7jsF5hKl8U67mRuJTmWiyvanPI8i9I3cq0hRbODXyH0omTScOO0ZHm4SCI15ejYRlzgM0BjWM1iuhuSpalIYby0jShSzLMyItiSMz2mJtPCFh55UHkkl2UiabZMuNMqJKiW600kyNWWZaT7e0vRn6gFaA0NhimLAkPNPQblfEmektqtecQeXpJRJyMvzIHsV1jdbXT0osn4tgymQwuJWyZOaFESiNRNtq0MyUWxWR8/qMBvgE43jOmcprOzQ7IRHrXCZlJkxnIq2lmlCiI0vEgy8lxB582ShgYe4R8P4guWauufW5LeStaSI0KLJJZnmaVHl/EBZANLb4op6eezCsZZsyXv5JHErVp7DPIjJJkZ5JM8vUQwoeOaOTEmyjfWxGicXxjjqMszcUaEJSRZmajUnIiIszMyIs8wFOAm4+NaSQuKlp90jekriqS8ythTC0sqfPjUOElSC0EGe0vSXoPMa+Pwm4XkosTjWDTyoX4kNuNqU6WeWbZEryiLnz9RkAtAAauhvq6+KcdXJS+UKU5Cf0f5jqPxF/iA2gCWax5QPsynI8l9xLMV2ak+TOITIZbLy1MrWkkukWZbUmfOXoMjFLFeTJjNPt56DqCWnPnyMswHoJXg06OTOurbvGQKoSXBy4hnDE915aW20XFupS1HkSSKwk5mZ+ggFaAxKmzg3EBudUzI82E6aibfjuEtC9FRpPJRbD2kZbPUMsAAAASvBp0cmddW3eMgVQleDTo5M66tu8ZAqgAAAAEJc43nVeNW6FysgLS5HXMS4ic6t3iUqIj/YoYUZuGWmaUEZ6RNq27BdiEsKORGxJYuMYbiWdZKOPMSZuNocTMQpzScNSvKPyeKJO3IiIyLIjPMNTa8JsiDhOmtyiRSOxspUP/AGlzkyW0NKfJKj4w05KMmizJRkeZns9AyqDhDfs8M4ltEMV8p6phqktx4UtDxumSFqJJ6Cl6OZoIi2ek+cY9/hKydwtXM1Uacw8ma+7Kabn5PpadcdcUTZkpLRq01Jy0+ZOZc4wMN4It4eHcQxG4stlJQSZpm587NxDhJVklaWVm0lBKS1lo7ctIj2AN1XY+lybmoh6NJJTNkcSsoUxxxxotBStM0m0RZZpIucuceTvCWtOJ7GqTXJLiGnDbI5DRu6aE6R6aCXzFtM8s1EWR5bQw9hZxm5edm0U5DL7yHEmu2NaYxJQkjJKSXmZGpJq/eoxiyuDm4K3m2TVtXrQvjnmq/kj/ABTb7hOE463pSdFDi0uGk1GkyLMzIiNSswvK6xmWGFodjCZiuzZEVt5LTjpttGpSSMyNRJUZFtP0GIqNwkyVS6opsKvYgzZUdtMuNJckNuNPRn3kqTm02ZKzaQXMexY3zOGjj8GbdLCiNxZjcAiQ1HWbCSkEjPM1NmXOvnPPbtzzGioMLFFlYeJGF5daVa8l0nEz23EFky41o6JrM9AidMyJOXMQD1Xwjvs2q21VceVXIW8hUmJKUWgbatHylPttNEZns/lecjIsxT4Rupd7gOnu+Ts8unVzUviErNCOMW2StHSPMyLM8s9v8RMQ6GTSYitHI9BYToByeOhE3aq4lJLQk3M2XHdHM3VOn+HLaWQoqmmdr8AQaSvaNtUeC3DQia7mokJSSMlray8rRI9qctvMA1lNjKxspdS2dREbasTdNtaZylKJLaiJw9Hii5s+YzLMY15j2XAs50aJEpJKIqzQenYyEuZkRHkpKYqyJW3m0jGNW4El186JKjQaRt2Mo1NKTJlnoaSiUrIjXltMiMy5jMto8bTAt5KuznRJLUNt19b8lmNcWDKJBqTokZpQskpMskn5JFnkAr2ri2l0lTPr6VDi5kZD7rD8rilMGpKVaH4DzMszLmLmGmk45kRqy4dkVbTM6usGq42FPuupdW4004nRNplazPJ5JZEg9pH+8bRmLiaPCiMRX6hBNNEhZPk/IUZkZkR8YpZKV5Ojmaszzz2mNJYYTtHsOYrZkt086bZEuZHQcfSSUwmkoaUZOmpORcW3lmXoAYFVwk2MzFdLTTaRVe9PNs1ocbeM20qTOMz0lIRomfJG1JJZJUZLVs8kzLp45BhzBtnX4noZMeunRozEnjJfKEVqGtBLEhKTSmO2lWkS3z/gtWY6+AAAAAAAAAAAAAAAAACVq/OhiPqmt+bNFUJWr86GI+qa35s0VQAAAAAAAAAAAAAAAAAAAAAAAAAAAAAAAAAAAAAAAAAAAAAAAJXg06OTOurbvGQAcGnRyZ11bd4yAAODTo5M66tu8ZAqhK8GnRyZ11bd4yBVAAAAAJXhL6OQ+uqnvGOKoSvCX0ch9dVPeMcBVDTYxadewxZEw7YNrQypzKvNJSHCSWkbaDMjyUoiNJGW0s9hke0bkAHA8OMV9rc4XqW4Va9TFPOf9kxJCpbdcpMV9OTiFsp4tJqcIzzPY4SdFPlGYoLeIiZfsSZNXiiatanFKsFxzQ/ByyNpMbQ0SQWZmSvJM1lsWaiHXAAT77tu5g8vsbjHbZbSWm3LJJMqJRnom64lKSLMtqtEiLPLIssxyB7CFhha6w/BfW9MiRFxIsaVxzqyUymwhcWSkH5DSyIlEZI2K0NI+fIu/gA4Xi2ZbFiiUp27cZXXcbHYanSWWHZCHEpNXFoTCWSkmREST0lHsPPI8xl4kqZjsfB5w4FnLRHiEy81NqyeJllwkqLNLam0k43oJRkRcyj/AHjtIAOJkxIY4LLtFlXv1TxyEvutxKxuOl7NxLaM+NNxKtiW1GrZo5FtIiGs4MzmOY5rUcum8WfGKWapcBeeSTPR0W0moyPaR5ZZFtzHfwAQWPsO3+ILqDIr3WI8WpSb8dHKFtKlvOJU2tCloLSaSTSlkS0mZ6SyP+bkcZg2kfeprevOvsHXkHCW2Tb6Wn2VtuurQ6S3dhmlSUn5Weee0jIzHcAAchoau7hXeEXcTRlqt5Vit2bMW+25xrhV8hGSUoSlKEERERF+e3MzMz0EWDHXS3MWfiJRS3G3q1bMlp9tT60SMuUOnpLLSNLZ6JoJJZL5ssiT30AGhxFRPT8PN1dZKRFQk0Eanzfc0kJ/mmaHW1nnszzUZGWZGR5iPwZQ2Ei2TPP7BhJqpLlcSINc/HN1lszSSTykaJp8ozIlJWST2ltHTgAcivMJWlJS2qokRiZVwa2VFgNyLZZHFjKRtS2go3PkhJFpqWZZZErIdRpcvseBkRkXEN7D5y8khmAAD5rxtwV4kx/hWU7RYmeaabt7X/c8g9CM4orGQekSk/zvVpkrafOkh9KCV4NOjkzrq27xkAJvg5wjfxsC0kadiTEVLKjxksOQEN1y0sqR5J6KijqzSeWZGajPIyzMzzFJqvb794k7Cu8KKoAErqvb794k7Cu8KGq9vv3iTsK7woqgAcw4PcOWj1DKU3jTEDCStrNGg2zAMjNM98jV5UYzzUZGo9uWZnkRFkRUuq9vv3iTsK7wocGnRyZ11bd4yBVAJXVe337xJ2Fd4UNV7ffvEnYV3hRVAAldV7ffvEnYV3hQ1Xt9+8SdhXeFFUACV1Xt9+8SdhXeFDVe337xJ2Fd4UVQAJXVe337xJ2Fd4UNV7ffvEnYV3hRVAAldV7ffvEnYV3hQ1Xt9+8SdhXeFFUACV1Xt9+8SdhXeFDVe337xJ2Fd4UVQAIyvTa1GPK6slYgsbaHNrZklSJrUZJtradipSaTZabPmeXmR5+jmFmJWy86eHupbP58AVQAAAAAAAAAAAAAAAAAAAAAAAAlavzoYj6prfmzRVCVq/OhiPqmt+bNFUAAAAAAAAAAAAAAAAAAAAAAAAAAAAAAAAAAAAAAAAAAAAAAACV4NOjkzrq27xkAHBp0cmddW3eMgADg06OTOurbvGQKoSvBp0cmddW3eMgVQAAAACV4TSc1WbcajyZHEWdbIW3GYW85xbc5hazJCCNSskpUeREZ5EYqgASuvlR7HiT4csfoBr5Uex4k+HLH6AqgASuvlR7HiT4csfoBr5Uex4k+HLH6AqgASuvlR7HiT4csfoBr5Uex4k+HLH6AqgASuvlR7HiT4csfoBr5Uex4k+HLH6AqgASuvlR7HiT4csfoBr5Uex4k+HLH6AqgASuvlR7HiT4csfoBr5Uex4k+HLH6AqgASuvlR7HiT4csfoBr5Uex4k+HLH6AqgASuvlR7HiT4csfoBr5Uex4k+HLH6AqgASuvlR7HiT4csfoBr5Uex4k+HLH6AqgASuvlR7HiT4csfoBwZE5qs447Hkx+Ps7KQhuSwtlzi3Jz60GaFkSk5pUk8jIjyMhVAAAAAAAACV4NOjkzrq27xkCqErwadHJnXVt3jIFUAAAAAAAAAAAAAAAAAAA1t5d19Iy2uxkEhbytBhlCTW6+vLPRbbTmpastuSSPZmfMQ0/JbzEe2xU7RVKuaLHeymPF/1HU/yP9VszVzHxhbUgMC2uK5rhTpjcmsJTHrpkN5ZrLRafediKaaUrmStaWnDJJ7T0f3C5GvjUtZGqTq2K+KmuUk0qjcURtqI+fSSew8/Tnz+kaX7ItcPeXhp3lleXPVTXleQX/QePM0/khWaOYiNstoCqAaijxDBuHHY7SnI9gwRG/Akp4uQyR8xqR6UmeeS05pPI8jMbcAAAAAAAAAAAAAAAAAAAABK1fnQxH1TW/NmiqErV+dDEfVNb82aKoAAAAAAAAAAAAAAAAAAAAAAAAAAAAAAAAAAAAAAAAAAAAAAAErwadHJnXVt3jIAODTo5M66tu8ZAAHBp0cmddW3eMgVQleDTo5M66tu8ZAqgAAAAAAAAAAAAAAAAAAAAAAAAAAAAAAAAAAAAAAAAAAAAAAASvBp0cmddW3eMgVQleDTo5M66tu8ZAqgAAAAAAAAAAAAE/aYlaamuVtPGctrdGRLjsHk2xnzG87lot+vI81mW1KVZGA3r7rbDLjz7iG2m0mta1qIkpSRZmZmfMRCY+3LG/wDIwqylqEfPby0HxSi/6DeZKd/rHoo2kZGvaQ/bGGXLJ5uXi2Q1ZuoUS2oSEGmGwojzIybMz4xZbPLXntLNJI5hTgNPR4eh1LzkrTemWbydF6fLUS33CzzyzIiJKc9uggkpI+YiG4AAAAABrLyjgXTbRTWlccwZqYkNLNt5hR85oWnI0/n6DLYeZbBqOXXWHfJuG3bmrT/6hGaLlLRet5lJFp/1miz2/wAmREZiqABj106LZQmplfIakxXS0m3WlkpKi/IyGQJ2xwyjlrtlQSfsi1dPSdcbb02ZKvW+1mROegtIjSvIiIlEWwfiJiZUSS1BxRGKrluKJDT5KNcSQo+YkO5ESVH/AEF6Kj26OkRZgKUAAAAAAAAAAAAAAAAStX50MR9U1vzZoqhK1fnQxH1TW/NmiqAAAAAAAAAAAAAAAAAAAAAAAAAAAAAAAAAAAAAAAAAAAAAAABK8GnRyZ11bd4yADg06OTOurbvGQABwadHJnXVt3jIFUJXg06OTOurbvGQKoAAAAAAAAAAAAAAAAAAAAAAAAAAAAAAAAAAAAAAAAAAAAAAAErwadHJnXVt3jIFUJXg06OTOurbvGQKoAAAAAAfh91thlx59xDbTaTWta1ESUpIszMzPmIgH7GtvLuvpGW12MgkLeVoMMoSa3X15Z6Lbac1LVltySR7Mz5iGn+3LG/8AIwqylqEfPby0HxSi/wCg3mSnf6x6KNpGRr2kNlR4eh1LzkrTemWbydF6fLUS33CzzyzIiJKc9uggkpI+YiAa3kt5iPbYqdoqlXNFjvZTHi/6jqf5H+q2Zq5j4wtqRQVddDqoTcStjNRYyM9FtpJJLM9pn+Zme0z5zMZQAAAAAAxlzoqLFqAt9spjrS3m2TPylIQaSUoi9RGtJfxIY02+qINlHr5tpBjz5GRMxnZCEOOZnkWikzzPM/UA2QDCjWsGU640zJbU4h9UY0meR8YktJSSI+cyLbs9Axo+I6eTNTFjWDDz6iNRE2ekRkSEOZ5lsy0HEK5+ZRANsA1pXtUdfGnFPjnEkm0TLpLLJw3VJS3l/WNSSL95DZAA8pcZiZGdjS2Wn47qTQ406glJWk+cjI9hkPUAEr9kWuHvLw07yyvLnqpryvIL/oPHmafyQrNHMRG2W0bOjxDBuHHY7SnI9gwRG/Akp4uQyR8xqR6UmeeS05pPI8jMbcay8o4F020U1pXHMGamJDSzbeYUfOaFpyNP5+gy2HmWwBswEry66w75Nw27c1af/UIzRcpaL1vMpItP+s0We3+TIiMxRV06LZQmplfIakxXS0m3WlkpKi/IyAZAAAAAAAAAAJWr86GI+qK3500VQlazzo4j6orfnTRVAAAAAAAAAAAAAAAAAAAAAAAAAAAAAAAAAAAAAAAAAAAAAAAAleDTo5M66tu8ZABwadHJnXVt3jIAA4NOjkzrq27xkCqErwadHJnXVt3jIFUAAAAAAAAAAAAAAAAAAAAAAAAAAAAAAAAAAAAAAAAAAAAAAACV4NOjkzrq27xkCqErwadHJnXVt3jIFUAAAAAgLyM5HxA9NxlGes6JLhLiKZQbkaHlkZG9HIjUaiPbxp6aU5aWTREL8AHlEksTIzUmI80/HdSS23WlkpK0nzGRlsMh6ial4ZVEkuzsLySq5bijW6waTXEkKPnNbWZElR/00aKj2aWkRZD912Jkctarb+N9kWrp6LTbjmmzJV6mHciJz0nomSV5EZmki2gKIAAAH8WaiQo0ESl5bCM8iM/3j+gA43Lp7tWJ40WZXNPYkkxnZbFv9vrS6w20ttBoRoxCQlJm+XkaBpVkZqzMiGzxFhq5W86fJpktm2bjrtW4pR3FcYySSLi3nHGtHPRLmbP0mWgZjpqo7KpKJCmmzkIQptLppLSSlRkakkfORGaUmZenRL1D0Acb5PY2Lzc+DCumFxsRS3ZLcU43KGCVGNBfiUpsyzUnmM+cT3B1WWlRiKFDkEhuXFrijORHTIkoeRWQSVmtOZ/lsz5h9AssMsG4bLTbfGLNxegki0lHzqPLnPYW0flUWOp9L6mGjfTmSXDQWkWZER5Hz7SIv7iAfPOEcKMS3ar7ORTlCjMwLCE65KaQbp6emhvNMYnNJPFoNRZ5npkR85j6LTnolpZaWW3LmzGvboahpxLjdVAQ4gyUlSY6CMjLmMjyGxAAAAAAGjuMSxYMz7OhtO2VwaSUUGLka0JPmU4ZnotIPb5SjLPI8sz2AN2pRJSalGRJIszMzyIiHPHEptr0p2AG1R3FukqbapLRgySI9uaMv9pVkWWmjLLLLjSyNI3acOy7pRPYwfakNZ5pqoylckR/9QzIjkH/AFyJHMZIIyzFQlJJSSUkRJIsiIiyIiAf0AAAAAAAAAErWedHEfVFb86aKoStZ50cR9UVvzpoqgAAAAAAAAAAAAAAAAAAAAAAAAAAAAAAAAAAAAAAAAAAAAAAASvBp0cmddW3eMgA4NOjkzrq27xkAAcGnRyZ11bd4yBVCV4NOjkzrq27xkCqAAAAAAAAAAAAAAAAAAAAAAAAAAAAAAAAAAAAAAAAAAAAAAABK8GnRyZ11bd4yBVCV4NOjkzrq27xkCqAAAAAAAAGPYwYtlCdh2EdqTFdLRcadQSkqL8yMZAAJXkN1h3yqdx25q0/+nyXS5S0XqZeUZaf9V089v8AKEREQ29HeQLpt04TquOYMkvx3UG28wo+YloVkafy9BltLMto2Y1F5h6DcONSHUuR7BgjJifGVxchkj5ySv0pM8s0KzSeRZkYDbgJX7XtcPeRiVrlleXNawmVeQX/AF2SzNP5rTmjnMybLYKWJJYmRmpMR5p+O6kltutLJSVpPmMjLYZAPUAAAAAAAAfxSiSk1KMiSRZmZnkREA/owri2g00PlVnJQwzpEhOeZqWo+ZCUlmalH6EkRmfoIaNWIpd0o2cHsNSGs8lWslKuSI/+mRGRyD/qGSOcjWRlkM2nw1FgzPtGY67ZXBpNJzpWRrQk+dLZEWi0g9nkpIs8izzPaAwf9+4j/wDfw/Uq/qnOfL/FLKT/AIuZH/5aiG9p6mDTQ+S1kZDDOka1ZZmpaj51qUeZqUfpUZmZ+kxmgAAAAAAAAAAAAAAJWs86OI+qK3500VQlazzo4j6orfnTRVAAAAAAAAAAAAAAAAAAAAAAAAAAAAAAAAAAAAAAAAAAAAAAAAleDTo5M66tu8ZABwadHJnXVt3jIAA4NOjkzrq27xkCqErwadHJnXVt3jIFUAAAAAAAAAAAAAAAAAAAAAAAAAAAAAAAAAAAAAAAAAAAAAAACV4NOjkzrq27xkCqErwadHJnXVt3jIFUAAAAAAAAAAAAAAAmpeGVRJLs7C8kquW4o1usGk1xJCj5zW1mRJUf9NGio9mlpEWQpQATtdiZHLWq2/jfZFq6ei0245psyVeph3Iic9J6JkleRGZpItoohj2MGLZQnYdhHakxXS0XGnUEpKi/MjE7yG6w75VO47c1af8A0+S6XKWi9TLyjLT/AKrp57f5QiIiAVQCebxlRHXuy3ZpR+JWlp2O8hSH23FfhbNrLTNZ5HkREel/NzIY3+/cR/8Av4fqVf1TnPl/illJ/wAXMj/8tRAM64xLFgzPs6G07ZXBpJRQYuRrQk+ZThmei0g9vlKMs8jyzPYMJOHZd0onsYPtSGs801UZSuSI/wDqGZEcg/65EjmMkEZZjeU9TBpofJayMhhnSNasszUtR861KPM1KP0qMzM/SYzQH8SkkpJKSIkkWRERZERD+gAAAAAAAAAAAAAAAAAAJWs86OI+qK3504VQlazzo4i6orfnThVAAAAAAAAAAAAAAAAAAAAAAAAAAAAAAAAAAAAAAAAAAAAAAAAleDTo5M66tu8ZABwadHJnXVt3jIAA4NOjkzrq27xkCqErwadHJnXVt3jIFUAAAAAAAAADnWCKy+vsF0FvMxxiBEmwr48t1LUevJCVuNpUZJI4pnlmZ5ZmYDooCV1Xt9+8SdhXeFDVe337xJ2Fd4UBVAJXVe337xJ2Fd4UNV7ffvEnYV3hQFUAldV7ffvEnYV3hQ1Xt9+8SdhXeFAVQCV1Xt9+8SdhXeFDVe337xJ2Fd4UBVAJXVe337xJ2Fd4UNV7ffvEnYV3hQFUAldV7ffvEnYV3hQ1Xt9+8SdhXeFAVQCV1Xt9+8SdhXeFDVe337xJ2Fd4UBVAJXVe337xJ2Fd4UNV7ffvEnYV3hQFUAiq9u1qMf1tbJxFZW0KZWTJCm5rUVOg407FSk0myy2fM8vMjMy5vULUAAAAAAAErwadHJnXVt3jIFUJXg06OTOurbvGQKoAAAAAAAAAAAAAAAAAAAABI2bLZ8K+HXDbQbhU1kekaSz2PQiLb+RLV/8AkfrMVwlbLzp4e6ls/nwBVAAAAAAAAAAAAAAAAAAAAAAAACVrPOjiLqet+dOFUJWs86WIup63504VQAAAAAAAAAAAAAAAAAAAAAAAAAAAAAAAAAAAAAAAAAAAAAAAJXg06OTOurbvGQAcGnRyZ11bd4yAAODTo5M66tu8ZAqhK8GnRyZ11bd4yBVAAAAAAAACV4J/NZg3qWF8hAqhK8E/mswb1LC+QgBVAAAACFcl2reNF18a7fmxmIj0mc0plokxtIsmUaSUkolHmpREZ8yMz5yzjrPFUpGEMPJh4qnsX0mjQ5xSDjKTyjkxOIW7xjS1eWoyL8RF/iA7WAjeDq1m2a745JuPxm55lHkrX+JJtoPRJPOkizzyP+kN+cx46qwesW11hMm8ROIWl1RNJM9F4thlmaSJWiZHlzGRgNmA5DMs8RNUdlMjW9lLSuwq2q5ixSzFkLScxpLq1k0ylSG3CXo5KSZkkjPLyshT64aHCVGopDyG2FQdF3RMlNJmqMlJY4wyIzXxZLUSdmacjy2kAtwEbweX3H8HUS1unXmEx2DXIlTDIiUlJZqc0s/w5ek/UY/r2PoLaGp7MOXOw48g1N3NckpTBGSjSolpbM3EkRkflaJp2HmZZALEBD4+xo3XYIiXGH5LUkrGTHixZDDfKCPjXCTpIQR+WrLPJOZZqyI/SMzg3t5NtUzSnzHpMqJLVHWUmIUaQ15KVEh1BeTpZKz0k7DSaTIBWANFYYhTT4WcuL6MqEptPlRkuJdUazVoobSZbFKUZpIi9aiGp4LryzvKu1XeuxVTo9i8wbcYyNDSCyNKCMvxZZmWkfPlmAswAAErZedPD3Utn8+AKoc34ScUQcG4vqLu0amPRI1JZGpERg3Vn+3gegthF+ajIi9YkuC7hzdxtiC4dkVcqHRw20IZZiV0qe+txSjyW4tlCkoLJB+SZFtVsM8jAd1ASuvlR7HiT4csfoBr5Uex4k+HLH6ACqASuvlR7HiT4csfoBr5Uex4k+HLH6ABwadHJnXVt3jIFUOYcHuNKuNQykORcQGo7azczboJ7hZKnvqLalkyzyMsy5yPMjIjIyFLr5Uex4k+HLH6ACqASuvlR7HiT4csfoBr5Uex4k+HLH6ACqASuvlR7HiT4csfoBr5Uex4k+HLH6ACqASuvlR7HiT4csfoBr5Uex4k+HLH6ACqASuvlR7HiT4csfoBr5Uex4k+HLH6ACqASuvlR7HiT4csfoBr5Uex4k+HLH6ACqASuvlR7HiT4csfoBr5Uex4k+HLH6ABZedPD3Utn8+AKoQ0GzbvuEaqmQIdsiLEqZzTzsyskxEktx6IaEkbzadIzJpZ7M8tHb6BcgAAAAAAAAAAAAAAAAAAAAAAACVrPOliLqet+dOFUJWs86WIup63504VQAAAAAAAAAAAAAAAAAAAAAAAAAAAAAAAAAAAAAAAAAAAAAAAJXg06OTOurbvGQAcGnRyZ11bd4yAAODTo5M66tu8ZAqhK8GnRyZ11bd4yBVAAAAAAAACV4J/NZg3qWF8hAqhK8E/mswb1LC+QgBVAAANdBpYFdAkRK2M1FbfUtxzQTtWtX4lqPnUo/We0aCPhGdAYoE1V2cdyqrSrTNcYnEPJyb8s06RZK/ZF6T/ABGLAAGsoK1+tYkJlSGJD77xvLcZjEwSjMiLaRGeZ7Of/wDQZNfEVDbeSuXJlG4848SnzSZoJSjMkJyIvJTnkXOeRFmZ84ygAc1gcFbEVyA2U6OcWFMRMbeTXoTOWpK9PJcnPM8zLJRkklKIzIz2i5KiqijOR/s2IbDknli2zZSZKf09PjDLLarSIjz58yIbEAGrwxUJosPQatLxvpitE3xhp0dLL05bchgXmD62+nk/dLlzYhJJKa5x8yiZl6VNJyJZn/z6ReoiFGADR3+GYFxQIqclwWGVtuxlw9FtUZxtRKQpvYaSMjIthkZegyyH6wth9rD8aWkpcqfLmPnJlTJWhxjzhpSnM9BKUkRJQlJERERERDdAA1ZUkR6lRWWxfbEcvxnYoQ6bh6WZGotEknl6NnoIYuFMJ0+FSsCpIjUYp0hUl0m2kIyM+ZJaKS8ktuRHnlmY3wAAAACVsvOnh7qWz+fAGRT4Kw/SYil3dNWtQJ8tripHJjNtt0tIlaSmyPQ0syPyss9p7dox7Lzp4e6ls/nwBVAAAAAAAAleDTo5M66tu8ZAqhK8GnRyZ11bd4yBVAAAAAAAADCtn58eOhVZCamOmrJSHH+JIk5Htz0Tz9Gz8xmjW3CbhRtfYzte2W3jOVtLXnzZZaKiy9P+ADAob+XOv7Cosq1MKVEjMS825BPJWh1bqSLPRLIyNlX95DVYlxw9US7jk9UiTBpW23bB1cri3SStOkXEt6J8YeXoNSMz2FmYz6OouI2JJlrZP1rhy2GmHSjtOJVk2azQRaSjIizcXn+8a7EuBV3uKIN09OhodgqNUXSrW3FoIyyyNajPPIzNRbCyPaA3+GrV62YsVuttoVGnPxUEnMiNLazSRn+ZiMuuEK3qimplVVUXJ48h1Tsac7IS2tlTJKQtKmW//fLIyM+YU+EKeVBqrSJaGpSpM6S5pkokm4hajyV5J+SZlt2ZGX5CIZwc+3WTocnC8tyQ8++fLGbNJ6SDcVoKycWflcXokZmWfOA3VrwhuR7nk9bBi2UMn2GnFMvvE82lxKFGpRGzxackrJXlOF5ORmZZjfYBxGvFNK/YLYSwlMx+OhBLQvyUOGkjNSFKSZ5FtNKjL1DSXeHnmMZyLOJUT5sSW0h19MW0WwlUlOSNJbZupQouLQ2XNt0dooMKwHIFTMJqE7CefkvySZkuIXorcUaudvZo5nzc+QDRuY0tUOvoKkhGbM9Far/eKs+OWSVJLLiebJaTz5hkYqxjIp7jkEVineUllDq0yZ7zTidI1EXkojuFkeieR6W3I9mwaRfB9KW6t1UCkNxbvHqVyqZmbhESSX+P8WREWfPkREPXFODL25sCnRZEaBNUUZDz8SymxzdbaXpKbUltaUmR6TiSV+IiXmR5gKGhxFaXWFmbONTNFLXIeZVGVKUlGi26tHGJWpsjNKtAlFmgtiiHgeLZUV65YuK1iC5XVv2ka+VG62aM1l5Rpb0i/kzzySo8uYj5h61ldiOuq24sV+uStK1GZynpUwzSeRl5bi9PPPPnMyyyyyH4hYfs3b6dOvF1MpidDRBkstsOZKaQbpkkiUoy2m8rSzI8yy9QCQseFW0hxCdk4fVE01rbZUpqUtLuSG1EsiWy0tKc1mRqNOj5POOuDhJ4Bu24khMWqksT1urSRx2apqKps3PJJWTZOmnQyLaelz7R3YAAAAAAAAAAAAAAAAAErW+dLEXU9b86cKoStb50sRdT1vzpwqgAAAAAAAAAAAAAAAAAAAAAAAAAAAAAAAAAAAAAAAAAAAAAAASvBp0cmddW3eMgA4NOjkzrq27xkAAcGnRyZ11bd4yBVCV4NOjkzrq27xkCqAAAAAAAAEVU4Hm1FVDra/G2JGYUNlEdhvioCtBtCSSkszimZ5ERbTPMWoAJXVe337xJ2Fd4UNV7ffvEnYV3hRVAAldV7ffvEnYV3hQ1Xt9+8SdhXeFFUACV1Xt9+8SdhXeFDVe337xJ2Fd4UVQAJXVe337xJ2Fd4UNV7ffvEnYV3hRVAAldV7ffvEnYV3hQ1Xt9+8SdhXeFFUACV1Xt9+8SdhXeFDVe337xJ2Fd4UVQAJXVe337xJ2Fd4UNV7ffvEnYV3hRVAAldV7ffvEnYV3hQ1Xt9+8SdhXeFFUACaqcLOw79m3n4gt7aSxFdiNJmJjJQ2h1bSlmRMstmZmbKOcz9PrFKAAAAAAAAAleDTo5M66tu8ZAqhK8GnRyZ11bd4yBVAAAAAAAAAAAAAAAAAAAAAAAAAAAAAAAAAAAAAAAAAAAAAAAAla3zpYi6mrfnThVCVrfOniLqas+fOFUAAAAAAAAAAAAAAAAAAAAAAAAAAAAAAAAAAAAAAAAAAAAAAACV4NOjkzrq27xkAHBp0cmddW3eMgADg06OTOurbvGQKoSvBp0cmddW3eMgVQAAAAAAAAAAAAAAAAAAAAAAAAAAAAAAAAAAAAAAAAAAAAAAAJXg06OTOurbvGQKoSvBp0cmddW3eMgVQAAAAAAAAAAAAAAAAAAAAAAAAAAAAAAAAAAAAAAAAAAAAAAAJWt86eIupqz584VQla3zp4i6mrPnzxVAAAAAAAAAAAAAAAAAAAAAAAAAAAAAAAAAAAAAAAAAAAAAAAAleDTo5M66tu8ZABwadHJnXVt3jIAA4NOjkzrq27xkCqEhHwZKhqkprMX4ggxn5T8vk7TcJSG1vOqdWSTXHUrLSWrLNRj11Xt9+8SdhXeFAVQCV1Xt9+8SdhXeFDVe337xJ2Fd4UBVAJXVe337xJ2Fd4UNV7ffvEnYV3hQFUAldV7ffvEnYV3hQ1Xt9+8SdhXeFAVQCV1Xt9+8SdhXeFDVe337xJ2Fd4UBVAJXVe337xJ2Fd4UNV7ffvEnYV3hQFUAldV7ffvEnYV3hQ1Xt9+8SdhXeFAVQCV1Xt9+8SdhXeFDVe337xJ2Fd4UBVAJXVe337xJ2Fd4UNV7ffvEnYV3hQFUAldV7ffvEnYV3hQ1Xt9+8SdhXeFAVQCV1Xt9+8SdhXeFDVe337xJ2Fd4UBVAJXVe337xJ2Fd4UNV7ffvEnYV3hQFUAldV7ffvEnYV3hQ1Xt9+8SdhXeFAVQCV1Xt9+8SdhXeFDVe337xJ2Fd4UBVAJXVe337xJ2Fd4UNV7ffvEnYV3hQDg06OTOurbvGQKoRVZgebWRlsQcbYkaaW89IUnioCs3HXFOOHtinzrWo8uYs8iyLYMvVe337xJ2Fd4UBVAJXVe337xJ2Fd4UNV7ffvEnYV3hQFUAldV7ffvEnYV3hQ1Xt9+8SdhXeFAVQCV1Xt9+8SdhXeFDVe337xJ2Fd4UBVAJXVe337xJ2Fd4UNV7ffvEnYV3hQFUAldV7ffvEnYV3hQ1Xt9+8SdhXeFAVQCV1Xt9+8SdhXeFDVe337xJ2Fd4UBVAJXVe337xJ2Fd4UNV7ffvEnYV3hQFUAldV7ffvEnYV3hQ1Xt9+8SdhXeFAVQCV1Xt9+8SdhXeFDVe337xJ2Fd4UBVAJXVe337xJ2Fd4UNV7ffvEnYV3hQFUAldV7ffvEnYV3hQ1Xt9+8SdhXeFAVQCV1Xt9+8SdhXeFDVe337xJ2Fd4UBVAJXVe337xJ2Fd4UNV7ffvEnYV3hQFUAldV7ffvEnYV3hQ1Xt9+8SdhXeFAK3zp4i6mrPnzxVDmEDDlofCTesljTECXE1Nes3iZgaayN6aRJMuTaORaJmWREflHmZ7MqXVe337xJ2Fd4UBVAJXVe337xJ2Fd4UNV7ffvEnYV3hQFUAldV7ffvEnYV3hQ1Xt9+8SdhXeFAVQCV1Xt9+8SdhXeFDVe337xJ2Fd4UBVAJXVe337xJ2Fd4UNV7ffvEnYV3hQFUAldV7ffvEnYV3hQ1Xt9+8SdhXeFAVQCV1Xt9+8SdhXeFDVe337xJ2Fd4UBVAJXVe337xJ2Fd4UNV7ffvEnYV3hQFUAldV7ffvEnYV3hQ1Xt9+8SdhXeFAVQCV1Xt9+8SdhXeFDVe337xJ2Fd4UBVAJXVe337xJ2Fd4UNV7ffvEnYV3hQFUAldV7ffvEnYV3hQ1Xt9+8SdhXeFAVQCV1Xt9+8SdhXeFDVe337xJ2Fd4UBVAJXVe337xJ2Fd4UNV7ffvEnYV3hQFUAldV7ffvEnYV3hQ1Xt9+8SdhXeFAODTo5M66tu8ZADa4YpW8P1CYDUqTL/AGz8hb8nQ4xxx51bqzPQSlJeUtWwkkRFkADagAAAAAAAAAAAAAAAAAAAAAAAAAAAAAAAAAAAAAAAAAAAAAAAAAAAAAAAAAAAAAAAAAAAAAAAAAAAAAAAAAAAAAAAAAAAAAAAAAAA08WpWzi+zuDdSbUuDEiJby2pNlyQszM/UfHl/wDiY3AAAAAAAAAAAAAAAAAAAAAAAAAAAAAAAAAAAAAAAAAAAAAAAAAAAAA//9k=;" parent="1" vertex="1">
          <mxGeometry x="40" y="40" width="540" height="818.66" as="geometry" />
        </mxCell>
      </root>
    </mxGraphModel>
  </diagram>
  <diagram id="LHmFUk6uctuLpTLk0S07" name="uml체험">
    <mxGraphModel dx="751" dy="1085" grid="1" gridSize="10" guides="1" tooltips="1" connect="1" arrows="1" fold="1" page="1" pageScale="1" pageWidth="827" pageHeight="1169" math="0" shadow="0">
      <root>
        <mxCell id="O0AF731DD-x7t5gvwVMw-0" />
        <mxCell id="O0AF731DD-x7t5gvwVMw-1" parent="O0AF731DD-x7t5gvwVMw-0" />
        <mxCell id="-PZ-SIKmLXx2owZtP_yY-6" style="edgeStyle=orthogonalEdgeStyle;curved=0;rounded=1;sketch=0;orthogonalLoop=1;jettySize=auto;html=1;exitX=0.5;exitY=1;exitDx=0;exitDy=0;entryX=0.5;entryY=0;entryDx=0;entryDy=0;" parent="O0AF731DD-x7t5gvwVMw-1" source="-V4hmGv51pqyp0XQw7ew-19" target="-PZ-SIKmLXx2owZtP_yY-3" edge="1">
          <mxGeometry relative="1" as="geometry" />
        </mxCell>
        <mxCell id="-V4hmGv51pqyp0XQw7ew-19" value="" style="ellipse;whiteSpace=wrap;html=1;aspect=fixed;rounded=0;labelBackgroundColor=#000000;sketch=0;" parent="O0AF731DD-x7t5gvwVMw-1" vertex="1">
          <mxGeometry x="105" y="60" width="30" height="30" as="geometry" />
        </mxCell>
        <mxCell id="-PZ-SIKmLXx2owZtP_yY-14" style="edgeStyle=orthogonalEdgeStyle;curved=0;rounded=1;sketch=0;orthogonalLoop=1;jettySize=auto;html=1;exitX=0.5;exitY=1;exitDx=0;exitDy=0;entryX=0.5;entryY=0;entryDx=0;entryDy=0;" parent="O0AF731DD-x7t5gvwVMw-1" source="-PZ-SIKmLXx2owZtP_yY-3" target="-PZ-SIKmLXx2owZtP_yY-9" edge="1">
          <mxGeometry relative="1" as="geometry" />
        </mxCell>
        <mxCell id="-PZ-SIKmLXx2owZtP_yY-3" value="&lt;span style=&quot;background-color: rgb(255 , 255 , 255)&quot;&gt;채용공고&lt;/span&gt;" style="rounded=1;whiteSpace=wrap;html=1;labelBackgroundColor=#000000;sketch=0;" parent="O0AF731DD-x7t5gvwVMw-1" vertex="1">
          <mxGeometry x="60" y="120" width="120" height="40" as="geometry" />
        </mxCell>
        <mxCell id="-PZ-SIKmLXx2owZtP_yY-20" style="edgeStyle=orthogonalEdgeStyle;curved=0;rounded=1;sketch=0;orthogonalLoop=1;jettySize=auto;html=1;exitX=0.5;exitY=1;exitDx=0;exitDy=0;entryX=0.5;entryY=0;entryDx=0;entryDy=0;fontSize=12;fontColor=#FFFFFF;" parent="O0AF731DD-x7t5gvwVMw-1" source="-PZ-SIKmLXx2owZtP_yY-9" target="-PZ-SIKmLXx2owZtP_yY-18" edge="1">
          <mxGeometry relative="1" as="geometry" />
        </mxCell>
        <mxCell id="-PZ-SIKmLXx2owZtP_yY-9" value="" style="rhombus;whiteSpace=wrap;html=1;rounded=0;labelBackgroundColor=#000000;sketch=0;" parent="O0AF731DD-x7t5gvwVMw-1" vertex="1">
          <mxGeometry x="105" y="190" width="30" height="30" as="geometry" />
        </mxCell>
        <mxCell id="-PZ-SIKmLXx2owZtP_yY-10" value="신규가입자라면" style="html=1;verticalAlign=bottom;endArrow=block;exitX=1;exitY=0.5;exitDx=0;exitDy=0;" parent="O0AF731DD-x7t5gvwVMw-1" source="-PZ-SIKmLXx2owZtP_yY-9" edge="1">
          <mxGeometry width="80" relative="1" as="geometry">
            <mxPoint x="190" y="204.22000000000003" as="sourcePoint" />
            <mxPoint x="270" y="204" as="targetPoint" />
            <Array as="points">
              <mxPoint x="240" y="204.22000000000003" />
            </Array>
          </mxGeometry>
        </mxCell>
        <mxCell id="-PZ-SIKmLXx2owZtP_yY-12" value="&lt;p style=&quot;font-size: 12px ; line-height: 0%&quot;&gt;&lt;span style=&quot;font-size: 12px&quot;&gt;등록희망서 및 이력서&lt;/span&gt;&lt;/p&gt;&lt;span style=&quot;font-size: 12px&quot;&gt;작성&lt;br style=&quot;font-size: 12px&quot;&gt;&lt;/span&gt;" style="rounded=1;whiteSpace=wrap;html=1;labelBackgroundColor=none;sketch=0;fontSize=12;spacing=2;" parent="O0AF731DD-x7t5gvwVMw-1" vertex="1">
          <mxGeometry x="270" y="185" width="120" height="40" as="geometry" />
        </mxCell>
        <mxCell id="-PZ-SIKmLXx2owZtP_yY-29" style="edgeStyle=orthogonalEdgeStyle;curved=0;rounded=1;sketch=0;orthogonalLoop=1;jettySize=auto;html=1;exitX=0.5;exitY=1;exitDx=0;exitDy=0;entryX=0.5;entryY=0;entryDx=0;entryDy=0;fontSize=12;fontColor=#FFFFFF;" parent="O0AF731DD-x7t5gvwVMw-1" source="-PZ-SIKmLXx2owZtP_yY-16" target="-PZ-SIKmLXx2owZtP_yY-27" edge="1">
          <mxGeometry relative="1" as="geometry" />
        </mxCell>
        <mxCell id="-PZ-SIKmLXx2owZtP_yY-16" value="&lt;p style=&quot;font-size: 12px ; line-height: 0%&quot;&gt;&lt;span style=&quot;font-size: 12px&quot;&gt;등록희망서 및 이력서&lt;/span&gt;&lt;/p&gt;&lt;span style=&quot;font-size: 12px&quot;&gt;취합&lt;br style=&quot;font-size: 12px&quot;&gt;&lt;/span&gt;" style="rounded=1;whiteSpace=wrap;html=1;labelBackgroundColor=none;sketch=0;fontSize=12;spacing=2;" parent="O0AF731DD-x7t5gvwVMw-1" vertex="1">
          <mxGeometry x="60" y="300" width="120" height="40" as="geometry" />
        </mxCell>
        <mxCell id="-PZ-SIKmLXx2owZtP_yY-21" style="edgeStyle=orthogonalEdgeStyle;curved=0;rounded=1;sketch=0;orthogonalLoop=1;jettySize=auto;html=1;exitX=0.5;exitY=1;exitDx=0;exitDy=0;fontSize=12;fontColor=#FFFFFF;entryX=0.5;entryY=0;entryDx=0;entryDy=0;" parent="O0AF731DD-x7t5gvwVMw-1" source="-PZ-SIKmLXx2owZtP_yY-18" target="-PZ-SIKmLXx2owZtP_yY-16" edge="1">
          <mxGeometry relative="1" as="geometry">
            <mxPoint x="120" y="290" as="targetPoint" />
          </mxGeometry>
        </mxCell>
        <mxCell id="-PZ-SIKmLXx2owZtP_yY-18" value="" style="rhombus;whiteSpace=wrap;html=1;rounded=0;labelBackgroundColor=#000000;sketch=0;" parent="O0AF731DD-x7t5gvwVMw-1" vertex="1">
          <mxGeometry x="105" y="240" width="30" height="30" as="geometry" />
        </mxCell>
        <mxCell id="-PZ-SIKmLXx2owZtP_yY-24" value="" style="endArrow=classic;html=1;fontSize=12;fontColor=#FFFFFF;exitX=0.5;exitY=1;exitDx=0;exitDy=0;" parent="O0AF731DD-x7t5gvwVMw-1" source="-PZ-SIKmLXx2owZtP_yY-12" edge="1">
          <mxGeometry width="50" height="50" relative="1" as="geometry">
            <mxPoint x="400" y="390" as="sourcePoint" />
            <mxPoint x="120" y="280" as="targetPoint" />
            <Array as="points">
              <mxPoint x="330" y="280" />
            </Array>
          </mxGeometry>
        </mxCell>
        <mxCell id="-PZ-SIKmLXx2owZtP_yY-34" style="edgeStyle=orthogonalEdgeStyle;curved=0;rounded=1;sketch=0;orthogonalLoop=1;jettySize=auto;html=1;exitX=0.5;exitY=1;exitDx=0;exitDy=0;fontSize=12;fontColor=#FFFFFF;" parent="O0AF731DD-x7t5gvwVMw-1" source="-PZ-SIKmLXx2owZtP_yY-25" edge="1">
          <mxGeometry relative="1" as="geometry">
            <mxPoint x="120.33333333333337" y="500" as="targetPoint" />
          </mxGeometry>
        </mxCell>
        <mxCell id="-PZ-SIKmLXx2owZtP_yY-41" style="edgeStyle=orthogonalEdgeStyle;curved=0;rounded=1;sketch=0;orthogonalLoop=1;jettySize=auto;html=1;exitX=0;exitY=0.5;exitDx=0;exitDy=0;fontSize=12;fontColor=#FFFFFF;" parent="O0AF731DD-x7t5gvwVMw-1" source="-PZ-SIKmLXx2owZtP_yY-25" target="-PZ-SIKmLXx2owZtP_yY-39" edge="1">
          <mxGeometry relative="1" as="geometry" />
        </mxCell>
        <mxCell id="-PZ-SIKmLXx2owZtP_yY-25" value="" style="rhombus;whiteSpace=wrap;html=1;rounded=0;labelBackgroundColor=#000000;sketch=0;" parent="O0AF731DD-x7t5gvwVMw-1" vertex="1">
          <mxGeometry x="105" y="440" width="30" height="30" as="geometry" />
        </mxCell>
        <mxCell id="-PZ-SIKmLXx2owZtP_yY-30" style="edgeStyle=orthogonalEdgeStyle;curved=0;rounded=1;sketch=0;orthogonalLoop=1;jettySize=auto;html=1;exitX=0.5;exitY=1;exitDx=0;exitDy=0;entryX=0.5;entryY=0;entryDx=0;entryDy=0;fontSize=12;fontColor=#FFFFFF;" parent="O0AF731DD-x7t5gvwVMw-1" source="-PZ-SIKmLXx2owZtP_yY-27" target="-PZ-SIKmLXx2owZtP_yY-25" edge="1">
          <mxGeometry relative="1" as="geometry" />
        </mxCell>
        <mxCell id="-PZ-SIKmLXx2owZtP_yY-27" value="&lt;span style=&quot;background-color: rgb(255 , 255 , 255)&quot;&gt;서류심사&lt;/span&gt;" style="rounded=1;whiteSpace=wrap;html=1;labelBackgroundColor=#000000;sketch=0;" parent="O0AF731DD-x7t5gvwVMw-1" vertex="1">
          <mxGeometry x="60" y="370" width="120" height="40" as="geometry" />
        </mxCell>
        <mxCell id="-PZ-SIKmLXx2owZtP_yY-35" value="&lt;font color=&quot;#000000&quot;&gt;서류심사 합격이라면&lt;/font&gt;" style="text;html=1;strokeColor=none;fillColor=none;align=center;verticalAlign=middle;whiteSpace=wrap;rounded=0;labelBackgroundColor=none;sketch=0;fontSize=12;fontColor=#FFFFFF;" parent="O0AF731DD-x7t5gvwVMw-1" vertex="1">
          <mxGeometry x="120" y="470" width="120" height="20" as="geometry" />
        </mxCell>
        <mxCell id="uc_O1cf6i0A3i_YrVDgl-21" style="edgeStyle=orthogonalEdgeStyle;rounded=0;orthogonalLoop=1;jettySize=auto;html=1;exitX=1;exitY=0.5;exitDx=0;exitDy=0;entryX=0;entryY=0.5;entryDx=0;entryDy=0;" edge="1" parent="O0AF731DD-x7t5gvwVMw-1" source="-PZ-SIKmLXx2owZtP_yY-38" target="uc_O1cf6i0A3i_YrVDgl-0">
          <mxGeometry relative="1" as="geometry" />
        </mxCell>
        <mxCell id="-PZ-SIKmLXx2owZtP_yY-38" value="&lt;p style=&quot;font-size: 12px ; line-height: 0%&quot;&gt;&lt;/p&gt;&lt;span style=&quot;font-size: 12px&quot;&gt;합격통보 및&lt;br&gt;&amp;nbsp;2차 면접 안내&lt;br style=&quot;font-size: 12px&quot;&gt;&lt;/span&gt;" style="rounded=1;whiteSpace=wrap;html=1;labelBackgroundColor=none;sketch=0;fontSize=12;spacing=2;" parent="O0AF731DD-x7t5gvwVMw-1" vertex="1">
          <mxGeometry x="60" y="500" width="120" height="40" as="geometry" />
        </mxCell>
        <mxCell id="-PZ-SIKmLXx2owZtP_yY-39" value="" style="ellipse;html=1;shape=endState;fillColor=#000000;strokeColor=#ff0000;rounded=0;labelBackgroundColor=none;sketch=0;fontSize=12;fontColor=#FFFFFF;" parent="O0AF731DD-x7t5gvwVMw-1" vertex="1">
          <mxGeometry y="440" width="30" height="30" as="geometry" />
        </mxCell>
        <mxCell id="-PZ-SIKmLXx2owZtP_yY-42" value="&lt;font color=&quot;#000000&quot;&gt;서류심사 불합격&lt;/font&gt;" style="text;html=1;strokeColor=none;fillColor=none;align=center;verticalAlign=middle;whiteSpace=wrap;rounded=0;labelBackgroundColor=none;sketch=0;fontSize=12;fontColor=#FFFFFF;" parent="O0AF731DD-x7t5gvwVMw-1" vertex="1">
          <mxGeometry x="20" y="440" width="90" height="20" as="geometry" />
        </mxCell>
        <mxCell id="uc_O1cf6i0A3i_YrVDgl-22" style="edgeStyle=orthogonalEdgeStyle;rounded=0;orthogonalLoop=1;jettySize=auto;html=1;exitX=0.5;exitY=1;exitDx=0;exitDy=0;entryX=0.5;entryY=0;entryDx=0;entryDy=0;" edge="1" parent="O0AF731DD-x7t5gvwVMw-1" source="uc_O1cf6i0A3i_YrVDgl-0" target="uc_O1cf6i0A3i_YrVDgl-1">
          <mxGeometry relative="1" as="geometry" />
        </mxCell>
        <mxCell id="uc_O1cf6i0A3i_YrVDgl-0" value="&lt;span style=&quot;background-color: rgb(255 , 255 , 255)&quot;&gt;합격확인&lt;/span&gt;&lt;span style=&quot;color: rgba(0 , 0 , 0 , 0) ; font-family: monospace ; font-size: 0px ; background-color: rgb(248 , 249 , 250)&quot;&gt;%3CmxGraphModel%3E%3Croot%3E%3CmxCell%20id%3D%220%22%2F%3E%3CmxCell%20id%3D%221%22%20parent%3D%220%22%2F%3E%3CmxCell%20id%3D%222%22%20value%3D%22%26lt%3Bspan%20style%3D%26quot%3Bbackground-color%3A%20rgb(255%20%2C%20255%20%2C%20255)%26quot%3B%26gt%3B%EC%84%9C%EB%A5%98%EC%8B%AC%EC%82%AC%26lt%3B%2Fspan%26gt%3B%22%20style%3D%22rounded%3D1%3BwhiteSpace%3Dwrap%3Bhtml%3D1%3BlabelBackgroundColor%3D%23000000%3Bsketch%3D0%3B%22%20vertex%3D%221%22%20parent%3D%221%22%3E%3CmxGeometry%20x%3D%2260%22%20y%3D%22370%22%20width%3D%22120%22%20height%3D%2240%22%20as%3D%22geometry%22%2F%3E%3C%2FmxCell%3E%3C%2Froot%3E%3C%2FmxGraphModel%3E&lt;/span&gt;" style="rounded=1;whiteSpace=wrap;html=1;labelBackgroundColor=#000000;sketch=0;" vertex="1" parent="O0AF731DD-x7t5gvwVMw-1">
          <mxGeometry x="270" y="500" width="120" height="40" as="geometry" />
        </mxCell>
        <mxCell id="uc_O1cf6i0A3i_YrVDgl-23" style="edgeStyle=orthogonalEdgeStyle;rounded=0;orthogonalLoop=1;jettySize=auto;html=1;exitX=0;exitY=0.5;exitDx=0;exitDy=0;entryX=1;entryY=0.5;entryDx=0;entryDy=0;" edge="1" parent="O0AF731DD-x7t5gvwVMw-1" source="uc_O1cf6i0A3i_YrVDgl-1" target="uc_O1cf6i0A3i_YrVDgl-2">
          <mxGeometry relative="1" as="geometry" />
        </mxCell>
        <mxCell id="uc_O1cf6i0A3i_YrVDgl-1" value="&lt;span style=&quot;background-color: rgb(255 , 255 , 255)&quot;&gt;면접장소 입장&lt;/span&gt;" style="rounded=1;whiteSpace=wrap;html=1;labelBackgroundColor=#000000;sketch=0;" vertex="1" parent="O0AF731DD-x7t5gvwVMw-1">
          <mxGeometry x="270" y="560" width="120" height="40" as="geometry" />
        </mxCell>
        <mxCell id="uc_O1cf6i0A3i_YrVDgl-26" style="edgeStyle=orthogonalEdgeStyle;rounded=0;orthogonalLoop=1;jettySize=auto;html=1;exitX=1;exitY=1;exitDx=0;exitDy=0;entryX=0;entryY=0.25;entryDx=0;entryDy=0;" edge="1" parent="O0AF731DD-x7t5gvwVMw-1" source="uc_O1cf6i0A3i_YrVDgl-2" target="uc_O1cf6i0A3i_YrVDgl-3">
          <mxGeometry relative="1" as="geometry" />
        </mxCell>
        <mxCell id="uc_O1cf6i0A3i_YrVDgl-2" value="&lt;span style=&quot;background-color: rgb(255 , 255 , 255)&quot;&gt;면접심사&lt;/span&gt;&lt;span style=&quot;color: rgba(0 , 0 , 0 , 0) ; font-family: monospace ; font-size: 0px ; background-color: rgb(248 , 249 , 250)&quot;&gt;%3CmxGraphModel%3E%3Croot%3E%3CmxCell%20id%3D%220%22%2F%3E%3CmxCell%20id%3D%221%22%20parent%3D%220%22%2F%3E%3CmxCell%20id%3D%222%22%20value%3D%22%26lt%3Bspan%20style%3D%26quot%3Bbackground-color%3A%20rgb(255%20%2C%20255%20%2C%20255)%26quot%3B%26gt%3B%EB%A9%B4%EC%A0%91%EC%9E%A5%EC%86%8C%20%EC%9E%85%EC%9E%A5%26lt%3B%2Fspan%26gt%3B%22%20style%3D%22rounded%3D1%3BwhiteSpace%3Dwrap%3Bhtml%3D1%3BlabelBackgroundColor%3D%23000000%3Bsketch%3D0%3B%22%20vertex%3D%221%22%20parent%3D%221%22%3E%3CmxGeometry%20x%3D%22270%22%20y%3D%22565%22%20width%3D%22120%22%20height%3D%2240%22%20as%3D%22geometry%22%2F%3E%3C%2FmxCell%3E%3C%2Froot%3E%3C%2FmxGraphModel%3E&lt;/span&gt;" style="rounded=1;whiteSpace=wrap;html=1;labelBackgroundColor=#000000;sketch=0;" vertex="1" parent="O0AF731DD-x7t5gvwVMw-1">
          <mxGeometry x="60" y="560" width="120" height="40" as="geometry" />
        </mxCell>
        <mxCell id="uc_O1cf6i0A3i_YrVDgl-27" style="edgeStyle=orthogonalEdgeStyle;rounded=0;orthogonalLoop=1;jettySize=auto;html=1;exitX=0;exitY=1;exitDx=0;exitDy=0;entryX=1;entryY=0.5;entryDx=0;entryDy=0;" edge="1" parent="O0AF731DD-x7t5gvwVMw-1" source="uc_O1cf6i0A3i_YrVDgl-3" target="uc_O1cf6i0A3i_YrVDgl-4">
          <mxGeometry relative="1" as="geometry">
            <Array as="points">
              <mxPoint x="240" y="660" />
              <mxPoint x="240" y="660" />
            </Array>
          </mxGeometry>
        </mxCell>
        <mxCell id="uc_O1cf6i0A3i_YrVDgl-3" value="&lt;span style=&quot;background-color: rgb(255 , 255 , 255)&quot;&gt;면접실퇴장&lt;/span&gt;" style="rounded=1;whiteSpace=wrap;html=1;labelBackgroundColor=#000000;sketch=0;" vertex="1" parent="O0AF731DD-x7t5gvwVMw-1">
          <mxGeometry x="270" y="620" width="120" height="40" as="geometry" />
        </mxCell>
        <mxCell id="uc_O1cf6i0A3i_YrVDgl-28" style="edgeStyle=orthogonalEdgeStyle;rounded=0;orthogonalLoop=1;jettySize=auto;html=1;exitX=0.5;exitY=1;exitDx=0;exitDy=0;entryX=0.5;entryY=0;entryDx=0;entryDy=0;" edge="1" parent="O0AF731DD-x7t5gvwVMw-1" source="uc_O1cf6i0A3i_YrVDgl-4" target="uc_O1cf6i0A3i_YrVDgl-9">
          <mxGeometry relative="1" as="geometry" />
        </mxCell>
        <mxCell id="uc_O1cf6i0A3i_YrVDgl-4" value="&lt;span style=&quot;background-color: rgb(255 , 255 , 255)&quot;&gt;면접합격자 선발&lt;/span&gt;" style="rounded=1;whiteSpace=wrap;html=1;labelBackgroundColor=#000000;sketch=0;" vertex="1" parent="O0AF731DD-x7t5gvwVMw-1">
          <mxGeometry x="60" y="640" width="120" height="40" as="geometry" />
        </mxCell>
        <mxCell id="uc_O1cf6i0A3i_YrVDgl-50" style="edgeStyle=orthogonalEdgeStyle;rounded=0;orthogonalLoop=1;jettySize=auto;html=1;exitX=0;exitY=1;exitDx=0;exitDy=0;entryX=0.442;entryY=0.025;entryDx=0;entryDy=0;entryPerimeter=0;" edge="1" parent="O0AF731DD-x7t5gvwVMw-1" source="uc_O1cf6i0A3i_YrVDgl-6" target="uc_O1cf6i0A3i_YrVDgl-10">
          <mxGeometry relative="1" as="geometry">
            <Array as="points">
              <mxPoint x="270" y="810" />
              <mxPoint x="113" y="810" />
            </Array>
          </mxGeometry>
        </mxCell>
        <mxCell id="uc_O1cf6i0A3i_YrVDgl-6" value="&lt;span style=&quot;background-color: rgb(255 , 255 , 255)&quot;&gt;공고확인&lt;/span&gt;" style="rounded=1;whiteSpace=wrap;html=1;labelBackgroundColor=#000000;sketch=0;" vertex="1" parent="O0AF731DD-x7t5gvwVMw-1">
          <mxGeometry x="270" y="765" width="120" height="40" as="geometry" />
        </mxCell>
        <mxCell id="uc_O1cf6i0A3i_YrVDgl-43" style="edgeStyle=orthogonalEdgeStyle;rounded=0;orthogonalLoop=1;jettySize=auto;html=1;exitX=0.5;exitY=1;exitDx=0;exitDy=0;entryX=0.5;entryY=0;entryDx=0;entryDy=0;" edge="1" parent="O0AF731DD-x7t5gvwVMw-1" source="uc_O1cf6i0A3i_YrVDgl-9" target="uc_O1cf6i0A3i_YrVDgl-41">
          <mxGeometry relative="1" as="geometry" />
        </mxCell>
        <mxCell id="uc_O1cf6i0A3i_YrVDgl-9" value="&amp;nbsp;면접합격자 선발공고 및 시범프로그램 안내" style="rounded=1;whiteSpace=wrap;html=1;" vertex="1" parent="O0AF731DD-x7t5gvwVMw-1">
          <mxGeometry x="60" y="710" width="120" height="40" as="geometry" />
        </mxCell>
        <mxCell id="uc_O1cf6i0A3i_YrVDgl-32" style="edgeStyle=orthogonalEdgeStyle;rounded=0;orthogonalLoop=1;jettySize=auto;html=1;entryX=0;entryY=0.5;entryDx=0;entryDy=0;" edge="1" parent="O0AF731DD-x7t5gvwVMw-1" source="uc_O1cf6i0A3i_YrVDgl-10" target="uc_O1cf6i0A3i_YrVDgl-11">
          <mxGeometry relative="1" as="geometry" />
        </mxCell>
        <mxCell id="uc_O1cf6i0A3i_YrVDgl-10" value="&lt;font style=&quot;font-size: 12px&quot;&gt;시범프로그램 등록&lt;/font&gt;" style="rounded=1;whiteSpace=wrap;html=1;" vertex="1" parent="O0AF731DD-x7t5gvwVMw-1">
          <mxGeometry x="60" y="830" width="120" height="40" as="geometry" />
        </mxCell>
        <mxCell id="uc_O1cf6i0A3i_YrVDgl-33" style="edgeStyle=orthogonalEdgeStyle;rounded=0;orthogonalLoop=1;jettySize=auto;html=1;exitX=0.5;exitY=1;exitDx=0;exitDy=0;entryX=1;entryY=0.5;entryDx=0;entryDy=0;" edge="1" parent="O0AF731DD-x7t5gvwVMw-1" source="uc_O1cf6i0A3i_YrVDgl-11" target="uc_O1cf6i0A3i_YrVDgl-12">
          <mxGeometry relative="1" as="geometry" />
        </mxCell>
        <mxCell id="uc_O1cf6i0A3i_YrVDgl-11" value="&lt;font style=&quot;font-size: 12px&quot;&gt;시범프로그램 운영&lt;/font&gt;" style="rounded=1;whiteSpace=wrap;html=1;" vertex="1" parent="O0AF731DD-x7t5gvwVMw-1">
          <mxGeometry x="270" y="830" width="120" height="40" as="geometry" />
        </mxCell>
        <mxCell id="uc_O1cf6i0A3i_YrVDgl-34" style="edgeStyle=orthogonalEdgeStyle;rounded=0;orthogonalLoop=1;jettySize=auto;html=1;exitX=0.5;exitY=1;exitDx=0;exitDy=0;entryX=0.5;entryY=0;entryDx=0;entryDy=0;" edge="1" parent="O0AF731DD-x7t5gvwVMw-1" source="uc_O1cf6i0A3i_YrVDgl-12" target="uc_O1cf6i0A3i_YrVDgl-13">
          <mxGeometry relative="1" as="geometry" />
        </mxCell>
        <mxCell id="uc_O1cf6i0A3i_YrVDgl-12" value="&lt;font style=&quot;font-size: 12px&quot;&gt;시범프로그램 &lt;br&gt;점수취합&lt;/font&gt;" style="rounded=1;whiteSpace=wrap;html=1;" vertex="1" parent="O0AF731DD-x7t5gvwVMw-1">
          <mxGeometry x="60" y="900" width="120" height="40" as="geometry" />
        </mxCell>
        <mxCell id="uc_O1cf6i0A3i_YrVDgl-35" style="edgeStyle=orthogonalEdgeStyle;rounded=0;orthogonalLoop=1;jettySize=auto;html=1;exitX=0.5;exitY=1;exitDx=0;exitDy=0;" edge="1" parent="O0AF731DD-x7t5gvwVMw-1" source="uc_O1cf6i0A3i_YrVDgl-13" target="uc_O1cf6i0A3i_YrVDgl-14">
          <mxGeometry relative="1" as="geometry" />
        </mxCell>
        <mxCell id="uc_O1cf6i0A3i_YrVDgl-13" value="최종합격자 선발" style="rounded=1;whiteSpace=wrap;html=1;" vertex="1" parent="O0AF731DD-x7t5gvwVMw-1">
          <mxGeometry x="60" y="970" width="120" height="40" as="geometry" />
        </mxCell>
        <mxCell id="uc_O1cf6i0A3i_YrVDgl-14" value="최종합격자 선발공고 및 정식강사등록 안내" style="rounded=1;whiteSpace=wrap;html=1;" vertex="1" parent="O0AF731DD-x7t5gvwVMw-1">
          <mxGeometry x="60" y="1040" width="120" height="40" as="geometry" />
        </mxCell>
        <mxCell id="uc_O1cf6i0A3i_YrVDgl-37" style="edgeStyle=orthogonalEdgeStyle;rounded=0;orthogonalLoop=1;jettySize=auto;html=1;exitX=0.5;exitY=1;exitDx=0;exitDy=0;entryX=0.5;entryY=0;entryDx=0;entryDy=0;" edge="1" parent="O0AF731DD-x7t5gvwVMw-1" target="uc_O1cf6i0A3i_YrVDgl-16">
          <mxGeometry relative="1" as="geometry">
            <mxPoint x="330" y="1135" as="sourcePoint" />
          </mxGeometry>
        </mxCell>
        <mxCell id="uc_O1cf6i0A3i_YrVDgl-15" value="공고확인" style="rounded=1;whiteSpace=wrap;html=1;" vertex="1" parent="O0AF731DD-x7t5gvwVMw-1">
          <mxGeometry x="270" y="1095" width="120" height="40" as="geometry" />
        </mxCell>
        <mxCell id="uc_O1cf6i0A3i_YrVDgl-38" style="edgeStyle=orthogonalEdgeStyle;rounded=0;orthogonalLoop=1;jettySize=auto;html=1;exitX=0.5;exitY=1;exitDx=0;exitDy=0;entryX=0.5;entryY=0;entryDx=0;entryDy=0;" edge="1" parent="O0AF731DD-x7t5gvwVMw-1" source="uc_O1cf6i0A3i_YrVDgl-16" target="uc_O1cf6i0A3i_YrVDgl-17">
          <mxGeometry relative="1" as="geometry" />
        </mxCell>
        <mxCell id="uc_O1cf6i0A3i_YrVDgl-16" value="정식강사 등록신청" style="rounded=1;whiteSpace=wrap;html=1;" vertex="1" parent="O0AF731DD-x7t5gvwVMw-1">
          <mxGeometry x="270" y="1165" width="120" height="40" as="geometry" />
        </mxCell>
        <mxCell id="uc_O1cf6i0A3i_YrVDgl-39" style="edgeStyle=orthogonalEdgeStyle;rounded=0;orthogonalLoop=1;jettySize=auto;html=1;entryX=1;entryY=0.5;entryDx=0;entryDy=0;" edge="1" parent="O0AF731DD-x7t5gvwVMw-1" source="uc_O1cf6i0A3i_YrVDgl-17" target="uc_O1cf6i0A3i_YrVDgl-19">
          <mxGeometry relative="1" as="geometry" />
        </mxCell>
        <mxCell id="uc_O1cf6i0A3i_YrVDgl-17" value="서류 취합 및 제출&lt;br&gt;주민등록등본&lt;br&gt;통장사본&lt;br&gt;신분증&lt;br&gt;자격증" style="rounded=1;whiteSpace=wrap;html=1;" vertex="1" parent="O0AF731DD-x7t5gvwVMw-1">
          <mxGeometry x="270" y="1234" width="120" height="91" as="geometry" />
        </mxCell>
        <mxCell id="uc_O1cf6i0A3i_YrVDgl-40" style="edgeStyle=orthogonalEdgeStyle;rounded=0;orthogonalLoop=1;jettySize=auto;html=1;exitX=0.5;exitY=1;exitDx=0;exitDy=0;" edge="1" parent="O0AF731DD-x7t5gvwVMw-1" source="uc_O1cf6i0A3i_YrVDgl-19" target="uc_O1cf6i0A3i_YrVDgl-20">
          <mxGeometry relative="1" as="geometry" />
        </mxCell>
        <mxCell id="uc_O1cf6i0A3i_YrVDgl-19" value="고용계약서 체결" style="rounded=1;whiteSpace=wrap;html=1;" vertex="1" parent="O0AF731DD-x7t5gvwVMw-1">
          <mxGeometry x="60" y="1259.5" width="120" height="40" as="geometry" />
        </mxCell>
        <mxCell id="uc_O1cf6i0A3i_YrVDgl-20" value="고용계약서 취합" style="rounded=1;whiteSpace=wrap;html=1;" vertex="1" parent="O0AF731DD-x7t5gvwVMw-1">
          <mxGeometry x="60" y="1325" width="120" height="40" as="geometry" />
        </mxCell>
        <mxCell id="uc_O1cf6i0A3i_YrVDgl-45" style="edgeStyle=orthogonalEdgeStyle;rounded=0;orthogonalLoop=1;jettySize=auto;html=1;" edge="1" parent="O0AF731DD-x7t5gvwVMw-1" source="uc_O1cf6i0A3i_YrVDgl-41" target="uc_O1cf6i0A3i_YrVDgl-6">
          <mxGeometry relative="1" as="geometry" />
        </mxCell>
        <mxCell id="uc_O1cf6i0A3i_YrVDgl-49" style="edgeStyle=orthogonalEdgeStyle;rounded=0;orthogonalLoop=1;jettySize=auto;html=1;exitX=0;exitY=0.5;exitDx=0;exitDy=0;entryX=1;entryY=0.5;entryDx=0;entryDy=0;" edge="1" parent="O0AF731DD-x7t5gvwVMw-1" source="uc_O1cf6i0A3i_YrVDgl-41" target="uc_O1cf6i0A3i_YrVDgl-48">
          <mxGeometry relative="1" as="geometry" />
        </mxCell>
        <mxCell id="uc_O1cf6i0A3i_YrVDgl-41" value="" style="rhombus;whiteSpace=wrap;html=1;rounded=0;labelBackgroundColor=#000000;sketch=0;" vertex="1" parent="O0AF731DD-x7t5gvwVMw-1">
          <mxGeometry x="105" y="770" width="30" height="30" as="geometry" />
        </mxCell>
        <mxCell id="uc_O1cf6i0A3i_YrVDgl-46" value="&lt;font color=&quot;#000000&quot;&gt;면접심사 합격이라면&lt;/font&gt;" style="text;html=1;strokeColor=none;fillColor=none;align=center;verticalAlign=middle;whiteSpace=wrap;rounded=0;labelBackgroundColor=none;sketch=0;fontSize=12;fontColor=#FFFFFF;" vertex="1" parent="O0AF731DD-x7t5gvwVMw-1">
          <mxGeometry x="135" y="765" width="120" height="20" as="geometry" />
        </mxCell>
        <mxCell id="uc_O1cf6i0A3i_YrVDgl-47" value="&lt;font color=&quot;#000000&quot;&gt;면접심사 불합격&lt;/font&gt;" style="text;html=1;strokeColor=none;fillColor=none;align=center;verticalAlign=middle;whiteSpace=wrap;rounded=0;labelBackgroundColor=none;sketch=0;fontSize=12;fontColor=#FFFFFF;" vertex="1" parent="O0AF731DD-x7t5gvwVMw-1">
          <mxGeometry x="20" y="765" width="100" height="20" as="geometry" />
        </mxCell>
        <mxCell id="uc_O1cf6i0A3i_YrVDgl-48" value="" style="ellipse;html=1;shape=endState;fillColor=#000000;strokeColor=#ff0000;rounded=0;labelBackgroundColor=none;sketch=0;fontSize=12;fontColor=#FFFFFF;" vertex="1" parent="O0AF731DD-x7t5gvwVMw-1">
          <mxGeometry y="770" width="30" height="30" as="geometry" />
        </mxCell>
        <mxCell id="uc_O1cf6i0A3i_YrVDgl-53" style="edgeStyle=orthogonalEdgeStyle;rounded=0;orthogonalLoop=1;jettySize=auto;html=1;exitX=1;exitY=0.5;exitDx=0;exitDy=0;entryX=0;entryY=0.5;entryDx=0;entryDy=0;" edge="1" parent="O0AF731DD-x7t5gvwVMw-1" source="uc_O1cf6i0A3i_YrVDgl-51" target="uc_O1cf6i0A3i_YrVDgl-15">
          <mxGeometry relative="1" as="geometry" />
        </mxCell>
        <mxCell id="uc_O1cf6i0A3i_YrVDgl-55" style="edgeStyle=orthogonalEdgeStyle;rounded=0;orthogonalLoop=1;jettySize=auto;html=1;exitX=0;exitY=0.5;exitDx=0;exitDy=0;" edge="1" parent="O0AF731DD-x7t5gvwVMw-1" source="uc_O1cf6i0A3i_YrVDgl-51" target="uc_O1cf6i0A3i_YrVDgl-54">
          <mxGeometry relative="1" as="geometry" />
        </mxCell>
        <mxCell id="uc_O1cf6i0A3i_YrVDgl-51" value="" style="rhombus;whiteSpace=wrap;html=1;rounded=0;labelBackgroundColor=#000000;sketch=0;" vertex="1" parent="O0AF731DD-x7t5gvwVMw-1">
          <mxGeometry x="105" y="1100" width="30" height="30" as="geometry" />
        </mxCell>
        <mxCell id="uc_O1cf6i0A3i_YrVDgl-52" value="&lt;font color=&quot;#000000&quot;&gt;최종합격이라면&lt;/font&gt;" style="text;html=1;strokeColor=none;fillColor=none;align=center;verticalAlign=middle;whiteSpace=wrap;rounded=0;labelBackgroundColor=none;sketch=0;fontSize=12;fontColor=#FFFFFF;" vertex="1" parent="O0AF731DD-x7t5gvwVMw-1">
          <mxGeometry x="140" y="1095" width="120" height="20" as="geometry" />
        </mxCell>
        <mxCell id="uc_O1cf6i0A3i_YrVDgl-54" value="" style="ellipse;html=1;shape=endState;fillColor=#000000;strokeColor=#ff0000;rounded=0;labelBackgroundColor=none;sketch=0;fontSize=12;fontColor=#FFFFFF;" vertex="1" parent="O0AF731DD-x7t5gvwVMw-1">
          <mxGeometry y="1100" width="30" height="30" as="geometry" />
        </mxCell>
        <mxCell id="uc_O1cf6i0A3i_YrVDgl-56" value="&lt;font color=&quot;#000000&quot;&gt;최종불합격&lt;/font&gt;" style="text;html=1;strokeColor=none;fillColor=none;align=center;verticalAlign=middle;whiteSpace=wrap;rounded=0;labelBackgroundColor=none;sketch=0;fontSize=12;fontColor=#FFFFFF;" vertex="1" parent="O0AF731DD-x7t5gvwVMw-1">
          <mxGeometry x="20" y="1095" width="100" height="20" as="geometry" />
        </mxCell>
      </root>
    </mxGraphModel>
  </diagram>
</mxfile>
